<svg xmlns="http://www.w3.org/2000/svg" viewBox="0 0 750 500"><g id="freepik--Floor--inject-2"><path d="M708.36,464.87c0,.14-149.26.26-333.34.26S41.64,465,41.64,464.87s149.23-.27,333.38-.27S708.36,464.72,708.36,464.87Z" style="fill:#263238"></path></g><g id="freepik--Sofa--inject-2"><polygon points="581.56 410.19 593.34 465.46 578.23 465.46 552.93 409.26 581.56 410.19" style="fill:#e0e0e0"></polygon><path d="M581.56,410.19H581l-1.5,0-5.74-.14-20.87-.57.19-.28,21.53,47.67q1.93,4.32,3.83,8.51l-.24-.16h15.11l-.24.3c-3.37-16-6.27-29.82-8.34-39.63-1-4.9-1.82-8.8-2.38-11.51-.27-1.33-.48-2.36-.62-3.09-.07-.34-.12-.6-.16-.81a1.44,1.44,0,0,1,0-.28,1.61,1.61,0,0,1,.07.25l.18.77c.16.72.39,1.73.68,3L585,425.68c2.13,9.84,5.11,23.67,8.58,39.73l.07.3H578.06l-.06-.15-3.84-8.51c-8.2-18.29-15.71-35-21.41-47.72l-.13-.29h.31l21,.78,5.7.24,1.47.07A3.34,3.34,0,0,1,581.56,410.19Z" style="fill:#263238"></path><polygon points="163.87 410.19 152.09 465.46 167.19 465.46 192.5 409.26 163.87 410.19" style="fill:#e0e0e0"></polygon><path d="M163.87,410.19a3.34,3.34,0,0,1,.49,0l1.47-.07,5.69-.24,21-.78h.32l-.13.29-21.42,47.72q-1.94,4.32-3.83,8.51l-.07.15H151.78l.06-.3c3.47-16.06,6.46-29.89,8.58-39.73,1.07-4.86,1.92-8.74,2.51-11.43.3-1.31.52-2.32.68-3l.19-.77c0-.17.06-.26.07-.25a2.67,2.67,0,0,1-.05.28c0,.21-.09.47-.15.81-.15.73-.36,1.76-.62,3.09-.56,2.71-1.37,6.61-2.39,11.51-2.06,9.81-5,23.61-8.33,39.63l-.24-.3h15.1l-.23.16q1.88-4.19,3.83-8.51l21.53-47.67.18.28-20.87.57-5.73.14-1.51,0Z" style="fill:#263238"></path><rect x="166.22" y="354.99" width="447.8" height="71.7" style="fill:#455a64"></rect><path d="M384.09,297.61v-80.8A10.79,10.79,0,0,1,394.88,206H583.53a10.78,10.78,0,0,1,10.78,10.78V329.06l-210.5,6Z" style="fill:#455a64"></path><path d="M172.9,297.61v-80.8A10.82,10.82,0,0,1,183.74,206H373.26a10.81,10.81,0,0,1,10.83,10.78l-.28,118.24-210.91-6Z" style="fill:#455a64"></path><path d="M641.88,425.92H593.5c-4.52,0-8.18-4.8-8.18-10.72V287.54c0-5.92,3.66-10.72,8.31-10.72H642c4.39,0,8,4.8,8,10.72V415.2C650.06,421.12,646.4,425.92,641.88,425.92Z" style="fill:#455a64"></path><path d="M641.88,425.92s.36,0,1-.13a6.74,6.74,0,0,0,2.83-1.22,9.89,9.89,0,0,0,3.07-3.92,12.41,12.41,0,0,0,.93-3.07,20.42,20.42,0,0,0,.2-3.66c0-10.42-.05-25.49-.09-44.11s0-40.8,0-65.43q0-4.62,0-9.34v-4.76a35.79,35.79,0,0,0-.15-4.76,12.48,12.48,0,0,0-1.56-4.47,8.5,8.5,0,0,0-3.36-3.29,5.65,5.65,0,0,0-2.26-.65c-.79-.07-1.65,0-2.47,0H593.54a6.94,6.94,0,0,0-4.61,2,10.57,10.57,0,0,0-2.69,4.33,15.13,15.13,0,0,0-.66,5.1v25.65c0,13.4,0,26.33,0,38.64s0,24,0,35q0,8.2,0,15.85v7.47c0,1.21,0,2.42,0,3.61a14.75,14.75,0,0,0,.32,3.47,10.93,10.93,0,0,0,3.17,5.78,7.22,7.22,0,0,0,2.76,1.58,10.84,10.84,0,0,0,3.12.26l11.85,0,19,0,12,.05,3.12,0,1.06,0-1.06,0-3.12,0-12,0-19,0-11.85,0a10.69,10.69,0,0,1-3.21-.27,7.3,7.3,0,0,1-2.9-1.64,11.3,11.3,0,0,1-3.3-6,15.6,15.6,0,0,1-.34-3.55v-3.61q0-3.66,0-7.47,0-7.63,0-15.85c0-11,0-22.65,0-35s0-25.24,0-38.64q0-10,0-20.44v-5.21a15.74,15.74,0,0,1,.69-5.26,11,11,0,0,1,2.83-4.55,7.44,7.44,0,0,1,4.95-2.09H640c.84,0,1.64,0,2.51,0a6.35,6.35,0,0,1,2.45.71,9,9,0,0,1,3.56,3.48,12.84,12.84,0,0,1,1.62,4.65,37.58,37.58,0,0,1,.16,4.84c0,1.59,0,3.18,0,4.76v9.34c0,24.63,0,46.8-.06,65.43s-.06,33.69-.08,44.11a19.88,19.88,0,0,1-.23,3.69,12.11,12.11,0,0,1-1,3.1,9.89,9.89,0,0,1-3.15,4,6.63,6.63,0,0,1-2.88,1.18A6,6,0,0,1,641.88,425.92Z" style="fill:#263238"></path><rect x="383.41" y="327.6" width="205.28" height="41.43" rx="8.6" style="fill:#455a64"></rect><path d="M580.09,369s.42,0,1.22-.13a8.58,8.58,0,0,0,6.85-5.8,10.38,10.38,0,0,0,.42-3.69c0-1.34,0-2.77,0-4.28,0-3,0-6.4,0-10.08,0-1.84,0-3.77,0-5.76s.24-4.13-.57-6.09a8.45,8.45,0,0,0-4.36-4.64c-2.05-1-4.48-.71-6.91-.76l-15.45,0L392,327.92a8.3,8.3,0,0,0-5.45,2.05,8.2,8.2,0,0,0-2.76,5.08,24.85,24.85,0,0,0-.09,3v21.08a14.46,14.46,0,0,0,.16,2.89,8.32,8.32,0,0,0,1,2.64,8.16,8.16,0,0,0,4.27,3.54c1.75.7,3.71.47,5.64.51h39.11l76.08.06,51.28.11,14,.06,3.62,0,1.24,0-1.24,0-3.62,0-14,.06-51.28.1-76.08.07h-42a8.9,8.9,0,0,1-7.55-4.34,9.17,9.17,0,0,1-1.1-2.84,15.38,15.38,0,0,1-.17-3V338.06a23.21,23.21,0,0,1,.1-3.1,8.79,8.79,0,0,1,3-5.47,9,9,0,0,1,5.87-2.2l169.21.09,15.45,0,3.6,0a8.48,8.48,0,0,1,3.46.8,8.8,8.8,0,0,1,5.12,8c0,1,0,2.06,0,3.06,0,2,0,3.92,0,5.76,0,3.68,0,7.05,0,10.08,0,1.51,0,2.94,0,4.28a10.56,10.56,0,0,1-.46,3.75,8.66,8.66,0,0,1-3.61,4.58,8.33,8.33,0,0,1-3.41,1.22A6,6,0,0,1,580.09,369Z" style="fill:#263238"></path><path d="M165.08,426.69H116.7c-4.51,0-8.18-4.8-8.18-10.72V288.32c0-5.92,3.67-10.72,8.32-10.72h48.37c4.39,0,8,4.8,8,10.72V416C173.26,421.89,169.6,426.69,165.08,426.69Z" style="fill:#455a64"></path><path d="M165.08,426.69s.36,0,1-.12a7,7,0,0,0,2.83-1.22,9.8,9.8,0,0,0,3.07-3.92,12.54,12.54,0,0,0,.93-3.07,20.42,20.42,0,0,0,.2-3.66c0-10.43,0-25.5-.08-44.11s0-40.81-.06-65.43q0-4.62,0-9.35v-4.75a36,36,0,0,0-.15-4.77,12.5,12.5,0,0,0-1.56-4.46,8.37,8.37,0,0,0-3.36-3.29,5.83,5.83,0,0,0-2.26-.66c-.79-.06-1.65,0-2.47,0h-5l-41.47,0a6.89,6.89,0,0,0-4.61,1.95,10.57,10.57,0,0,0-2.69,4.33,15,15,0,0,0-.66,5.09v25.65c0,13.41,0,26.33,0,38.65s0,24,0,35c0,5.47,0,10.76,0,15.84v7.47c0,1.22,0,2.42,0,3.62a14.85,14.85,0,0,0,.32,3.47,11,11,0,0,0,3.17,5.78,7.2,7.2,0,0,0,2.76,1.57,10.53,10.53,0,0,0,3.12.27l11.85,0,19,0,12,.05,3.12,0,1.06,0-1.06,0-3.12,0-12,.05-19,0-11.85,0a11,11,0,0,1-3.21-.27A7.55,7.55,0,0,1,112,425a11.34,11.34,0,0,1-3.3-6,15.05,15.05,0,0,1-.33-3.55c0-1.2,0-2.4,0-3.62q0-3.66,0-7.47c0-5.08,0-10.37,0-15.84,0-11,0-22.66,0-35s0-25.24,0-38.65q0-10,0-20.44v-5.21A15.69,15.69,0,0,1,109,284a11,11,0,0,1,2.83-4.55,7.37,7.37,0,0,1,5-2.09h46.48c.84,0,1.64,0,2.51,0a6.19,6.19,0,0,1,2.45.71,8.9,8.9,0,0,1,3.56,3.48,12.84,12.84,0,0,1,1.62,4.65,37.58,37.58,0,0,1,.16,4.84v14.1c0,24.62,0,46.8-.06,65.43s-.06,33.68-.08,44.11a19.88,19.88,0,0,1-.23,3.69,11.85,11.85,0,0,1-1,3.1,9.78,9.78,0,0,1-3.15,3.94,6.68,6.68,0,0,1-2.88,1.19A6.5,6.5,0,0,1,165.08,426.69Z" style="fill:#263238"></path><rect x="166.54" y="327.14" width="216.87" height="42.35" rx="8.6" style="fill:#455a64"></rect><path d="M374.81,369.49s.44,0,1.29-.14A8.52,8.52,0,0,0,383,363a14.93,14.93,0,0,0,.27-3.92c0-1.41,0-2.91,0-4.5,0-3.19,0-6.73,0-10.61,0-1.94,0-4,0-6.06,0-1.05,0-2.14-.07-3.2a8.2,8.2,0,0,0-1-3.08,8.4,8.4,0,0,0-5.3-4.06,13.86,13.86,0,0,0-3.61-.26h-3.8l-16.25,0-178.06.1a8.28,8.28,0,0,0-8.27,7.74c0,4.26,0,8.55,0,12.78s0,8.43,0,12.6a8.46,8.46,0,0,0,1.89,5.57,8.3,8.3,0,0,0,5,2.91,18.72,18.72,0,0,0,3,.12H221l80.05.07,54,.1,14.67.06,3.82,0,1.3,0-1.3,0-3.82,0-14.67.05-54,.11-80.05.06H176.79a18.24,18.24,0,0,1-3.11-.13,8.9,8.9,0,0,1-7.45-9.09q0-6.25,0-12.6c0-4.25,0-8.48,0-12.82a8.94,8.94,0,0,1,8.9-8.34l178.06.1,16.25,0h3.8a14.35,14.35,0,0,1,3.7.29,8.82,8.82,0,0,1,5.52,4.25,8.62,8.62,0,0,1,1,3.22c.11,1.12.05,2.18.06,3.24,0,2.1,0,4.12,0,6.06q0,5.82,0,10.61c0,1.59,0,3.09,0,4.5a14.85,14.85,0,0,1-.31,4,8.56,8.56,0,0,1-7.1,6.35,7,7,0,0,1-1,.07Z" style="fill:#263238"></path><path d="M384.09,215.9c.18,0,.32,25.85.32,57.73s-.14,57.73-.32,57.73-.31-25.84-.31-57.73S383.92,215.9,384.09,215.9Z" style="fill:#263238"></path><path d="M491.85,252.44s-.19.27-.44.77a4,4,0,0,0-.32,2.27,3.87,3.87,0,0,0,1.73,2.77,3.64,3.64,0,0,0,5.1-4,3.83,3.83,0,0,0-2.29-2.32,3.9,3.9,0,0,0-2.29-.21c-.54.12-.82.29-.85.24a1.61,1.61,0,0,1,.78-.48,3.94,3.94,0,0,1,2.51,0,4.27,4.27,0,0,1,2.7,2.58,3.47,3.47,0,0,1,0,2.29,4.51,4.51,0,0,1-3.68,2.91,3.5,3.5,0,0,1-2.24-.5,4.24,4.24,0,0,1-1.88-3.22,3.88,3.88,0,0,1,.56-2.44C491.53,252.59,491.83,252.42,491.85,252.44Z" style="fill:#263238"></path><path d="M511,237.38c0,.11-1.28.13-3.24.69a15.66,15.66,0,0,0-10.83,10.6c-.6,2-.66,3.23-.77,3.22a2.21,2.21,0,0,1,0-.9,11.69,11.69,0,0,1,.38-2.44,14.89,14.89,0,0,1,11.15-10.91,12.48,12.48,0,0,1,2.44-.33A2.27,2.27,0,0,1,511,237.38Z" style="fill:#263238"></path><path d="M466.71,258.69a3.07,3.07,0,0,1,.6-.84,13.87,13.87,0,0,1,2.06-1.94,16.24,16.24,0,0,1,17.69-1.44A13.67,13.67,0,0,1,489.4,256c.51.44.76.71.73.74s-1.17-.89-3.28-1.91a16.79,16.79,0,0,0-17.22,1.41C467.72,257.62,466.8,258.77,466.71,258.69Z" style="fill:#263238"></path><path d="M496.48,269.16c-.07,0-.57-.49-1.26-1.46a9.7,9.7,0,0,1-1.87-4.32,5.26,5.26,0,0,1,1.51-4.45c1-.85,1.82-.83,1.81-.77s-.73.25-1.49,1.09A5.23,5.23,0,0,0,494,263.3a11.58,11.58,0,0,0,1.62,4.16A6.61,6.61,0,0,1,496.48,269.16Z" style="fill:#263238"></path><path d="M277.34,252.44c.05,0-.18.27-.43.77a4,4,0,0,0-.32,2.27,3.87,3.87,0,0,0,1.73,2.77,3.64,3.64,0,0,0,5.1-4,3.86,3.86,0,0,0-2.29-2.32,3.9,3.9,0,0,0-2.29-.21c-.54.12-.82.29-.85.24s.22-.27.78-.48a3.94,3.94,0,0,1,2.51,0,4.27,4.27,0,0,1,2.7,2.58,3.47,3.47,0,0,1,0,2.29,4.54,4.54,0,0,1-3.69,2.91,3.47,3.47,0,0,1-2.23-.5,4.24,4.24,0,0,1-1.88-3.22,3.88,3.88,0,0,1,.56-2.44C277,252.59,277.33,252.42,277.34,252.44Z" style="fill:#263238"></path><path d="M296.46,237.38c0,.11-1.28.13-3.23.69a15.61,15.61,0,0,0-10.83,10.6c-.6,2-.66,3.23-.77,3.22a2.21,2.21,0,0,1,0-.9,12.25,12.25,0,0,1,.37-2.44,14.93,14.93,0,0,1,11.15-10.91,12.56,12.56,0,0,1,2.45-.33A2.24,2.24,0,0,1,296.46,237.38Z" style="fill:#263238"></path><path d="M252.21,258.69a3.07,3.07,0,0,1,.6-.84,13.87,13.87,0,0,1,2.06-1.94,16.24,16.24,0,0,1,17.69-1.44A14.09,14.09,0,0,1,274.9,256c.51.44.75.71.73.74s-1.18-.89-3.28-1.91a16.79,16.79,0,0,0-17.22,1.41C253.22,257.62,252.29,258.77,252.21,258.69Z" style="fill:#263238"></path><path d="M282,269.16c-.07,0-.57-.49-1.27-1.46a9.93,9.93,0,0,1-1.87-4.32,5.29,5.29,0,0,1,1.52-4.45c1-.85,1.82-.83,1.81-.77s-.73.25-1.49,1.09a5.19,5.19,0,0,0-1.21,4.05,11.58,11.58,0,0,0,1.62,4.16A6.61,6.61,0,0,1,282,269.16Z" style="fill:#263238"></path></g><g id="freepik--character-1--inject-2"><path d="M371.89,126.6c-2.19-2.52-4.87-4.93-5.54-8.2-.63-3,.55-6.38-.93-9.07-1.82-3.31-6.65-3.76-8.88-6.82-1.08-1.48-1.4-3.4-2.46-4.89-1.82-2.54-5.34-3.22-8.44-2.91s-6.09,1.42-9.21,1.63c-4.27.28-8.67-1.13-12.77.07-4.53,1.34-7.31,5.33-10.27,9.19l-3.85,4.47a17,17,0,0,1-2.57,2.07c-1.62,1-3.47,1.75-4.86,3.07a7.56,7.56,0,0,0,.45,10.89,8.08,8.08,0,0,0-5.48,7.9,23.29,23.29,0,0,0,1.44,5.49,8,8,0,0,1,.13,5.57c-.76,1.73-3,2.92-4.64,2a8.48,8.48,0,0,0,4.61,5.68,5.13,5.13,0,0,1-3.42,1.51c3.43,8.14,12.83,12.45,21.67,12.52s17.3-3.25,25.51-6.52l23.82-6.11c2.09-.47,3-3,2.94-5.15s-.56-4.37.21-6.37c1.06-2.75,4.25-4.19,5.36-6.92C376,132.59,374.08,129.13,371.89,126.6Z" style="fill:#263238"></path><path d="M315.53,148.14a98,98,0,0,1-4.15-16.4,34.26,34.26,0,0,1,1.46-16.7c.3-.8,2.88-6.16,3.73-6.07.61.06-1,5.07-.68,5.6,2.9,5.07,3.65,11.14,3.14,17a76.29,76.29,0,0,1-3.5,16.61" style="fill:#263238"></path><path d="M315.12,126.59c-.36-14.15,7.58-26.16,21.74-26.13l1.31.08A25.31,25.31,0,0,1,362,125.3c.24,12.27.36,25.83-.12,32.38-1,13.55-14.68,14.84-14.68,14.84s.33,22.3.33,22.3L315.08,188Z" style="fill:#c16d68"></path><path d="M347.15,172.52a32.89,32.89,0,0,1-17.35-6.29s3.79,11.28,17.4,10.88Z" style="fill:#924d49"></path><path d="M357.31,136.82a1.94,1.94,0,0,1-2,1.84,1.84,1.84,0,0,1-1.89-1.86,2,2,0,0,1,2-1.85A1.87,1.87,0,0,1,357.31,136.82Z" style="fill:#263238"></path><path d="M358.71,130.76c-.25.23-1.66-.94-3.74-1.06s-3.68.83-3.89.56c-.1-.12.17-.56.87-1a5.37,5.37,0,0,1,3.13-.76,5.15,5.15,0,0,1,3,1.16C358.65,130.18,358.84,130.65,358.71,130.76Z" style="fill:#263238"></path><path d="M339.53,136.78a1.94,1.94,0,0,1-2,1.84,1.85,1.85,0,0,1-1.89-1.87,2,2,0,0,1,2-1.84A1.87,1.87,0,0,1,339.53,136.78Z" style="fill:#263238"></path><path d="M338.25,130.36c-.26.24-1.66-.94-3.75-1.06s-3.67.83-3.88.56.16-.56.86-1a5.24,5.24,0,0,1,3.13-.76,5.12,5.12,0,0,1,3,1.15C338.18,129.78,338.37,130.25,338.25,130.36Z" style="fill:#263238"></path><path d="M344.75,146.83a13.6,13.6,0,0,1,3.42-.41c.54,0,1.05-.09,1.16-.45a2.7,2.7,0,0,0-.26-1.6c-.42-1.32-.86-2.7-1.33-4.15-1.83-5.9-3.13-10.74-2.89-10.81s1.92,4.65,3.76,10.55c.43,1.46.86,2.84,1.26,4.17a3.13,3.13,0,0,1,.14,2.11,1.33,1.33,0,0,1-.92.72,3.73,3.73,0,0,1-.91.07A13.36,13.36,0,0,1,344.75,146.83Z" style="fill:#263238"></path><path d="M338.53,147.9c.34,0,.21,2.26,2,4s4.27,1.62,4.27,1.94c0,.15-.57.41-1.59.37a5.56,5.56,0,0,1-3.56-1.49,4.9,4.9,0,0,1-1.57-3.33C338.09,148.42,338.37,147.88,338.53,147.9Z" style="fill:#263238"></path><path d="M338.64,121.9c-.24.55-2.3.16-4.76.3s-4.49.69-4.78.17c-.13-.25.25-.77,1.08-1.27a8,8,0,0,1,3.59-1,8.06,8.06,0,0,1,3.68.66C338.32,121.16,338.75,121.63,338.64,121.9Z" style="fill:#263238"></path><path d="M358.27,123.78c-.4.45-1.8-.13-3.53-.26s-3.2.13-3.51-.39c-.13-.25.13-.71.79-1.12a5.12,5.12,0,0,1,5.67.52C358.27,123.05,358.45,123.55,358.27,123.78Z" style="fill:#263238"></path><path d="M315.62,136.7c-.22-.11-9.15-3.32-9.41,6s9.11,7.64,9.13,7.38S315.62,136.7,315.62,136.7Z" style="fill:#c16d68"></path><path d="M312.61,146.45s-.17.11-.44.22a1.59,1.59,0,0,1-1.22,0c-1-.39-1.75-2-1.75-3.64a5.64,5.64,0,0,1,.52-2.31,1.87,1.87,0,0,1,1.26-1.2.82.82,0,0,1,.94.47c.12.26.05.44.1.46s.21-.15.14-.53a1,1,0,0,0-.35-.6,1.25,1.25,0,0,0-.89-.26,2.29,2.29,0,0,0-1.73,1.39,5.53,5.53,0,0,0-.63,2.58c0,1.87.91,3.65,2.24,4.08a1.78,1.78,0,0,0,1.49-.21C312.58,146.67,312.64,146.46,312.61,146.45Z" style="fill:#924d49"></path><path d="M356.24,109.79c1.53-.8-2.89-5.76-6.55-7.51-5.54-2.64-14-4.37-19.21-3-6.24,1.64-11.45,4.62-14.68,10.2A36.64,36.64,0,0,0,311.33,128a11.09,11.09,0,0,0,1.2,5.7c1.25,2.09,3.72,3.43,3.55,6.26a3.93,3.93,0,0,0,.91,2.86c1.67,1.84,3.78.18,4.77-1.5,2.11-3.6,2.43-7.94,2.69-12.11a27.06,27.06,0,0,0-.41-8.85c-.43-1.56-1.13-3-1.46-4.61a5.56,5.56,0,0,1,.75-4.63,6.2,6.2,0,0,1,.77-.75,9.7,9.7,0,0,1,9.65-1.64c5.19,2,14.07,4.9,16.44,3.17,3.41-2.49,4.25-4.14,4.25-4.14Z" style="fill:#263238"></path><path d="M331,98a20.42,20.42,0,0,1,15.68,1.18,10.6,10.6,0,0,1,5.48,6.28c.71,2.76-.53,6.13-3.2,7.15l-.18.11c-4,1.26-6.56.68-10.48-.77-3.3-1.22-6.22-3.33-9.53-4.53a18.85,18.85,0,0,0-11.05-.54A31,31,0,0,1,331,98Z" style="fill:#263238"></path><path d="M324.35,126.38l-12.89,6.17s-3.59,2.12-3.35,4.61a11.46,11.46,0,0,1,4.77-.82A3.14,3.14,0,0,1,316,139v.05l8.07,1Z" style="fill:#e0e0e0"></path><path d="M324.34,126.38c-.09.47-.23,13.7-.23,13.7l17.59.23s3-6,4.05-6.1c1.6-.1,4.11,5.66,4.11,5.66l14.86,0V126.77Zm16.2,10.48a1.21,1.21,0,0,1-1.21,1.21H328.64a1.21,1.21,0,0,1-1.21-1.21v-6.6a1.21,1.21,0,0,1,1.21-1.21h10.69a1.21,1.21,0,0,1,1.21,1.21Zm21.9,0a1.21,1.21,0,0,1-1.21,1.21H352a1.22,1.22,0,0,1-1.22-1.21v-6.6a1.22,1.22,0,0,1,1.22-1.21h9.23a1.21,1.21,0,0,1,1.21,1.21Z" style="fill:#e0e0e0"></path><rect x="327.43" y="129.05" width="13.12" height="9.03" rx="1.28" style="fill:#455a64"></rect><rect x="350.78" y="129.05" width="11.66" height="9.03" rx="1.28" style="fill:#FF725E"></rect><path d="M324.42,140.21a45.67,45.67,0,0,1-.26-6.83,45.48,45.48,0,0,1,.26-6.82,45.48,45.48,0,0,1,.26,6.82A45.67,45.67,0,0,1,324.42,140.21Z" style="fill:#263238"></path><path d="M339.08,130.52a25.56,25.56,0,0,1-3.5,3.79,26.56,26.56,0,0,1-3.87,3.41,25.56,25.56,0,0,1,3.5-3.79A26.56,26.56,0,0,1,339.08,130.52Z" style="fill:#fff"></path><path d="M336.63,130a14.94,14.94,0,0,1-2.63,2.89,15.16,15.16,0,0,1-3,2.52,28.8,28.8,0,0,1,5.62-5.41Z" style="fill:#fff"></path><path d="M356.89,132.25a7.93,7.93,0,0,1-1.68,2.27c-1,1.16-2,2-2.07,1.92a7.84,7.84,0,0,1,1.68-2.27A7.92,7.92,0,0,1,356.89,132.25Z" style="fill:#fff"></path><path d="M360.56,129.93a12.08,12.08,0,0,1-2.38,3.62,12.31,12.31,0,0,1-3.14,3,32.54,32.54,0,0,1,2.74-3.31A36.06,36.06,0,0,1,360.56,129.93Z" style="fill:#fff"></path><path d="M408.1,189.09s43.53,4.39,49,2.67,46.93.76,46.93.76l1.47,13.73-101.55,6.33Z" style="fill:#c16d68"></path><path d="M503.47,192.49s5.92.47,7.73.86,31,6.34,32.53,7.24,15.32,5.19,15.32,5.19.13,2.08-1.56,2.34-7.92-1.69-7.92-1.69l6.24,4.67a9,9,0,0,1-5.46.91c-3.37-.39-13.89-6.1-13.89-6.1l-9.86.39s9.08,5.13,9.21,7.24a3,3,0,0,1-3.89,3c-1.82-.65-9.09-4.16-9.09-4.16s-11.68-3.63-13.76-6l-7.52,0Z" style="fill:#c16d68"></path><path d="M369.26,180.53s3.35-.31,16.3,2.69A171.22,171.22,0,0,0,410.5,187l.81,27.45s-40.27.39-44.87,9.41Z" style="fill:#FF725E"></path><g style="opacity:0.30000000000000004"><path d="M377.2,218.05s-.87-18.7,4.2-25.77c4.58-6.39,8.81-7.94,8.81-7.94l8.07,2.1-5.6,10.06-2.5,19.28Z"></path></g><path d="M283.68,180.53v34.61L265,256.92l67.2,36,34.16,7.63s-.3-9.25-2.85-30c-2.08-17,6.52-60.51,6.52-60.51V180.53l-22.85-2.67s-3.66,8.16-15.8,7.74c-15-.51-16.33-9.8-16.33-9.8Z" style="fill:#FF725E"></path><path d="M283.68,180.53s-9.53,1-15.06,6.11-20.54,25.16-20.54,25.16l29.18,22.87L291,209.72Z" style="fill:#FF725E"></path><g style="opacity:0.30000000000000004"><path d="M268.1,206.37l78.06,88.71-7.54,6.5L258,206.37A40.12,40.12,0,0,1,268.1,206.37Z"></path></g><path d="M279,202.79c.14,0,.77,6.88,1.4,15.39s1,15.41.87,15.43-.77-6.88-1.39-15.39S278.82,202.8,279,202.79Z" style="fill:#263238"></path><path d="M348.05,261a13,13,0,0,1-1.67-.61c-1.06-.43-2.61-1-4.54-1.68s-4.27-1.36-6.89-2-5.54-1.22-8.62-1.65-6.06-.62-8.76-.71-5.13,0-7.17.1-3.69.27-4.83.4a11.49,11.49,0,0,1-1.77.14,13,13,0,0,1,1.75-.34c1.13-.2,2.78-.4,4.83-.56a71.77,71.77,0,0,1,7.21-.22,75.83,75.83,0,0,1,17.48,2.38c2.63.69,5,1.42,6.89,2.14s3.46,1.34,4.5,1.83A10.88,10.88,0,0,1,348.05,261Z" style="fill:#263238"></path><path d="M373.32,188.37a10.82,10.82,0,0,1-.2,1.74l-.71,4.73c-.6,4.07-1.39,9.55-2.27,15.6S368.41,222,367.71,226c-.34,2-.64,3.59-.87,4.7a13.62,13.62,0,0,1-.4,1.71,9.53,9.53,0,0,1,.2-1.74c.18-1.21.42-2.8.71-4.73.59-4.07,1.39-9.55,2.27-15.6s1.72-11.6,2.42-15.58c.35-2,.65-3.6.88-4.7A11.25,11.25,0,0,1,373.32,188.37Z" style="fill:#263238"></path><g style="opacity:0.30000000000000004"><polygon points="243.56 330.95 258.78 335.94 247.5 427 264.87 427 282.01 326.15 243.56 330.95"></polygon></g><path d="M266.37,200s6.34.67,4,4.33-7.09,2.79-7.09,2.79l-8.36-2.45-2.55-2.85V200a45.64,45.64,0,0,0,7.89.56C263.15,200.29,266.37,200,266.37,200Z" style="fill:#c16d68"></path><path d="M289.37,432,277.8,477.4l-56.53-14.1c1.68-5.32,33.63-8.86,33.63-8.86l6.22-29.38Z" style="fill:#455a64"></path><path d="M273,456.35a2.37,2.37,0,0,1,.94,3,2.29,2.29,0,0,1-3,1,2.51,2.51,0,0,1-1-3.22,2.38,2.38,0,0,1,3.23-.65" style="fill:#fff"></path><path d="M277.78,477.5l1.26-4.85-54.87-11.49s-2.79.48-2.94,2.33Z" style="fill:#263238"></path><path d="M254.05,453.92c-.06.28,1.29.75,2.43,2s1.57,2.56,1.85,2.52.27-1.75-1.13-3.21S254.06,453.65,254.05,453.92Z" style="fill:#fff"></path><path d="M247.51,454.89c-.13.26,1,1,1.6,2.43s.61,2.7.88,2.76.85-1.47,0-3.19S247.58,454.63,247.51,454.89Z" style="fill:#fff"></path><path d="M242.38,461.15c.23.12,1-1.16.63-2.85s-1.47-2.61-1.65-2.41.42,1.21.68,2.6S242.11,461.05,242.38,461.15Z" style="fill:#fff"></path><path d="M256.21,447.39c.06.28,1.42.21,3,.71s2.63,1.29,2.83,1.09-.72-1.48-2.53-2S256.13,447.13,256.21,447.39Z" style="fill:#fff"></path><path d="M288.67,293s-16.91-2-19.61,15.66C266.41,326,255.3,443.87,255.3,443.87l31.76,6.4s21.51-54.11,24.38-72S315,336.62,315,336.62s21.44,2.75,41.1-4.62c2.55-1,8.28-31.87,8.28-31.87l-25.81-5.77L268.4,255.2Z" style="fill:#263238"></path><path d="M308.33,305.23,336,335.94l38.39-34.18c-3.49-3.47-29.91,6.85-29.91,6.85l-16.89-20.4Z" style="fill:#455a64"></path><path d="M331.09,317.52a2.1,2.1,0,0,0,.51,2.75,2,2,0,0,0,2.74-.48,2.22,2.22,0,0,0-.56-2.91,2.1,2.1,0,0,0-2.79.81" style="fill:#fff"></path><path d="M336,336l-3-3.28,38.17-31.46s2.38-.76,3.25.62Z" style="fill:#263238"></path><path d="M336,336a1.09,1.09,0,0,1,.19-.2l.58-.54,2.22-2,8.15-7.34,27.12-24.21,0,.33a2.32,2.32,0,0,0-2.47-.62l-.48.11.09,0c-17.14,14.13-31.86,26.17-38.27,31.34v-.15l2.14,2.45.56.65.2.25-.2-.19-.58-.61c-.55-.58-1.31-1.38-2.27-2.41l-.08-.08.09-.07c6.29-5.31,20.93-17.45,38.06-31.58l0,0,0,0,.54-.13a4.46,4.46,0,0,1,1.63,0,2.07,2.07,0,0,1,1.38.88l.11.19-.16.15-27.41,24.17L339,333.45l-2.22,1.92-.58.49Z" style="fill:#455a64"></path><path d="M344.89,307.86c.16.2-.7,1.12-1.08,2.54s-.18,2.65-.42,2.73-.92-1.25-.42-3S344.78,307.65,344.89,307.86Z" style="fill:#fff"></path><path d="M350.4,305.94c.21.15-.32,1.19-.25,2.55s.63,2.36.44,2.52-1.26-.8-1.32-2.49S350.24,305.77,350.4,305.94Z" style="fill:#fff"></path><path d="M357,308.73c-.14.19-1.23-.52-1.66-2s.08-2.65.3-2.56.16,1.12.53,2.31S357.15,308.54,357,308.73Z" style="fill:#fff"></path><path d="M340.53,303.64c.07.24-1,.75-2,1.76s-1.52,2.09-1.76,2,0-1.45,1.15-2.62S340.49,303.41,340.53,303.64Z" style="fill:#fff"></path><path d="M243.55,331S228.32,291,230.36,264.33s-.81-39.23,1.63-47.23,5.3-11.27,17.13-13.72,16.72,4.08,22,11.42,68.8,80.28,68.8,80.28L314.78,318,291,295.08s-18.44-1.44-20.68,12.28c-2.17,13.3-3.15,23.85-3.15,23.85Z" style="fill:#263238"></path><path d="M243.55,331s.54,0,1.57,0l4.57,0,17.48.13-.12.1c.6-6.17,1.5-13.54,2.8-21.92.16-1,.32-2.11.56-3.19a14.61,14.61,0,0,1,1.22-3.13,13.21,13.21,0,0,1,4.86-5,21.17,21.17,0,0,1,6.87-2.55,31.79,31.79,0,0,1,7.66-.56h.07l.05.05,23.79,22.91h-.31l25.15-23,0,.34C326.47,280,312,263.32,297.05,245.93l-13.73-16-6.67-7.9c-2.19-2.63-4.39-5.22-6.37-7.94a39.25,39.25,0,0,0-6.53-7.44,16.65,16.65,0,0,0-4.15-2.46,16.07,16.07,0,0,0-4.67-1,31.25,31.25,0,0,0-9.38,1.34,21.89,21.89,0,0,0-8.35,3.85c-2.36,2-3.65,4.81-4.59,7.63a24.32,24.32,0,0,0-1.06,4.3,43.27,43.27,0,0,0-.34,4.38c-.14,5.84.16,11.52.15,17s-.1,10.8-.37,15.9-.78,10-.55,14.62a140.86,140.86,0,0,0,3.34,24.93c1.57,7.24,3.28,13.41,4.76,18.41s2.76,8.86,3.64,11.46l1,3,.26.75a1.87,1.87,0,0,1,.08.26s-.14-.34-.39-1L242.08,327c-.91-2.6-2.22-6.44-3.74-11.44s-3.24-11.16-4.84-18.41a139.6,139.6,0,0,1-3.42-25c-.25-4.69.26-9.59.51-14.66s.38-10.39.34-15.88-.31-11.16-.18-17a44.25,44.25,0,0,1,.34-4.43,24.66,24.66,0,0,1,1.07-4.39c1-2.84,2.27-5.79,4.73-7.84a22.1,22.1,0,0,1,8.53-4,31.32,31.32,0,0,1,9.54-1.36,16.42,16.42,0,0,1,4.82,1,17.37,17.37,0,0,1,4.29,2.53,40,40,0,0,1,6.62,7.53c2,2.71,4.17,5.29,6.35,7.92l6.67,7.89q6.77,7.9,13.73,16l42.69,49.33.15.18-.17.16-25.18,22.92-.16.15-.15-.15-23.76-23,.12.06a31,31,0,0,0-7.55.54,20.77,20.77,0,0,0-6.75,2.48,12.78,12.78,0,0,0-4.74,4.81,13.43,13.43,0,0,0-1.2,3.05c-.24,1-.4,2.12-.57,3.16-1.33,8.37-2.25,15.74-2.88,21.9v.11h-.11l-17.54-.26-4.54-.08Z" style="fill:#455a64"></path><g style="opacity:0.30000000000000004"><path d="M333.33,332.77c-1.6,2.31-5.31,2.12-7.53.39s-3.37-4.46-4.54-7-2.61-5.23-5.12-6.52c-2.11,2.32-6.09,1.67-8.51-.33s-3.79-5-5.58-7.53c-7.74-11.2-22.4-14.77-33.78-22.23a55.05,55.05,0,0,1-24.45-45.1s2.32,15.14,16.3,29.31S282,291,290.3,294.81L314.78,318l2.78-2.54Z"></path></g><path d="M291,295.08a4.1,4.1,0,0,1-.73-.24l-2.06-.79-1.49-.58c-.54-.23-1.11-.51-1.72-.8-1.23-.6-2.66-1.2-4.14-2.08l-2.36-1.31c-.81-.46-1.61-1-2.47-1.56-1.73-1.05-3.44-2.36-5.27-3.7a78.49,78.49,0,0,1-19.52-22c-1.12-2-2.22-3.84-3.05-5.68-.44-.92-.9-1.78-1.26-2.64s-.7-1.7-1-2.5c-.7-1.57-1.13-3.06-1.58-4.35-.21-.65-.42-1.25-.59-1.81s-.28-1.07-.4-1.54c-.22-.89-.4-1.61-.54-2.14a4.46,4.46,0,0,1-.15-.76,4,4,0,0,1,.26.73c.15.53.36,1.23.63,2.11.13.47.28,1,.44,1.53s.41,1.14.63,1.79c.47,1.27.93,2.75,1.64,4.31l1.05,2.46c.37.86.83,1.71,1.27,2.62.85,1.82,2,3.66,3.08,5.62a80.59,80.59,0,0,0,19.4,21.85c1.81,1.34,3.51,2.66,5.22,3.72.84.54,1.63,1.11,2.44,1.57l2.33,1.34c1.46.89,2.87,1.52,4.08,2.14.61.29,1.17.59,1.7.83l1.46.62,2,.88A4,4,0,0,1,291,295.08Z" style="fill:#455a64"></path><path d="M243,198.85s2.34-3,4.67-2.22,16.64,10,17.18,12.44-.4,5.12-2.18,4.78-13.33-9.56-13.33-9.56l-1.56-.33s8.85,7.39,8.82,9.92-1.59,4-3.37,3.53-13.9-11.11-13.9-11.11l-.78.69s10,10.2,9.68,12-3.12,2.22-5.45,1.33-9-8.78-9-8.78l-.06,3.53,1.5,3.69,3.89,4.34s1.22,3.56-2.33,3.11-4.38-3.51-5.36-4.37a21.25,21.25,0,0,1-2.65-4.08V210a3,3,0,0,1,3.45-2.44,4.16,4.16,0,0,1,2.44-3.56c2.34-.89,3.45-.22,3.45-.22S238.81,198.51,243,198.85Z" style="fill:#c16d68"></path></g><g id="freepik--character-2--inject-2"><g style="opacity:0.30000000000000004"><polygon points="452.58 427.13 438.06 427.29 431.88 370.83 425.33 356.78 426.7 340.1 392.13 331.4 440.41 330.69 458.11 360.44 487.86 347.78 506.45 353.6 516.54 374.21 505.55 380.81 498.39 371.85 489 362.85 479.97 425.06 452.58 427.13"></polygon></g><path d="M457.46,151.94a6.47,6.47,0,0,1,2.57-1.7h-.19a3.32,3.32,0,0,1,.55-.09,2.55,2.55,0,0,1,2,.25h0a4.74,4.74,0,0,1,2.6,2.26,5.62,5.62,0,0,1-.67,5.8,4.3,4.3,0,0,1-7.89-1.48A5.33,5.33,0,0,1,457.46,151.94Z" style="fill:#455a64"></path><path d="M424.39,113.9c-3.06-1.94-3.8-6.46-2.14-9.68S427.43,99,431,98.45a16.71,16.71,0,0,1,14.39,4.77c2,2,3.58,4.69,6.26,5.63,2.36.82,5,.08,7.44.4a11.2,11.2,0,0,1,7.86,5.66,24.26,24.26,0,0,1,2.8,9.57c.36,3,.6,6.39,2.71,8.62s5.32,2.62,7.89,4.17a10.79,10.79,0,0,1,3.2,14.74c-1,1.48-2.47,2.84-2.59,4.63s.95,3.1,1.45,4.66a7.3,7.3,0,0,1-6.23,9c-2.13.12-4.41-.71-6.32.24s-2.6,3.23-3.81,5A9.11,9.11,0,0,1,455,178.42c-1.56-.76-3-2-4.78-1.91s-3.1,1.6-4.81,1.93c-2.23.43-4.36-1.22-5.69-3.07s-2.25-4-3.95-5.54c-2.23-2-5.36-2.47-8.18-3.44a23.06,23.06,0,0,1-13-32.31" style="fill:#263238"></path><path d="M416.38,186.55l-3.26-59.77a5.07,5.07,0,0,1,4.39-5.27l26.72-7.57c8.6-1.15,14.63,9.3,15.42,17.93.88,9.59,1.57,21.34.64,28.54-1.88,14.49-13.75,16.68-13.75,16.68s-.09,14.75,0,20l3.3,16.25Z" style="fill:#ffbf9d"></path><path d="M456.7,143.37a1.86,1.86,0,0,1-1.73,1.92,1.78,1.78,0,0,1-2-1.62,1.85,1.85,0,0,1,1.73-1.91A1.77,1.77,0,0,1,456.7,143.37Z" style="fill:#263238"></path><path d="M457.27,138.06c-.22.25-1.65-.75-3.64-.69s-3.42,1.1-3.64.86.11-.54.73-1a5.09,5.09,0,0,1,2.91-1,4.86,4.86,0,0,1,2.91.85C457.16,137.52,457.38,138,457.27,138.06Z" style="fill:#263238"></path><path d="M436.45,143.37a1.85,1.85,0,0,1-1.73,1.92,1.77,1.77,0,0,1-2-1.62,1.84,1.84,0,0,1,1.73-1.91A1.76,1.76,0,0,1,436.45,143.37Z" style="fill:#263238"></path><path d="M437.73,139c-.23.24-1.66-.75-3.65-.69s-3.42,1.1-3.64.86.11-.55.73-1a5.17,5.17,0,0,1,2.91-1A4.93,4.93,0,0,1,437,138C437.61,138.45,437.83,138.88,437.73,139Z" style="fill:#263238"></path><path d="M445.37,153.54a13.31,13.31,0,0,1,3.21-.68c.51-.06,1-.18,1.06-.53a2.58,2.58,0,0,0-.38-1.49L447.65,147c-2.25-5.45-3.89-9.94-3.67-10s2.22,4.25,4.47,9.7c.54,1.35,1.05,2.63,1.55,3.85a3.06,3.06,0,0,1,.32,2,1.32,1.32,0,0,1-.82.77,3.26,3.26,0,0,1-.86.14A12.92,12.92,0,0,1,445.37,153.54Z" style="fill:#263238"></path><path d="M446.54,177.09A34.63,34.63,0,0,1,428,172.45s4.18,10.72,18.57,9Z" style="fill:#ff9a6c"></path><path d="M445.18,157.26a10.88,10.88,0,0,0-4.07-1,3.14,3.14,0,0,0-2.57,1.49,2.92,2.92,0,0,0,3.4,4.29c1.11-.31,1.3-.95,2-1.86a15.73,15.73,0,0,0,1.38-2,.91.91,0,0,0-.16-.94" style="fill:#ff9a6c"></path><path d="M438.37,130.77c-.18.55-2.17.35-4.5.69s-4.2,1-4.52.57c-.15-.23.17-.75.91-1.3a7.68,7.68,0,0,1,3.33-1.27,7.51,7.51,0,0,1,3.55.32C438,130.1,438.45,130.51,438.37,130.77Z" style="fill:#263238"></path><path d="M456.38,131.23c-.34.46-1.72,0-3.37.06s-3,.39-3.37-.08c-.15-.22.06-.68.66-1.12a4.52,4.52,0,0,1,2.71-.82,4.63,4.63,0,0,1,2.72.83C456.32,130.55,456.53,131,456.38,131.23Z" style="fill:#263238"></path><path d="M469.37,128.84a9.89,9.89,0,0,0-3.8-5.45,36.34,36.34,0,0,1-3.21-1.87c-2.09-1.68-2.57-4.61-3.85-7a10.89,10.89,0,0,0-8.3-5.5c-2.86-.3-5.8.56-8.59-.14-2.06-.52-3.85-1.86-5.94-2.25-4.06-.78-7.84,2.14-10.78,5,0,2.91,2.3,4.85,4.53,6.72a10.05,10.05,0,0,0,8.17,2.15c2.22-.4,4.65-1.52,6.57-.34s2.1,4.29,3.89,5.84c2.56,2.23,6.64.14,9.89,1.1,2.51.75,4.07,3.15,5.74,5.17s4.17,3.93,6.68,3.19A29.56,29.56,0,0,0,469.37,128.84Z" style="fill:#263238"></path><path d="M438.87,116.55c-1.82-.52-5.54-1.7-6.52-3.28-2.12-3.43-5.86-5.77-9.68-5.56A9.19,9.19,0,0,0,414.4,115,13.22,13.22,0,0,0,403,122.28a16.81,16.81,0,0,0-.72,1.69,10.08,10.08,0,0,0-.67,8.44c.63,1.64,1.7,3.47.86,5s-3,1.62-4.73,2.2a6.69,6.69,0,0,0-4.21,7.46c.24,1.09.76,2.18.53,3.28s-1.21,1.95-2,2.84A8.3,8.3,0,0,0,397,166.72c1.3.24,2.7.18,3.82.87,1.29.8,1.85,2.34,2.76,3.55a7.16,7.16,0,0,0,7.76,2.43,6.51,6.51,0,0,0,1.56-.78,5.15,5.15,0,0,0,4.56,2l-.54-30.4a2.51,2.51,0,0,0,1.84,1.44c4.88,1.11,5.6-9,4.51-11.67a28.83,28.83,0,0,0,4.9-5.15c1.34-2,2.53-7.42,2.24-9.87C432.18,119.26,439.67,116.78,438.87,116.55Z" style="fill:#263238"></path><path d="M418.28,146.87c-.16-3.09-3.94-3.75-6.62-2.2-1.47.85-2.59,2.56-2.46,5.84.36,8.75,9.07,6.58,9.08,6.33S418.46,150.49,418.28,146.87Z" style="fill:#ffbf9d"></path><path d="M415.47,153.64s-.15.11-.4.24a1.57,1.57,0,0,1-1.14.07c-.94-.3-1.78-1.74-1.89-3.31a5,5,0,0,1,.34-2.2,1.77,1.77,0,0,1,1.1-1.22.76.76,0,0,1,.91.38c.13.24.08.42.13.43s.18-.15.1-.51a1.05,1.05,0,0,0-.37-.54,1.15,1.15,0,0,0-.85-.18,2.14,2.14,0,0,0-1.54,1.42,5.18,5.18,0,0,0-.43,2.46c.13,1.76,1.1,3.37,2.38,3.68a1.66,1.66,0,0,0,1.39-.28C415.46,153.85,415.5,153.65,415.47,153.64Z" style="fill:#ff9a6c"></path><path d="M426.83,114.19a5.07,5.07,0,0,0-1.75,1.46c-.87,1.19-1.19,3.48-.64,6l0,.22-.21.06a8.48,8.48,0,0,0-5.64,5,6.76,6.76,0,0,0-.45,2.14,13.67,13.67,0,0,0,.27,2.31,16.25,16.25,0,0,1,.34,2.49,4.08,4.08,0,0,1-.7,2.58c-1.08,1.66-2.83,2.47-4.34,3.26a14.88,14.88,0,0,0-4.06,2.66,11,11,0,0,0-3.27,7.33,11.39,11.39,0,0,0,1.16,5.41c.58,1.19,1.07,1.76,1,1.8s-.15-.12-.38-.39a9.33,9.33,0,0,1-.86-1.3A11.11,11.11,0,0,1,406,149.7a11.24,11.24,0,0,1,3.3-7.72,15.13,15.13,0,0,1,4.19-2.8c1.5-.79,3.15-1.6,4.1-3.06s.53-3.06.28-4.63a13,13,0,0,1-.27-2.42,6.94,6.94,0,0,1,.51-2.34,8.87,8.87,0,0,1,6.06-5.2l-.17.28c-.52-2.7-.11-5.07.89-6.31a3.64,3.64,0,0,1,1.36-1.11A2.35,2.35,0,0,1,426.83,114.19Z" style="fill:#455a64"></path><path d="M411.33,155a6.38,6.38,0,0,1,2.57-1.69h-.2a3.5,3.5,0,0,1,.55-.09,2.54,2.54,0,0,1,2,.24h0a4.79,4.79,0,0,1,2.6,2.27,5.6,5.6,0,0,1-.66,5.8,4.3,4.3,0,0,1-7.89-1.48A5.33,5.33,0,0,1,411.33,155Z" style="fill:#455a64"></path><path d="M425.41,135.14,413.12,141s-2.94,2.36-2.71,4.74c0,0,1.11-2.18,5.29-1.77a3.37,3.37,0,0,1,2.29,1.71l7.2,2.51Z" style="fill:#e0e0e0"></path><path d="M425.41,135.14c-.09.44-.22,13.06-.22,13.06l16.78.22s2.84-5.76,3.86-5.82c1.53-.09,3.93,5.4,3.93,5.4l14.17.05V135.51Zm15.46,10a1.16,1.16,0,0,1-1.16,1.16h-10.2a1.16,1.16,0,0,1-1.16-1.16v-6.29a1.16,1.16,0,0,1,1.16-1.16h10.2a1.16,1.16,0,0,1,1.16,1.16Zm20.89,0a1.16,1.16,0,0,1-1.16,1.16h-8.8a1.16,1.16,0,0,1-1.17-1.16v-6.29a1.16,1.16,0,0,1,1.17-1.16h8.8a1.16,1.16,0,0,1,1.16,1.16Z" style="fill:#e0e0e0"></path><rect x="428.35" y="137.68" width="12.51" height="8.61" rx="1.28" style="fill:#455a64"></rect><rect x="450.63" y="137.68" width="11.12" height="8.61" rx="1.28" style="fill:#FF725E"></rect><path d="M425.49,148.32a40,40,0,0,1-.26-6.51,40,40,0,0,1,.26-6.51,41.45,41.45,0,0,1,.26,6.51A41.45,41.45,0,0,1,425.49,148.32Z" style="fill:#263238"></path><path d="M439.47,139.09a23.43,23.43,0,0,1-3.33,3.61,23.36,23.36,0,0,1-3.7,3.25,23,23,0,0,1,3.34-3.62A23.16,23.16,0,0,1,439.47,139.09Z" style="fill:#fff"></path><path d="M437.13,138.62a13.18,13.18,0,0,1-2.5,2.77,13.58,13.58,0,0,1-2.85,2.39,13.51,13.51,0,0,1,2.49-2.77A13.77,13.77,0,0,1,437.13,138.62Z" style="fill:#fff"></path><path d="M456.46,140.74a7.34,7.34,0,0,1-1.59,2.17c-1,1.1-1.88,1.92-2,1.82a6.88,6.88,0,0,1,1.59-2.17C455.46,141.46,456.35,140.64,456.46,140.74Z" style="fill:#fff"></path><path d="M460,138.52a11.8,11.8,0,0,1-2.26,3.46,11.33,11.33,0,0,1-3,2.84,28.93,28.93,0,0,1,2.62-3.17A28.24,28.24,0,0,1,460,138.52Z" style="fill:#fff"></path><path d="M442.52,161.43s-.12.19-.47.39a3,3,0,0,1-1.66.28,3,3,0,0,1-2.15-1.28,3.13,3.13,0,0,1-.12-3.06,3,3,0,0,1,1.1-1.23,3.31,3.31,0,0,1,1.45-.45,6.54,6.54,0,0,1,2.43.39,5.4,5.4,0,0,1,2.08.79c0,.05-.82-.19-2.17-.43a6.7,6.7,0,0,0-2.3-.27,2.55,2.55,0,0,0-2.12,1.43,2.71,2.71,0,0,0,.05,2.57,2.66,2.66,0,0,0,1.81,1.17A3.82,3.82,0,0,0,442.52,161.43Z" style="fill:#263238"></path><path d="M475.84,284.16s6.18-52.82,6.61-53.25-15.55-45.7-15.55-45.7l-20.38-3.8s.61,9.05-10.56,9.74a21.8,21.8,0,0,1-19.86-9.76l-24.55,7,11.06,79.48-9.05,13.71-5.15,23.55Z" style="fill:#e0e0e0"></path><path d="M467.1,185.78c1.83,0,16.14,4,19.84,12.52,3.22,7.44,9.91,27.27,9.91,27.27s8.85,30.77,8.86,36.22c0,6.28.22,21.65-18.65,15l-10.39-9,.68-49.49Z" style="fill:#ffbf9d"></path><path d="M497.85,253.93s-3.44-3.3-9-9.12c-6.71-7-18.67-18-18.67-18l-6.47,7s4.75,9.49,6.24,11.89c3.78,6.09,3.32,9.34,8.87,17.75A72.12,72.12,0,0,0,492,278.11Z" style="fill:#ffbf9d"></path><path d="M441.51,225.26a3,3,0,0,1-5.42-2.34.61.61,0,0,1-.8,0,1.37,1.37,0,0,1-.42-.76,3.49,3.49,0,0,1,.34-2.63,2.73,2.73,0,0,1,2.24-1.34,2.25,2.25,0,0,1,2.12,1.43s1.06-1.65,2.3.16.26,4.54.26,4.54Z" style="fill:#fff"></path><path d="M471.76,228.62l-6.07-9.36a5.26,5.26,0,0,0-2.36-4.19s-.86-3.72-4.19-3.24-9.71.76-9.71.76-8.09,4.38-9.24,6.19-1.14,2.67-.38,3.33a4.38,4.38,0,0,0,2.38.67s-1.81,1.9-1.14,2.86,4-.1,4-.1-1.24,2.19,0,3.43,4,.57,4,.57,1.71,2.67,3.33,3a4.77,4.77,0,0,0,3-.57l1.07-1.51,3.53.65a31.84,31.84,0,0,0,1.71,4.19c.76,1.34,5.81,3.62,5.81,3.62Z" style="fill:#ffbf9d"></path><path d="M451.37,229.57a5.63,5.63,0,0,1,1.05-1.56,8.6,8.6,0,0,1,3.63-2.79,20.5,20.5,0,0,1,4.5-.6c1.14-.1,1.8-.36,1.83-.29a3.58,3.58,0,0,1-1.77.66,30.75,30.75,0,0,0-4.39.72,9.56,9.56,0,0,0-3.52,2.54C451.91,229.08,451.43,229.62,451.37,229.57Z" style="fill:#ff9a6c"></path><path d="M445.06,226.73a13.3,13.3,0,0,1,1.93-1.79c1.23-1.05,2.95-2.45,4.86-4a4.69,4.69,0,0,1,3.33-1.26c1.1,0,2.05.19,2.85.25a9.25,9.25,0,0,0,2.56-.13,4,4,0,0,1-2.59.5c-.82,0-1.78-.17-2.81-.14a4.38,4.38,0,0,0-3,1.18c-1.9,1.56-3.68,2.93-5,3.91A14.25,14.25,0,0,1,445.06,226.73Z" style="fill:#ff9a6c"></path><path d="M460,216a12,12,0,0,1-3-.07,14.22,14.22,0,0,0-6.95.68,19.14,19.14,0,0,0-5.76,4,20.42,20.42,0,0,1-2.16,2,13.52,13.52,0,0,1,1.9-2.29,17.1,17.1,0,0,1,5.83-4.27,10.39,10.39,0,0,1,3.94-.8,23,23,0,0,1,3.24.23A29.05,29.05,0,0,1,460,216Z" style="fill:#ff9a6c"></path><path d="M411.71,229.15a5.26,5.26,0,0,1,4.25-2.79,2.77,2.77,0,1,1,4.89.25,3,3,0,0,1,4.78,2.64A3.46,3.46,0,0,1,429.8,228a2.74,2.74,0,1,1,5.29-1.39,2.17,2.17,0,0,1,2.77,2.31,4.73,4.73,0,0,1,5.41-.25,3.77,3.77,0,1,1,7.16,2.18l2.19-1.26" style="fill:#fff"></path><path d="M463.22,232.43c-.24.88-6.87,57.06-6.87,57.06h-42.8l-3.79-56.18Z" style="fill:#FF725E"></path><polygon points="414.87 233.31 417.16 275.49 420.5 272.88 419.75 233.31 414.87 233.31" style="fill:#fff"></polygon><polygon points="423.73 233.31 426.02 275.49 429.36 272.88 428.62 233.31 423.73 233.31" style="fill:#fff"></polygon><polygon points="433.62 233.48 435.91 275.65 439.26 273.05 438.51 233.48 433.62 233.48" style="fill:#fff"></polygon><polygon points="443.44 233.48 445.73 275.65 449.07 273.05 448.33 233.48 443.44 233.48" style="fill:#fff"></polygon><polygon points="452.62 233.31 452.6 275.49 455.94 272.88 457.61 233.31 452.62 233.31" style="fill:#fff"></polygon><path d="M409.32,233.31h54.24a1.86,1.86,0,0,0,1.86-1.86h0a1.87,1.87,0,0,0-1.86-1.87H409.32a1.87,1.87,0,0,0-1.86,1.87h0A1.86,1.86,0,0,0,409.32,233.31Z" style="fill:#FF725E"></path><path d="M409.32,233.31a.83.83,0,0,1-.31,0,1.91,1.91,0,0,1-.86-.34,2,2,0,0,1-.76-1.29,2,2,0,0,1,.81-1.85,2,2,0,0,1,1.19-.36h1.33l3,0,7.34,0,42.49-.08a2.14,2.14,0,0,1,2.11,2.31,2.07,2.07,0,0,1-.81,1.49,2.31,2.31,0,0,1-1.59.45h-6l-11.28,0-19.1-.05L414,233.41l-3.5,0-.91,0-.31,0,.31,0,.91,0,3.5,0,12.88-.08,19.1-.06h17.25a1.66,1.66,0,0,0,1.89-1.46,1.63,1.63,0,0,0-1.6-1.75l-42.49-.07-7.34,0-3,0c-.92,0-1.81-.17-2.4.29a1.77,1.77,0,0,0-.77,1.66,1.8,1.8,0,0,0,.67,1.22A2.1,2.1,0,0,0,409.32,233.31Z" style="fill:#263238"></path><path d="M417,241.08s-1.43,2.67-2.69,3.43-6.91,5.7-6.91,5.7l-5,9.78s-2.15,8.25-2.15,8.52,2.24,6.64,4,7.36S415,277.75,415,277.75h13.19l4.48-2.69a2.25,2.25,0,0,0-3.05-1.52,11.81,11.81,0,0,1-4.3.8l-5-.62-1.43-.72,8.52-.63s10.76-2.78,11.12-3.77-.72-1.7-1.25-2.06-7.27.81-8.71,1-8.34-.36-8.34-.36l8.17-.9s11.57-1.79,10.85-3.77-1.26-1.7-4.13-1.88a31.55,31.55,0,0,0-7.62,1.08l-8.61-.18,15.87-2.87s2.92-.36,3-2.19-2.23-2.46-5-2.1-18.86,1.95-18.86,1.95l-1.34-.89,1.07-3.59a21.71,21.71,0,0,0,4.22-4.22c1.17-1.88,1.88-4.12,1.17-5.56A1.61,1.61,0,0,0,417,241.08Z" style="fill:#ffbf9d"></path><path d="M393.28,187.9s-9.94,1.46-12.37,15.28-1.21,71.52,1.46,75.88,24.5-2.56,24.5-2.56L403,261.8h0l-2.52-51.11Z" style="fill:#ffbf9d"></path><path d="M402.33,261.11a54.37,54.37,0,0,0-7.13-2.18,50.22,50.22,0,0,0-7.44-.59A6.78,6.78,0,0,1,390,258a23.18,23.18,0,0,1,5.33.39,23.48,23.48,0,0,1,5.11,1.6A7.33,7.33,0,0,1,402.33,261.11Z" style="fill:#ff9a6c"></path><path d="M406.25,252.46c.16.09-2.14,3.63-3.63,8.55a56.26,56.26,0,0,0-1.48,6.39,15,15,0,0,1-.57,2.68,14.06,14.06,0,0,1,.21-2.74,37.88,37.88,0,0,1,1.35-6.49,31,31,0,0,1,2.6-6.1A11.63,11.63,0,0,1,406.25,252.46Z" style="fill:#ff9a6c"></path><path d="M399.1,200.42c.14,0,.73,5,1.32,11.11s.94,11.15.8,11.16-.74-5-1.32-11.11S399,200.44,399.1,200.42Z" style="fill:#263238"></path><path d="M496.81,253.87a8.51,8.51,0,0,1-1-1.09c-.63-.73-1.56-1.77-2.71-3-2.3-2.55-5.58-6-9.33-9.65l-9.68-9.32c-1.23-1.19-2.23-2.17-2.9-2.85a8.15,8.15,0,0,1-1-1.1,7.14,7.14,0,0,1,1.16,1l3,2.73c2.53,2.33,6,5.55,9.79,9.22s7,7.15,9.24,9.77c1.12,1.31,2,2.39,2.58,3.16A7.67,7.67,0,0,1,496.81,253.87Z" style="fill:#ff9a6c"></path><path d="M477.16,232.43c-.11,0,.26-2,.3-5.13a47.45,47.45,0,0,0-.26-5.56c-.25-2.08-.61-4.36-1.13-6.72a98.58,98.58,0,0,0-3.54-11.89c-.54-1.5-1-2.7-1.32-3.53a8.26,8.26,0,0,1-.44-1.32,6.49,6.49,0,0,1,.63,1.24c.38.81.89,2,1.47,3.48a80.12,80.12,0,0,1,3.71,11.9,63,63,0,0,1,1.09,6.79,41.11,41.11,0,0,1,.16,5.62c0,.8-.09,1.52-.15,2.15a15.77,15.77,0,0,1-.22,1.61A8,8,0,0,1,477.16,232.43Z" style="fill:#263238"></path><path d="M452.46,423.28l1.25,42.42,52.78-1.29c-.43-5-28-14.49-28-14.49l.31-27.21Z" style="fill:#FF725E"></path><path d="M462.13,448a2.16,2.16,0,0,0-1.43,2.5,2.07,2.07,0,0,0,2.46,1.43,2.26,2.26,0,0,0,1.5-2.65,2.14,2.14,0,0,0-2.72-1.21" style="fill:#fff"></path><path d="M453.71,465.78l-.16-4.54,50.8.71a3.63,3.63,0,0,1,2.5,3.51Z" style="fill:#263238"></path><path d="M479.36,449.63c0,.26-1.29.41-2.54,1.27s-1.9,2-2.14,1.86.11-1.6,1.64-2.61S479.41,449.39,479.36,449.63Z" style="fill:#fff"></path><path d="M485,451.79c.06.24-1,.71-1.89,1.82s-1.08,2.27-1.33,2.27-.46-1.46.62-2.82S484.94,451.54,485,451.79Z" style="fill:#fff"></path><path d="M488.25,458.33c-.23.07-.62-1.21,0-2.64s1.82-2,1.93-1.81-.61,1-1.11,2.17S488.51,458.3,488.25,458.33Z" style="fill:#fff"></path><path d="M478.74,443.42c-.1.24-1.29-.09-2.75.05s-2.58.62-2.72.4.93-1.16,2.65-1.3S478.86,443.22,478.74,443.42Z" style="fill:#fff"></path><path d="M495,343.9l21.55,35.25,44-26.58c-2.8-4-30.65,1.27-30.65,1.27L517,330.69Z" style="fill:#FF725E"></path><path d="M515.14,360.15a2.1,2.1,0,0,0,0,2.8,2,2,0,0,0,2.77,0,2.21,2.21,0,0,0,0-3,2.11,2.11,0,0,0-2.89.29" style="fill:#fff"></path><path d="M516.6,379.23l-2.33-3.77,43.28-23.94s2.48-.32,3.08,1.2Z" style="fill:#263238"></path><path d="M530.47,353.18c.13.22-.89,1-1.53,2.3s-.66,2.57-.9,2.6-.68-1.4.12-3S530.4,353,530.47,353.18Z" style="fill:#fff"></path><path d="M536.24,352.3c.18.18-.53,1.11-.71,2.46s.18,2.44,0,2.56-1.1-1-.84-2.69S536.11,352.1,536.24,352.3Z" style="fill:#fff"></path><path d="M542.2,356.24c-.17.17-1.12-.73-1.28-2.24s.57-2.58.77-2.46-.05,1.13.1,2.37S542.4,356.09,542.2,356.24Z" style="fill:#fff"></path><path d="M527,348.23c0,.25-1.13.55-2.3,1.37s-1.88,1.77-2.1,1.65.22-1.43,1.61-2.37S527,348,527,348.23Z" style="fill:#fff"></path><path d="M388.6,299.58s-7.93,22.32,2.74,31.82h43.77s3-32.3,18.05-35.46l45.39,63.15,29.27-19.78s-35.07-69.81-39.4-78c-5-9.44-13.21-13-23.5-11.43s-23.82,8.44-32.43,14.24C414.29,276.42,388.6,299.58,388.6,299.58Z" style="fill:#263238"></path><g style="opacity:0.30000000000000004"><polygon points="452.82 435.5 478.69 434.1 478.72 431.22 452.7 431.35 452.82 435.5"></polygon></g><g style="opacity:0.30000000000000004"><polygon points="504.59 359.57 525.38 345.73 523.46 342.26 502.62 356.34 504.59 359.57"></polygon></g><path d="M433.28,331.4h5.14s-2.77,13.45,0,16.22,5.14,11.47,5.14,11.47l5.92,72.48,36.68-.43,5.66-97.76s2.77-25.32-10.68-36-22.9-5.14-28.88-2-11.88,5.33-15.29,19.7Z" style="fill:#263238"></path><path d="M489.05,365.52a1.47,1.47,0,0,1,0-.37c0-.27.05-.62.08-1.07.09-.94.21-2.34.34-4.13.26-3.58.55-8.78.52-15.21a190.8,190.8,0,0,0-1.49-22.51,93.92,93.92,0,0,0-2.38-13.08,34.83,34.83,0,0,0-2.54-6.51,21.65,21.65,0,0,0-4.3-5.71,19.52,19.52,0,0,0-6.06-3.76,23.16,23.16,0,0,0-6.8-1.44,24.1,24.1,0,0,0-12.73,2.85,30.79,30.79,0,0,0-9.19,7.57A38.93,38.93,0,0,0,439,311a57.15,57.15,0,0,0-4.16,14.57c-.29,1.77-.45,3.16-.57,4.1l-.12,1.07a1.71,1.71,0,0,1-.06.36,1.47,1.47,0,0,1,0-.37c0-.27,0-.62.07-1.07.08-.95.21-2.34.47-4.12a55.46,55.46,0,0,1,4-14.69,38.66,38.66,0,0,1,5.51-9,31.23,31.23,0,0,1,9.31-7.72,24.51,24.51,0,0,1,13-2.94,23.66,23.66,0,0,1,7,1.47,20,20,0,0,1,6.22,3.86,21.87,21.87,0,0,1,4.41,5.85,35,35,0,0,1,2.57,6.61A94.5,94.5,0,0,1,489,322.17a183.49,183.49,0,0,1,1.38,22.57c0,6.44-.36,11.64-.69,15.23-.16,1.79-.31,3.18-.43,4.12-.06.45-.1.8-.14,1.07A1.71,1.71,0,0,1,489.05,365.52Z" style="fill:#455a64"></path><path d="M450.69,306.47c.07.06-1,1.24-2.51,3.29a54,54,0,0,0-5.17,8.51,55.06,55.06,0,0,0-3.5,9.32c-.67,2.47-.95,4-1,4a4.89,4.89,0,0,1,.1-1.12c.1-.71.29-1.73.58-3a47.08,47.08,0,0,1,3.39-9.46,45.71,45.71,0,0,1,5.35-8.5,29.88,29.88,0,0,1,2-2.3C450.38,306.72,450.66,306.44,450.69,306.47Z" style="fill:#455a64"></path></g></svg>