<svg xmlns="http://www.w3.org/2000/svg" xml:space="preserve" width="1000" height="666.667"><defs><clipPath id="a" clipPathUnits="userSpaceOnUse"><path d="M0 500h750V0H0Z"/></clipPath><clipPath id="b" clipPathUnits="userSpaceOnUse"><path d="M0 500h750V0H0Z"/></clipPath><clipPath id="c" clipPathUnits="userSpaceOnUse"><path d="M0 500h750V0H0Z"/></clipPath><clipPath id="d" clipPathUnits="userSpaceOnUse"><path d="M0 500h750V0H0Z"/></clipPath><clipPath id="e" clipPathUnits="userSpaceOnUse"><path d="M0 500h750V0H0Z"/></clipPath><clipPath id="f" clipPathUnits="userSpaceOnUse"><path d="M377.143 315.663h21.142v-33.712h-21.142z"/></clipPath><clipPath id="g" clipPathUnits="userSpaceOnUse"><path d="M258.002 293.973h88.155v-95.551h-88.155z"/></clipPath><clipPath id="h" clipPathUnits="userSpaceOnUse"><path d="M243.555 173.852h38.457V73.002h-38.457z"/></clipPath><clipPath id="i" clipPathUnits="userSpaceOnUse"><path d="M243.819 255.575h89.507v-90.058h-89.507z"/></clipPath><clipPath id="j" clipPathUnits="userSpaceOnUse"><path d="M0 500h750V0H0Z"/></clipPath><clipPath id="k" clipPathUnits="userSpaceOnUse"><path d="M392.129 169.315H516.54V72.709H392.129Z"/></clipPath><clipPath id="l" clipPathUnits="userSpaceOnUse"><path d="M452.702 68.777h26.022v-4.278h-26.022z"/></clipPath><clipPath id="m" clipPathUnits="userSpaceOnUse"><path d="M502.618 157.737h22.766v-17.309h-22.766z"/></clipPath></defs><g clip-path="url(#a)" transform="matrix(1.33333 0 0 -1.33333 0 666.667)"><path d="M0 0c.01-.003-.015-.116-.07-.335-.068-.249-.155-.567-.262-.966l-1.063-3.696a186.4 186.4 0 0 1-1.649-5.854c-.61-2.291-1.359-4.885-2.051-7.789-.729-2.894-1.519-6.065-2.262-9.494-.808-3.415-1.522-7.096-2.308-10.961-1.473-7.751-2.882-16.312-4.004-25.346a401.01 401.01 0 0 1-2.214-25.572c-.168-3.942-.361-7.686-.399-11.195-.104-3.508-.1-6.776-.088-9.761-.027-2.984.075-5.682.116-8.052.033-2.373.114-4.413.192-6.08l.141-3.842.023-1c.001-.226-.003-.342-.013-.342-.011-.001-.027.114-.048.338l-.08.997-.253 3.838a149.937 149.937 0 0 0-.292 6.08c-.072 2.372-.205 5.072-.204 8.059-.037 2.989-.066 6.261.017 9.774.017 3.514.192 7.264.345 11.214a378.818 378.818 0 0 0 2.171 25.615 378.942 378.942 0 0 0 4.057 25.379c.802 3.868 1.534 7.551 2.363 10.966.765 3.429 1.58 6.599 2.336 9.489.718 2.9 1.496 5.49 2.138 7.774A149.937 149.937 0 0 0-1.615-4.93l1.169 3.664.318.949C-.053-.104-.01.003 0 0" style="fill:#e1e1e1;fill-opacity:1;fill-rule:nonzero;stroke:none" transform="translate(691.432 307.511)"/><path d="M0 0s-18.767 97.226-18.809 117.225c-.058 27.677 21.129 38.697 21.129 38.697l-8.232 23.479h45.284l-7.15-23.314s23.844-12.64 20.519-41.35C46.523 61.063 36.614 0 36.614 0Z" style="fill:#f5f5f5;fill-opacity:1;fill-rule:nonzero;stroke:none" transform="translate(658.662 33.733)"/><path d="M0 0c.024-.032-.438-.451-1.297-1.18a99.753 99.753 0 0 1-3.564-3.16 92.845 92.845 0 0 1-10.575-11.576 92.993 92.993 0 0 1-8.419-13.228 101.838 101.838 0 0 1-2.122-4.265c-.479-1.018-.763-1.575-.8-1.559-.038.015.173.602.59 1.651.408 1.054 1.072 2.548 1.959 4.362 1.768 3.631 4.574 8.49 8.324 13.398 3.759 4.899 7.718 8.874 10.762 11.528 1.521 1.329 2.79 2.36 3.702 3.028C-.536-.325-.025.033 0 0" style="fill:#e1e1e1;fill-opacity:1;fill-rule:nonzero;stroke:none" transform="translate(703.422 272.724)"/><path d="M0 0c.039.011.236-.552.562-1.582.326-1.028.766-2.525 1.283-4.384 1.036-3.716 2.343-8.886 3.567-14.645a249.34 249.34 0 0 0 2.687-14.834c.282-1.909.488-3.455.607-4.528.121-1.072.169-1.667.129-1.673-.041-.006-.165.579-.356 1.64l-.792 4.494a438.714 438.714 0 0 1-2.852 14.779A440.615 440.615 0 0 1 1.441-6.072L.34-1.643C.084-.596-.039-.011 0 0" style="fill:#e1e1e1;fill-opacity:1;fill-rule:nonzero;stroke:none" transform="translate(669.726 295.382)"/><path d="M0 0c.025.031.367-.211.963-.677a52.124 52.124 0 0 0 2.451-2.061c2.028-1.788 4.719-4.392 7.45-7.49 2.729-3.103 4.972-6.102 6.489-8.34a54.27 54.27 0 0 0 1.734-2.691c.387-.651.584-1.02.549-1.042-.075-.049-1.024 1.325-2.623 3.492a124.923 124.923 0 0 1-6.592 8.19 124.382 124.382 0 0 1-7.29 7.575C1.185-1.184-.059-.069 0 0" style="fill:#e1e1e1;fill-opacity:1;fill-rule:nonzero;stroke:none" transform="translate(656.568 251.134)"/><path d="M0 0c-4.934 2.546-10.745 2.877-16.223 1.971-2.943-.487-6.01-1.367-8.013-3.577-2.003-2.211-2.382-6.101-.083-8.001 1.369-1.13 3.278-1.302 5.053-1.282 4.288.05 9.047.805 12.473-1.775 1.954-1.472 3.255-3.919 5.592-4.644 2.286-.708 4.867.642 6.079 2.705 1.212 2.064 1.253 4.643.687 6.968 0 0-.594 5.071-5.565 7.635" style="fill:#ececec;fill-opacity:1;fill-rule:nonzero;stroke:none" transform="translate(59.561 128.32)"/><path d="M0 0c-3.017-4.309-8.881-2.882-11.601-.252-2.718 2.631-3.868 6.443-4.914 10.078-2.39 8.307-4.8 17.021-3.023 25.48.532 2.528 1.477 5.05 3.254 6.926 1.778 1.876 4.51 2.993 7.009 2.332 2.956-.781 4.794-3.676 6.122-6.431a60.748 60.748 0 0 0 6.002-26.066C2.863 7.869 2.369 3.467 0 0" style="fill:#ececec;fill-opacity:1;fill-rule:nonzero;stroke:none" transform="translate(70.866 150.142)"/><path d="M0 0c-3.276 3.888-3.897 9.559-2.44 14.43 1.458 4.871 4.752 9.014 8.546 12.397a46.025 46.025 0 0 0 15.305 9.029c2.213.779 4.547 1.393 6.882 1.17 2.336-.223 4.687-1.417 5.777-3.495 1.61-3.071.066-6.798-1.604-9.837A116.729 116.729 0 0 0 22.414 8.387C19.401 4.503 15.95.671 11.358-1.084 6.766-2.84 1.997-2.633-.437.551" style="fill:#ececec;fill-opacity:1;fill-rule:nonzero;stroke:none" transform="translate(79.151 143.96)"/><path d="M0 0c-.057-.004-.148.694-.273 1.958l-.52 5.344c-.249 2.249-.578 4.925-1.203 7.839-.622 2.906-1.597 6.056-2.848 9.251-1.297 3.175-2.877 6.062-4.724 8.371-1.835 2.319-3.968 3.997-5.973 4.965a16.714 16.714 0 0 1-5.03 1.566c-1.249.129-1.949.227-1.95.282 0 .056.701.066 1.985.031 1.271-.085 3.138-.407 5.244-1.365 2.113-.937 4.376-2.641 6.3-5.009 1.94-2.356 3.578-5.306 4.897-8.539 1.274-3.251 2.234-6.433 2.829-9.402.593-2.965.865-5.671 1.042-7.938.17-2.269.234-4.107.265-5.377C.069.707.055.003 0 0" style="fill:#e1e1e1;fill-opacity:1;fill-rule:nonzero;stroke:none" transform="translate(71.07 85.137)"/><path d="M0 0c-.028.002-.045.314-.052.909l.007 2.599c.006 2.254.004 5.517-.116 9.547-.2 8.058-.894 16.732-2.234 28.96-1.269 11.498-2.972 24.879-4.77 33.579-.385 1.978-.774 3.76-1.139 5.318-.349 1.563-.646 2.91-.934 4a2312.69 2312.69 0 0 1-.607 2.526c-.13.58-.185.888-.159.896.027.008.135-.285.316-.852l.754-2.49c.335-1.08.678-2.418 1.069-3.974.408-1.553.837-3.33 1.259-5.305 1.778-7.883 3.662-18.901 5.015-31.158C-.248 32.302.356 21.145.41 13.065.458 9.026.372 5.756.269 3.499L.11.902C.065.31.028-.001 0 0" style="fill:#e1e1e1;fill-opacity:1;fill-rule:nonzero;stroke:none" transform="translate(70.702 89.249)"/><path d="M0 0c-.056.002-.046.967.019 2.715.1 1.744.34 4.264.831 7.353.521 3.08 1.249 6.739 2.392 10.714.495 1.818 1.659 6.171 4.48 12.677 3.716 8.815 8.765 16.023 13.157 20.487 1.03 1.185 2.178 2.039 3.095 2.877.475.402.895.802 1.322 1.119l1.201.829c1.446.988 2.255 1.509 2.285 1.462.13-.176-3.238-2.158-7.49-6.681-4.235-4.515-9.143-11.672-12.828-20.413-2.056-4.742-3.489-8.971-4.506-12.562-1.175-3.936-1.955-7.556-2.545-10.607a106.6 106.6 0 0 1-1.08-7.282C.171.958.056-.002 0 0" style="fill:#e1e1e1;fill-opacity:1;fill-rule:nonzero;stroke:none" transform="translate(70.648 110.767)"/><path d="m0 0-2.156-29.541h-37.95L-42.262 0Z" style="fill:#e1e1e1;fill-opacity:1;fill-rule:nonzero;stroke:none" transform="translate(91.447 72.81)"/><path d="M95.112 72.809H44.656v11.644h50.456z" style="fill:#e1e1e1;fill-opacity:1;fill-rule:nonzero;stroke:none"/><path d="M0 0v-3.228h-49.622V0Z" style="fill:#ececec;fill-opacity:1;fill-rule:nonzero;stroke:none" transform="translate(95.112 44.398)"/><path d="m0 0 2.324 5.681h-45.445L-40.409 0Z" style="fill:#e1e1e1;fill-opacity:1;fill-rule:nonzero;stroke:none" transform="translate(90.418 35.49)"/><path d="M0 0c-.009-.007.052-.099.177-.271l.567-.752 2.211-2.83.098-.126.095.132L8.58 3.665h-.313l5.347-7.571.168-.238.188.223c1.973 2.349 4.116 4.899 6.342 7.546l-.366.005.348-.439 5.671-7.109.189-.237.175.247 5.35 7.569-.311-.015 6.589-7.506.117-.133.089.149 2.063 3.466.529.924c.117.211.172.322.162.329-.01.006-.085-.094-.221-.293l-.586-.888-2.166-3.403.206.017-6.483 7.598-.163.192-.148-.206-5.398-7.537.363.01-5.657 7.12-.349.439-.18.226-.185-.222-6.325-7.56.355-.014-5.4 7.534-.159.22-.154-.22C6.128.832 4.311-1.764 2.95-3.706l.194.006-2.3 2.757-.616.713C.086-.071.008.007 0 0" style="fill:#f5f5f5;fill-opacity:1;fill-rule:nonzero;stroke:none" transform="translate(49.89 63.154)"/><path d="M0 0c0-.131 9.509-.236 21.236-.236 11.732 0 21.239.105 21.239.236s-9.507.236-21.239.236C9.509.236 0 .131 0 0" style="fill:#f5f5f5;fill-opacity:1;fill-rule:nonzero;stroke:none" transform="translate(48.656 73.004)"/><path d="M0 0c0-.131 10.334-.236 23.08-.236 12.749 0 23.082.105 23.082.236 0 .13-10.333.235-23.082.235C10.334.235 0 .13 0 0" style="fill:#f5f5f5;fill-opacity:1;fill-rule:nonzero;stroke:none" transform="translate(46.74 40.853)"/><path d="M0 0c-3.109 12.313-10.597 24.167-22.168 29.402-6.717 3.039-14.614 3.825-20.241 8.588-10.596 8.972-7.361 25.995-12.549 38.874-7.336 18.21-29.627 24.633-49.14 26.801-19.511 2.168-41.234 3.3-54.95 17.347-10.425 10.676-13.608 26.451-22.114 38.711-10.278 14.813-28.665 23.597-46.647 22.284-8.753-.639-17.289-3.481-26.066-3.516-25.236-.102-47.848 22.711-72.584 17.717-15.591-3.147-27.186-17.133-32.095-32.261-4.909-15.129-4.343-31.414-3.725-47.307l-90.574-28.041c-12.298-3.807-25.959-8.763-31.335-20.459-2.511-5.461-2.804-11.708-5.072-17.274-3.475-8.529-11.141-14.531-18.686-19.812-7.545-5.282-15.549-10.518-20.334-18.387-4.784-7.869-5.194-19.301 1.752-25.349l6-46.777 347.087-19.816c43.785-2.5 87.686-5 131.467-2.437 12.553.735 26.37 2.501 34.729 11.896 7.499 8.429 8.459 20.642 9.048 31.911C2.466-25.223 3.108-12.313 0 0" style="fill:#f5f5f5;fill-opacity:1;fill-rule:nonzero;stroke:none" transform="translate(636.579 215.718)"/><path d="m0 0-9.498-.051-.254 47.265 9.499.052z" style="fill:#e1e1e1;fill-opacity:1;fill-rule:nonzero;stroke:none" transform="translate(635.212 409.775)"/><path d="m0 0-24.599-.132-.139 26.094 24.598.132z" style="fill:#ececec;fill-opacity:1;fill-rule:nonzero;stroke:none" transform="translate(567.907 430.823)"/><path d="m0 0-24.599-.132-.139 26.094 24.598.132z" style="fill:#f5f5f5;fill-opacity:1;fill-rule:nonzero;stroke:none" transform="translate(592.388 430.954)"/><path d="M0 0c16.348-.135 32.735-.04 49.081.226.336.004.334.521-.003.522-16.348.09-32.735.01-49.08-.3C-.29.442-.288.002 0 0" style="fill:#e1e1e1;fill-opacity:1;fill-rule:nonzero;stroke:none" transform="translate(543.207 449.579)"/><path d="m0 0-44.691-.239-.115 21.264 44.692.24z" style="fill:#ececec;fill-opacity:1;fill-rule:nonzero;stroke:none" transform="translate(572.637 409.994)"/><path d="m0 0-44.691-.239-.114 21.264 44.691.239z" style="fill:#f5f5f5;fill-opacity:1;fill-rule:nonzero;stroke:none" transform="translate(617.117 410.232)"/><path d="M0 0c29.689-.336 59.482-.035 89.171.44.336.006.334.522-.003.523-29.691.157-59.486.14-89.171-.515C-.291.442-.289.003 0 0" style="fill:#e1e1e1;fill-opacity:1;fill-rule:nonzero;stroke:none" transform="translate(527.864 425.105)"/><path d="M684.298 402.136H511.15v7.618h173.148z" style="fill:#e1e1e1;fill-opacity:1;fill-rule:nonzero;stroke:none"/><path d="M546.527 380.097h-7.028v25.995h7.028zM651.455 380.097h-7.029v25.995h7.029z" style="fill:#e1e1e1;fill-opacity:1;fill-rule:nonzero;stroke:none"/><path d="m0 0-9.498-.051-.349 65.007 9.499.05z" style="fill:#ececec;fill-opacity:1;fill-rule:nonzero;stroke:none" transform="translate(644.576 409.659)"/><path d="m0 0-14.76-.079-.282 52.681 14.76.078z" style="fill:#f5f5f5;fill-opacity:1;fill-rule:nonzero;stroke:none" transform="translate(659.352 409.884)"/><path d="M0 0c0-.141-3.304-.256-7.379-.256-4.077 0-7.381.115-7.381.256 0 .141 3.304.255 7.381.255C-3.304.255 0 .141 0 0" style="fill:#e1e1e1;fill-opacity:1;fill-rule:nonzero;stroke:none" transform="translate(658.97 452.415)"/><path d="M0 0c0-.141-3.304-.255-7.379-.255-4.077 0-7.381.114-7.381.255 0 .142 3.304.256 7.381.256C-3.304.256 0 .142 0 0" style="fill:#e1e1e1;fill-opacity:1;fill-rule:nonzero;stroke:none" transform="translate(658.97 454.628)"/><path d="M0 0c0-.141-3.304-.255-7.379-.255-4.077 0-7.381.114-7.381.255 0 .141 3.304.256 7.381.256C-3.304.256 0 .141 0 0" style="fill:#e1e1e1;fill-opacity:1;fill-rule:nonzero;stroke:none" transform="translate(658.97 417.81)"/><path d="M0 0c0-.141-3.304-.256-7.379-.256-4.077 0-7.381.115-7.381.256 0 .141 3.304.255 7.381.255C-3.304.255 0 .141 0 0" style="fill:#e1e1e1;fill-opacity:1;fill-rule:nonzero;stroke:none" transform="translate(658.97 420.023)"/><path d="M0 0c-.142 0-.256 5.315-.256 11.87 0 6.557.114 11.871.256 11.871.141 0 .256-5.314.256-11.871C.256 5.315.141 0 0 0" style="fill:#e1e1e1;fill-opacity:1;fill-rule:nonzero;stroke:none" transform="translate(651.829 424.852)"/><path d="M675.197 409.864h-16.066v39.763h16.066z" style="fill:#ececec;fill-opacity:1;fill-rule:nonzero;stroke:none"/><path d="M0 0a2.73 2.73 0 1 0-5.46 0A2.73 2.73 0 0 0 0 0" style="fill:#e1e1e1;fill-opacity:1;fill-rule:nonzero;stroke:none" transform="translate(642.069 463.567)"/><path d="M640.182 417.386h-1.687v38.671h1.687zM158.554 320.195H48.859v141.678h109.695z" style="fill:#e1e1e1;fill-opacity:1;fill-rule:nonzero;stroke:none"/><path d="M0 0c.01-.01-.091-.138-.299-.38l-.942-1.062-3.705-4.06-.044-.048-.069-.001c-9.536-.098-28.275-.164-49.786-.164-21.517 0-40.255.066-49.791.164l-.069.001-.044.048-3.705 4.06-.942 1.062c-.208.242-.309.37-.299.38.01.009.132-.1.36-.323l.999-1.009 3.812-3.96-.112.049c9.536.097 28.274.164 49.791.164 21.511 0 40.25-.067 49.786-.164l-.112-.049 3.812 3.96 1 1.009C-.131-.1-.01.009 0 0" style="fill:#ececec;fill-opacity:1;fill-rule:nonzero;stroke:none" transform="translate(158.554 461.873)"/><path d="M0 0c-.01.01.091.138.299.38l.942 1.062 3.705 4.06.044.048.069.001c9.537.098 28.275.164 49.786.164 21.517 0 40.255-.066 49.791-.164l.069-.001.044-.048 3.705-4.06.942-1.062c.208-.242.309-.37.299-.38-.01-.009-.132.1-.36.323-.255.259-.585.591-.999 1.009l-3.812 3.96.112-.049c-9.536-.097-28.274-.164-49.791-.164-21.511 0-40.249.067-49.786.164l.112.049-3.812-3.96L.36.323C.132.1.01-.009 0 0" style="fill:#ececec;fill-opacity:1;fill-rule:nonzero;stroke:none" transform="translate(48.859 320.195)"/><path d="M153.496 325.591H53.918v130.884h99.578z" style="fill:#fff;fill-opacity:1;fill-rule:nonzero;stroke:none"/><path d="M0 0c2.962 2.822 7.334 3.62 11.424 3.519 4.09-.102 8.141-.967 12.231-.916 6.542.082 13.06 2.502 19.506 1.385 2.06-.357 4.148-1.074 6.193-.637 1.79.381 3.294 1.604 5.048 2.127 4.542 1.353 9.651-2.199 14.013-.345v-29.215H0Z" style="fill:#f5f5f5;fill-opacity:1;fill-rule:nonzero;stroke:none" transform="translate(69.5 363.867)"/><path d="M0 0c-.175 0-.318 17.307-.318 38.65 0 21.351.143 38.654.318 38.654.175 0 .318-17.303.318-38.654C.318 17.307.175 0 0 0" style="fill:#e1e1e1;fill-opacity:1;fill-rule:nonzero;stroke:none" transform="translate(70.877 362.693)"/><path d="M0 0c-.175 0-.318 17.307-.318 38.65 0 21.351.143 38.654.318 38.654.176 0 .318-17.303.318-38.654C.318 17.307.176 0 0 0" style="fill:#e1e1e1;fill-opacity:1;fill-rule:nonzero;stroke:none" transform="translate(73.992 362.693)"/><path d="M0 0c-.176 0-.318 17.307-.318 38.65 0 21.351.142 38.654.318 38.654.175 0 .317-17.303.317-38.654C.317 17.307.175 0 0 0" style="fill:#e1e1e1;fill-opacity:1;fill-rule:nonzero;stroke:none" transform="translate(77.107 362.693)"/><path d="M0 0c-.176 0-.318 17.307-.318 38.65 0 21.351.142 38.654.318 38.654.175 0 .317-17.303.317-38.654C.317 17.307.175 0 0 0" style="fill:#e1e1e1;fill-opacity:1;fill-rule:nonzero;stroke:none" transform="translate(80.222 362.693)"/><path d="M0 0c-.176 0-.318 17.307-.318 38.65 0 21.351.142 38.654.318 38.654.175 0 .318-17.303.318-38.654C.318 17.307.175 0 0 0" style="fill:#e1e1e1;fill-opacity:1;fill-rule:nonzero;stroke:none" transform="translate(83.337 362.693)"/><path d="M0 0c-.176 0-.318 17.307-.318 38.65 0 21.351.142 38.654.318 38.654.175 0 .318-17.303.318-38.654C.318 17.307.175 0 0 0" style="fill:#e1e1e1;fill-opacity:1;fill-rule:nonzero;stroke:none" transform="translate(86.451 362.693)"/><path d="M0 0c-.175 0-.318 17.307-.318 38.65 0 21.351.143 38.654.318 38.654.176 0 .318-17.303.318-38.654C.318 17.307.176 0 0 0" style="fill:#e1e1e1;fill-opacity:1;fill-rule:nonzero;stroke:none" transform="translate(89.566 362.693)"/><path d="M0 0c-.175 0-.317 17.307-.317 38.65 0 21.351.142 38.654.317 38.654.176 0 .318-17.303.318-38.654C.318 17.307.176 0 0 0" style="fill:#e1e1e1;fill-opacity:1;fill-rule:nonzero;stroke:none" transform="translate(92.68 362.693)"/><path d="M0 0c-.175 0-.317 17.307-.317 38.65 0 21.351.142 38.654.317 38.654.176 0 .318-17.303.318-38.654C.318 17.307.176 0 0 0" style="fill:#e1e1e1;fill-opacity:1;fill-rule:nonzero;stroke:none" transform="translate(95.796 362.693)"/><path d="M0 0c-.176 0-.318 17.307-.318 38.65 0 21.351.142 38.654.318 38.654.175 0 .317-17.303.317-38.654C.317 17.307.175 0 0 0" style="fill:#e1e1e1;fill-opacity:1;fill-rule:nonzero;stroke:none" transform="translate(98.91 362.693)"/><path d="M0 0c-.176 0-.318 17.307-.318 38.65 0 21.351.142 38.654.318 38.654.175 0 .318-17.303.318-38.654C.318 17.307.175 0 0 0" style="fill:#e1e1e1;fill-opacity:1;fill-rule:nonzero;stroke:none" transform="translate(102.025 362.693)"/><path d="M0 0c-.175 0-.318 17.307-.318 38.65 0 21.351.143 38.654.318 38.654.175 0 .318-17.303.318-38.654C.318 17.307.175 0 0 0" style="fill:#e1e1e1;fill-opacity:1;fill-rule:nonzero;stroke:none" transform="translate(105.14 362.693)"/><path d="M0 0c-.175 0-.318 17.307-.318 38.65 0 21.351.143 38.654.318 38.654.175 0 .318-17.303.318-38.654C.318 17.307.175 0 0 0" style="fill:#e1e1e1;fill-opacity:1;fill-rule:nonzero;stroke:none" transform="translate(108.255 362.693)"/><path d="M0 0c-.175 0-.317 17.307-.317 38.65 0 21.351.142 38.654.317 38.654.175 0 .318-17.303.318-38.654C.318 17.307.175 0 0 0" style="fill:#e1e1e1;fill-opacity:1;fill-rule:nonzero;stroke:none" transform="translate(111.37 362.693)"/><path d="M0 0c-.175 0-.317 17.307-.317 38.65 0 21.351.142 38.654.317 38.654.176 0 .318-17.303.318-38.654C.318 17.307.176 0 0 0" style="fill:#e1e1e1;fill-opacity:1;fill-rule:nonzero;stroke:none" transform="translate(114.484 362.693)"/><path d="M0 0c-.176 0-.318 17.307-.318 38.65 0 21.351.142 38.654.318 38.654.175 0 .318-17.303.318-38.654C.318 17.307.175 0 0 0" style="fill:#e1e1e1;fill-opacity:1;fill-rule:nonzero;stroke:none" transform="translate(117.6 362.693)"/><path d="M0 0c-.176 0-.318 17.307-.318 38.65 0 21.351.142 38.654.318 38.654.175 0 .318-17.303.318-38.654C.318 17.307.175 0 0 0" style="fill:#e1e1e1;fill-opacity:1;fill-rule:nonzero;stroke:none" transform="translate(120.715 362.693)"/><path d="M0 0c-.176 0-.318 17.307-.318 38.65 0 21.351.142 38.654.318 38.654.175 0 .318-17.303.318-38.654C.318 17.307.175 0 0 0" style="fill:#e1e1e1;fill-opacity:1;fill-rule:nonzero;stroke:none" transform="translate(123.83 362.693)"/><path d="M0 0c-.176 0-.318 17.307-.318 38.65 0 21.351.142 38.654.318 38.654.175 0 .318-17.303.318-38.654C.318 17.307.175 0 0 0" style="fill:#e1e1e1;fill-opacity:1;fill-rule:nonzero;stroke:none" transform="translate(126.944 362.693)"/><path d="M0 0c-.175 0-.317 17.307-.317 38.65 0 21.351.142 38.654.317 38.654.176 0 .318-17.303.318-38.654C.318 17.307.176 0 0 0" style="fill:#e1e1e1;fill-opacity:1;fill-rule:nonzero;stroke:none" transform="translate(130.059 362.693)"/><path d="M0 0c-.175 0-.317 17.307-.317 38.65 0 21.351.142 38.654.317 38.654.176 0 .318-17.303.318-38.654C.318 17.307.176 0 0 0" style="fill:#e1e1e1;fill-opacity:1;fill-rule:nonzero;stroke:none" transform="translate(133.173 362.693)"/><path d="M0 0c-.176 0-.318 17.307-.318 38.65 0 21.351.142 38.654.318 38.654.175 0 .317-17.303.317-38.654C.317 17.307.175 0 0 0" style="fill:#e1e1e1;fill-opacity:1;fill-rule:nonzero;stroke:none" transform="translate(136.289 362.693)"/><path d="M249.078 400.734h-61.009v63.597h61.009z" style="fill:#e1e1e1;fill-opacity:1;fill-rule:nonzero;stroke:none"/><path d="M244.946 400.734h-61.009v63.597h61.009z" style="fill:#fafafa;fill-opacity:1;fill-rule:nonzero;stroke:none"/><path d="M183.956 400.753h60.971v63.559h-60.971zm61.009-.038h-61.047v63.635h61.047z" style="fill:#e1e1e1;fill-opacity:1;fill-rule:nonzero;stroke:none"/><path d="M236.745 409.283h-44.606v46.498h44.606z" style="fill:#fff;fill-opacity:1;fill-rule:nonzero;stroke:none"/><path d="M0 0c.035-.042-.389-.528-1.101-1.279-.712-.752-1.713-1.77-2.835-2.875A122.675 122.675 0 0 0-6.85-6.943c-.761-.7-1.251-1.113-1.29-1.074-.038.038.383.522 1.096 1.274.712.752 1.715 1.772 2.841 2.88a123.08 123.08 0 0 0 2.92 2.795C-.522-.369-.035.042 0 0" style="fill:#e1e1e1;fill-opacity:1;fill-rule:nonzero;stroke:none" transform="translate(192.138 408.973)"/><path d="M0 0c.042.035.528-.388 1.28-1.101.752-.712 1.769-1.713 2.875-2.835A126.87 126.87 0 0 0 6.944-6.85c.699-.761 1.112-1.251 1.074-1.289-.039-.039-.523.382-1.275 1.094-.751.712-1.771 1.716-2.88 2.842a122.858 122.858 0 0 0-2.794 2.92C.37-.522-.042-.035 0 0" style="fill:#e1e1e1;fill-opacity:1;fill-rule:nonzero;stroke:none" transform="translate(236.745 409.088)"/><path d="M0 0c-.035.042.389.528 1.101 1.28a120.61 120.61 0 0 0 2.836 2.874 121.168 121.168 0 0 0 2.914 2.79c.76.699 1.25 1.112 1.289 1.074.038-.039-.383-.523-1.095-1.275a124.974 124.974 0 0 0-2.842-2.88 125.375 125.375 0 0 0-2.919-2.795C.523.37.036-.042 0 0" style="fill:#e1e1e1;fill-opacity:1;fill-rule:nonzero;stroke:none" transform="translate(236.623 455.657)"/><path d="M0 0c-.042-.035-.528.389-1.28 1.101-.751.712-1.769 1.713-2.874 2.836a118.924 118.924 0 0 0-2.789 2.914c-.7.76-1.113 1.251-1.074 1.289.038.038.522-.383 1.274-1.095s1.772-1.716 2.88-2.842a123.174 123.174 0 0 0 2.795-2.92C-.369.523.042.036 0 0" style="fill:#e1e1e1;fill-opacity:1;fill-rule:nonzero;stroke:none" transform="translate(192.016 455.543)"/><path d="M0 0a2.3 2.3 0 0 0-.009.226L-.02.875l-.019 2.51-.045 9.476-.088 33.637.172-.172-44.48-.025h-.004l.197.197L-44.314 0l-.17.169 32.21-.086C-8.387.063-5.329.049-3.228.039l2.395-.02.618-.01C-.076.006-.003.003 0 0a1.561 1.561 0 0 0-.196-.01 96.906 96.906 0 0 1-.6-.01l-2.362-.019-9.009-.044-32.317-.087h-.17V0l-.028 46.498v.198h.202L0 46.67h.173l-.001-.172-.087-33.747L.04 3.313.02.836.01.207A1.504 1.504 0 0 0 0 0" style="fill:#e1e1e1;fill-opacity:1;fill-rule:nonzero;stroke:none" transform="translate(236.623 409.283)"/><path d="M221.884 425.09h-14.885v14.884h14.885z" style="fill:#ececec;fill-opacity:1;fill-rule:nonzero;stroke:none"/></g><g clip-path="url(#b)" transform="matrix(1.33333 0 0 -1.33333 0 666.667)"><path d="m0 0-1.83-1.757c-15.427-14.812-21.814-36.792-15.9-57.142a55.339 55.339 0 0 1 2.849-7.66c8.207-17.871 26.044-31.033 45.732-33.744 11.579-1.595 24.134.04 34.306-5.62 13.238-7.367 17.311-23.981 20.129-38.758 2.818-14.778 6.938-31.394 20.208-38.703 8.311-4.577 18.619-4.321 27.808-1.751 24.326 6.804 42.509 28.872 48.58 53.13 6.07 24.258 1.316 50.163-8.826 72.964-14.209 31.943-39.827 59.618-72.693 72.353C67.496 26.047 27.453 22.188 0 0" style="fill:#f5f5f5;fill-opacity:1;fill-rule:nonzero;stroke:none" transform="translate(517.764 445.137)"/><path d="M0 0c0-35.311-28.625-63.936-63.936-63.936S-127.872-35.311-127.872 0s28.625 63.936 63.936 63.936S0 35.311 0 0" style="fill:#f5f5f5;fill-opacity:1;fill-rule:nonzero;stroke:none" transform="translate(185.651 369.643)"/></g><g clip-path="url(#c)" transform="matrix(1.33333 0 0 -1.33333 0 666.667)"><path d="M0 0c0-.144-149.264-.26-333.346-.26-184.147 0-333.378.116-333.378.26 0 .145 149.231.261 333.378.261C-149.264.261 0 .145 0 0" style="fill:#1a2e35;fill-opacity:1;fill-rule:nonzero;stroke:none" transform="translate(708.362 35.135)"/></g><path d="m0 0 11.783-55.273H-3.326L-28.63.929Z" style="fill:#e1e1e1;fill-opacity:1;fill-rule:nonzero;stroke:none" transform="matrix(1.33333 0 0 -1.33333 775.41 546.918)"/><g clip-path="url(#d)" transform="matrix(1.33333 0 0 -1.33333 0 666.667)"><path d="M0 0s-.186-.01-.526-.006l-1.506.025-5.735.135-20.871.576.188.28 21.528-47.667 3.83-8.51-.235.152 15.109-.01-.243-.3-8.336 39.636L.821-4.181.197-1.09l-.154.806A1.914 1.914 0 0 0 0 0c.004.006.028-.079.07-.251l.183-.774.681-3.033 2.508-11.433c2.125-9.839 5.113-23.665 8.582-39.731l.066-.299h-.308l-15.109-.011h-.168l-.068.152-3.833 8.509L-28.812.848l-.13.291.317-.012L-7.656.346-1.962.11-.489.039C-.16.021.006.008 0 0" style="fill:#1a2e35;fill-opacity:1;fill-rule:nonzero;stroke:none" transform="translate(581.56 89.811)"/><path d="m0 0-11.783-55.273h15.11L28.631.929Z" style="fill:#e1e1e1;fill-opacity:1;fill-rule:nonzero;stroke:none" transform="translate(163.868 89.811)"/><path d="M0 0c-.006.008.159.021.489.039L1.961.11l5.694.236 20.969.781.318.012-.13-.291L7.396-46.871 3.563-55.38l-.069-.152h-.167l-15.11.011h-.307l.065.299 8.582 39.731c1.068 4.865 1.919 8.743 2.508 11.433l.682 3.033.182.774C-.029-.079-.005.006 0 0a2.1 2.1 0 0 0-.043-.284l-.155-.806-.624-3.091-2.382-11.508-8.336-39.636-.243.3 15.11.01-.236-.152 3.83 8.51L28.45 1.01l.187-.28L7.766.154 2.032.019.526-.006C.185-.01 0 0 0 0" style="fill:#1a2e35;fill-opacity:1;fill-rule:nonzero;stroke:none" transform="translate(163.868 89.811)"/><path d="M614.019 73.308H166.221v71.701h447.798z" style="fill:#375a64;fill-opacity:1;fill-rule:nonzero;stroke:none"/><path d="M0 0v80.791c0 5.958 4.83 10.788 10.788 10.788h188.645c5.958 0 10.788-4.83 10.788-10.788V-31.453l-210.5-5.993z" style="fill:#375a64;fill-opacity:1;fill-rule:nonzero;stroke:none" transform="translate(384.092 202.394)"/><path d="M0 0v80.791c0 5.958 4.852 10.788 10.838 10.788h189.514c5.985 0 10.837-4.83 10.837-10.788l-.279-118.237L0-31.453Z" style="fill:#375a64;fill-opacity:1;fill-rule:nonzero;stroke:none" transform="translate(172.904 202.394)"/><path d="M0 0h-48.379c-4.517 0-8.178 4.798-8.178 10.717v127.657c0 5.919 3.661 10.718 8.311 10.718H.133c4.384 0 8.046-4.799 8.046-10.718V10.717C8.179 4.798 4.517 0 0 0" style="fill:#375a64;fill-opacity:1;fill-rule:nonzero;stroke:none" transform="translate(641.88 74.085)"/><path d="M0 0c-.002.021.363.013 1.053.125.688.103 1.707.434 2.823 1.218 1.086.809 2.269 2.092 3.071 3.923.405.907.751 1.932.93 3.067.199 1.132.217 2.353.2 3.657l-.083 44.115-.056 65.427-.004 9.348-.002 4.755c-.025 1.595.078 3.206-.154 4.764a12.379 12.379 0 0 1-1.559 4.467c-.807 1.361-1.944 2.571-3.36 3.289a5.764 5.764 0 0 1-2.263.652c-.783.064-1.642.017-2.462.031l-5.002-.001-41.476-.012c-1.713-.029-3.368-.772-4.605-1.955-1.263-1.166-2.134-2.709-2.689-4.329-.55-1.642-.69-3.353-.66-5.094v-5.209l-.004-20.441-.015-38.644-.024-34.967-.015-15.847-.008-7.469-.004-3.615c-.002-1.189.048-2.348.316-3.471.499-2.23 1.554-4.324 3.176-5.783.807-.724 1.748-1.279 2.757-1.573 1.007-.317 2.063-.252 3.118-.263l11.849-.019 18.977-.045L-4.182.052l3.12-.026A30.792 30.792 0 0 0 0 0s-.359-.019-1.062-.027l-3.12-.026-11.993-.049-18.977-.044-11.849-.02c-1.033.008-2.142-.064-3.213.267-1.065.307-2.054.887-2.896 1.639-1.694 1.517-2.782 3.673-3.301 5.965-.278 1.148-.333 2.358-.335 3.55l-.004 3.615-.008 7.469-.015 15.847-.024 34.967-.016 38.644-.003 20.441v5.209c-.033 1.738.111 3.562.685 5.257.577 1.691 1.486 3.308 2.827 4.547 1.311 1.255 3.098 2.065 4.952 2.095l41.484.001 5.002-.001c.838-.016 1.638.033 2.503-.034a6.286 6.286 0 0 0 2.451-.708c1.523-.774 2.717-2.057 3.561-3.482a12.868 12.868 0 0 0 1.621-4.649c.239-1.638.13-3.25.155-4.838l-.002-4.755-.005-9.348c-.021-24.623-.039-46.799-.056-65.427L8.28 11.99c.009-1.297-.016-2.545-.226-3.688a12.345 12.345 0 0 0-.966-3.101c-.828-1.847-2.041-3.138-3.15-3.944C2.796.476 1.759.159 1.062.073.363-.023 0 0 0 0" style="fill:#1a2e35;fill-opacity:1;fill-rule:nonzero;stroke:none" transform="translate(641.88 74.085)"/><path d="M0 0h-188.082a8.6 8.6 0 0 0-8.6 8.6v24.226a8.6 8.6 0 0 0 8.6 8.6H0a8.6 8.6 0 0 0 8.6-8.6V8.6A8.6 8.6 0 0 0 0 0" style="fill:#375a64;fill-opacity:1;fill-rule:nonzero;stroke:none" transform="translate(580.088 130.971)"/><path d="M0 0c-.002.026.422.007 1.226.13.798.118 2.005.415 3.344 1.268a8.515 8.515 0 0 1 3.502 4.533c.384 1.099.464 2.34.419 3.686l-.014 4.285-.028 10.078-.013 5.763c-.066 1.991.239 4.121-.576 6.09a8.456 8.456 0 0 1-4.362 4.635c-2.049 1.033-4.48.709-6.911.757l-15.446-.023-169.211-.093a8.359 8.359 0 0 1-5.451-2.046 8.173 8.173 0 0 1-2.754-5.086c-.132-.959-.079-1.99-.09-3.006l-.001-3.044V21.87l-.002-11.979c.009-1.001-.04-1.966.157-2.895a8.42 8.42 0 0 1 1.02-2.64A8.208 8.208 0 0 1-190.922.82c1.753-.705 3.709-.468 5.648-.511l5.762-.002 11.359-.004 21.989-.011 76.073-.068 51.286-.101C-12.761.098-8.064.077-4.861.063l3.626-.031C-.419.021 0 0 0 0s-.419-.022-1.235-.032l-3.626-.032-13.944-.06-51.286-.101-76.073-.067-21.989-.011-11.359-.005-5.762-.002-2.906.004a8.894 8.894 0 0 0-2.955.543 8.828 8.828 0 0 0-4.592 3.799 9.037 9.037 0 0 0-1.098 2.84c-.213 1.011-.16 2.04-.17 3.015l-.002 11.979-.001 6.057v3.044c.013 1.013-.046 2.029.095 3.093a8.802 8.802 0 0 0 2.966 5.476 8.985 8.985 0 0 0 5.867 2.203l169.211-.093 15.446-.022 3.609-.016a8.745 8.745 0 0 0 3.46-.799 8.82 8.82 0 0 0 4.535-4.853 8.936 8.936 0 0 0 .58-3.161l-.006-3.056-.014-5.763c-.01-3.683-.02-7.048-.027-10.078l-.015-4.285c.036-1.332-.056-2.635-.458-3.746a8.623 8.623 0 0 0-3.612-4.58C3.269.442 2.042.164 1.235.065.422-.037 0 0 0 0" style="fill:#1a2e35;fill-opacity:1;fill-rule:nonzero;stroke:none" transform="translate(580.088 130.971)"/><path d="M0 0h-48.379c-4.517 0-8.178 4.799-8.178 10.718v127.657c0 5.919 3.661 10.718 8.311 10.718H.133c4.384 0 8.045-4.799 8.045-10.718V10.718C8.178 4.799 4.517 0 0 0" style="fill:#375a64;fill-opacity:1;fill-rule:nonzero;stroke:none" transform="translate(165.081 73.308)"/><path d="M0 0c-.001.022.363.013 1.052.126.689.103 1.708.433 2.824 1.217 1.085.81 2.268 2.093 3.071 3.923.404.908.751 1.933.93 3.067.199 1.133.217 2.354.2 3.658l-.083 44.114-.056 65.428-.004 9.348-.002 4.755c-.025 1.595.077 3.206-.154 4.764a12.398 12.398 0 0 1-1.559 4.467c-.807 1.361-1.944 2.571-3.36 3.289a5.769 5.769 0 0 1-2.263.652c-.783.063-1.642.017-2.462.031l-5.002-.001-41.476-.012c-1.713-.029-3.368-.772-4.605-1.955-1.263-1.166-2.134-2.709-2.688-4.329-.551-1.642-.691-3.353-.66-5.094l-.001-5.209-.004-20.441-.015-38.644-.024-34.967-.015-15.847-.008-7.469-.005-3.615c-.001-1.189.049-2.349.317-3.471.499-2.23 1.554-4.325 3.176-5.783.806-.725 1.748-1.279 2.757-1.573 1.007-.317 2.063-.253 3.118-.263l11.849-.02 18.978-.044L-4.181.053l3.119-.026A28.832 28.832 0 0 0 0 0s-.36-.018-1.062-.026l-3.119-.026-11.993-.049-18.978-.045-11.849-.019c-1.034.007-2.142-.064-3.213.267-1.065.306-2.054.887-2.896 1.639-1.693 1.516-2.782 3.673-3.302 5.965-.277 1.148-.333 2.358-.334 3.55l-.004 3.615-.008 7.469-.015 15.847-.024 34.967-.016 38.644-.003 20.441-.001 5.209c-.032 1.738.111 3.562.686 5.257.577 1.69 1.486 3.308 2.827 4.547 1.311 1.255 3.098 2.065 4.952 2.095l41.484.001 5.002-.001c.838-.016 1.638.033 2.503-.035a6.263 6.263 0 0 0 2.451-.707c1.523-.774 2.717-2.058 3.561-3.482a12.866 12.866 0 0 0 1.621-4.65c.239-1.637.131-3.249.155-4.837l-.002-4.755-.005-9.348-.056-65.428-.082-44.114c.009-1.298-.017-2.545-.227-3.688a12.304 12.304 0 0 0-.965-3.101c-.829-1.848-2.041-3.138-3.151-3.944C2.795.477 1.758.159 1.061.073.363-.023 0 0 0 0" style="fill:#1a2e35;fill-opacity:1;fill-rule:nonzero;stroke:none" transform="translate(165.081 73.308)"/><path d="M0 0h-199.666a8.601 8.601 0 0 0-8.601 8.601v25.15a8.601 8.601 0 0 0 8.601 8.601H0a8.601 8.601 0 0 0 8.601-8.601V8.601A8.601 8.601 0 0 0 0 0" style="fill:#375a64;fill-opacity:1;fill-rule:nonzero;stroke:none" transform="translate(374.806 130.508)"/><path d="M0 0c-.002.03.444.002 1.29.14.838.133 2.104.464 3.495 1.391 1.35.941 2.836 2.561 3.441 4.935.328 1.175.267 2.496.265 3.911l-.014 4.509-.028 10.604-.013 6.065c-.017 1.047.037 2.136-.071 3.192a8.301 8.301 0 0 1-1.001 3.088 8.45 8.45 0 0 1-5.302 4.061c-1.145.31-2.36.259-3.613.259l-3.794-.006-16.254-.022-178.055-.093a8.303 8.303 0 0 1-5.681-2.255 8.268 8.268 0 0 1-2.587-5.493c-.055-4.251-.016-8.546-.029-12.769l-.002-12.606c-.046-2.031.606-4.03 1.885-5.574a8.321 8.321 0 0 1 5.046-2.905c.962-.171 1.983-.111 3.01-.122h3.053l6.064-.002 11.952-.005 23.139-.011 80.05-.067 53.966-.101 14.672-.06L-1.3.032C-.44.021 0 0 0 0s-.44-.021-1.3-.032l-3.816-.031c-3.368-.014-8.31-.035-14.672-.06l-53.966-.101-80.05-.068-23.139-.011-11.952-.004-6.064-.002-3.053-.001c-1.01.013-2.049-.055-3.111.128a8.95 8.95 0 0 0-5.427 3.122c-1.375 1.648-2.081 3.835-2.03 5.971l-.002 12.606c.013 4.242-.029 8.478.028 12.81a8.904 8.904 0 0 0 2.784 5.914 8.942 8.942 0 0 0 6.116 2.427c69.525-.036 132.473-.068 178.055-.093 5.697-.008 11.121-.014 16.254-.022l3.794-.006c1.231-.005 2.503.046 3.705-.282a8.82 8.82 0 0 0 5.521-4.258 8.666 8.666 0 0 0 1.03-3.22c.108-1.118.046-2.179.06-3.232l-.013-6.065-.028-10.604-.015-4.509c-.007-1.402.045-2.756-.302-3.958-.637-2.423-2.17-4.056-3.55-4.993C3.434.502 2.147.189 1.299.076.874.001.546.009.328 0 .11-.005 0 0 0 0" style="fill:#1a2e35;fill-opacity:1;fill-rule:nonzero;stroke:none" transform="translate(374.806 130.508)"/><path d="M0 0c.176 0 .317-25.85.317-57.729 0-31.891-.141-57.735-.317-57.735-.175 0-.316 25.844-.316 57.735C-.316-25.85-.175 0 0 0" style="fill:#1a2e35;fill-opacity:1;fill-rule:nonzero;stroke:none" transform="translate(384.092 284.1)"/><path d="M0 0c.046-.044-.188-.271-.433-.771-.249-.495-.455-1.299-.326-2.275.141-.95.653-2.124 1.735-2.769 1.063-.677 2.642-.471 3.79.443 1.156.904 1.721 2.393 1.309 3.585C5.698-.585 4.675.185 3.783.541c-.92.352-1.75.338-2.288.21C.951.629.677.454.645.509c-.015.017.216.27.782.479.556.213 1.471.308 2.509-.025C4.937.622 6.137-.178 6.632-1.609A3.454 3.454 0 0 0 6.597-3.9c-.275-.758-.784-1.443-1.439-1.97-.664-.515-1.447-.851-2.248-.942a3.453 3.453 0 0 0-2.236.497c-1.278.813-1.778 2.165-1.878 3.218-.084 1.086.22 1.954.557 2.447.334.502.633.669.647.65" style="fill:#1a2e35;fill-opacity:1;fill-rule:nonzero;stroke:none" transform="translate(491.847 247.563)"/><path d="M0 0c.007-.111-1.28-.139-3.239-.696-1.946-.542-4.57-1.739-6.782-3.902-2.211-2.166-3.464-4.763-4.048-6.697-.599-1.946-.656-3.232-.767-3.223-.039.002-.068.324-.044.906.024.582.127 1.423.379 2.439.487 2.019 1.726 4.766 4.037 7.028 2.311 2.26 5.083 3.439 7.112 3.883 1.022.23 1.865.315 2.448.326C-.322.076-.001.04 0 0" style="fill:#1a2e35;fill-opacity:1;fill-rule:nonzero;stroke:none" transform="translate(510.967 262.625)"/><path d="M0 0c-.029.024.171.335.602.844.429.51 1.113 1.198 2.057 1.934C4.522 4.252 7.6 5.833 11.288 6.136c3.691.3 6.983-.761 9.062-1.913 1.05-.574 1.837-1.142 2.343-1.575.508-.431.756-.706.731-.735-.072-.093-1.176.893-3.278 1.91-2.078 1.022-5.264 1.968-8.806 1.681-3.541-.291-6.531-1.741-8.415-3.087C1.016 1.071.087-.08 0 0" style="fill:#1a2e35;fill-opacity:1;fill-rule:nonzero;stroke:none" transform="translate(466.709 241.307)"/><path d="M0 0c-.068-.047-.568.491-1.266 1.46-.674.965-1.613 2.424-1.871 4.315-.237 1.924.584 3.634 1.519 4.455.958.853 1.817.825 1.804.767.037-.11-.725-.251-1.488-1.084-.755-.804-1.417-2.358-1.205-4.058.229-1.714 1.046-3.141 1.618-4.153C-.299.688.076.053 0 0" style="fill:#1a2e35;fill-opacity:1;fill-rule:nonzero;stroke:none" transform="translate(496.482 230.841)"/><path d="M0 0c.046-.044-.187-.271-.432-.771-.25-.495-.455-1.299-.326-2.275.141-.95.652-2.124 1.735-2.769 1.063-.677 2.642-.471 3.789.443 1.156.904 1.722 2.393 1.31 3.585C5.698-.585 4.675.185 3.783.541c-.919.352-1.75.338-2.287.21C.952.629.677.454.645.509c-.015.017.217.27.782.479.557.213 1.472.308 2.509-.025C4.938.622 6.137-.178 6.632-1.609A3.454 3.454 0 0 0 6.597-3.9c-.274-.758-.783-1.443-1.438-1.97-.665-.515-1.448-.851-2.249-.942a3.455 3.455 0 0 0-2.236.497c-1.278.813-1.778 2.165-1.878 3.218-.084 1.086.22 1.954.557 2.447.334.502.634.669.647.65" style="fill:#1a2e35;fill-opacity:1;fill-rule:nonzero;stroke:none" transform="translate(277.344 247.563)"/><path d="M0 0c.007-.111-1.28-.139-3.239-.696-1.946-.542-4.57-1.739-6.782-3.902-2.21-2.166-3.464-4.763-4.048-6.697-.599-1.946-.655-3.232-.766-3.223-.04.002-.069.324-.044.906.024.582.127 1.423.379 2.439.487 2.019 1.725 4.766 4.036 7.028 2.311 2.26 5.083 3.439 7.113 3.883 1.021.23 1.865.315 2.447.326C-.322.076-.001.04 0 0" style="fill:#1a2e35;fill-opacity:1;fill-rule:nonzero;stroke:none" transform="translate(296.464 262.625)"/><path d="M0 0c-.03.024.17.335.601.844.429.51 1.114 1.198 2.058 1.934 1.863 1.474 4.94 3.055 8.629 3.358 3.69.3 6.983-.761 9.061-1.913 1.05-.574 1.838-1.142 2.344-1.575.508-.431.755-.706.73-.735-.072-.093-1.175.893-3.278 1.91-2.077 1.022-5.264 1.968-8.806 1.681-3.54-.291-6.531-1.741-8.414-3.087C1.015 1.071.086-.08 0 0" style="fill:#1a2e35;fill-opacity:1;fill-rule:nonzero;stroke:none" transform="translate(252.207 241.307)"/><path d="M0 0c-.068-.047-.568.491-1.266 1.46-.675.965-1.613 2.424-1.87 4.315-.238 1.924.583 3.634 1.518 4.455.958.853 1.818.825 1.804.767.037-.11-.726-.251-1.488-1.084-.754-.804-1.417-2.358-1.205-4.058.229-1.714 1.046-3.141 1.618-4.153C-.298.688.076.053 0 0" style="fill:#1a2e35;fill-opacity:1;fill-rule:nonzero;stroke:none" transform="translate(281.98 230.841)"/></g><g clip-path="url(#e)" transform="matrix(1.33333 0 0 -1.33333 0 666.667)"><path d="M0 0c-2.189 2.524-4.864 4.93-5.541 8.201-.623 3.008.555 6.385-.926 9.076-1.822 3.312-6.656 3.76-8.88 6.816-1.077 1.479-1.402 3.401-2.465 4.889-1.813 2.539-5.334 3.225-8.437 2.907-3.103-.317-6.094-1.419-9.206-1.622-4.27-.28-8.669 1.131-12.773-.077-4.528-1.333-7.312-5.323-10.269-9.185l-3.855-4.476c-.797-.765-1.64-1.469-2.565-2.062-1.618-1.037-3.467-1.75-4.86-3.073-2.98-2.833-2.753-8.31.45-10.888-3.291-1.034-5.663-4.456-5.479-7.9.102-1.896.881-3.677 1.441-5.49.56-1.813.894-3.831.13-5.569-.764-1.737-2.994-2.921-4.643-1.982.573-2.459 2.323-4.615 4.611-5.682a5.08 5.08 0 0 0-3.424-1.505c3.432-8.144 12.834-12.451 21.67-12.527 8.838-.075 17.306 3.248 25.515 6.52l23.813 6.111c2.09.472 2.968 3.008 2.944 5.151-.023 2.144-.559 4.375.212 6.375 1.058 2.742 4.253 4.189 5.359 6.912C4.08-5.985 2.189-2.524 0 0" style="fill:#1a2e35;fill-opacity:1;fill-rule:nonzero;stroke:none" transform="translate(371.888 373.396)"/><path d="M0 0c-1.707 5.382-3.393 10.804-4.149 16.399-.756 5.595-.545 11.42 1.459 16.699.304.799 2.884 6.164 3.735 6.074.608-.065-.993-5.074-.689-5.605 2.902-5.066 3.658-11.139 3.148-16.954C2.994 10.797 1.747 5.571 0 0" style="fill:#1a2e35;fill-opacity:1;fill-rule:nonzero;stroke:none" transform="translate(315.53 351.86)"/><path d="M0 0c-.36 14.155 7.578 26.164 21.738 26.132l1.308-.079c13.167-.8 23.518-11.572 23.78-24.761.244-12.27.356-25.832-.122-32.378-.991-13.551-14.683-14.837-14.683-14.837-.03 0 .336-22.298.336-22.298L-.045-61.439z" style="fill:#d96d68;fill-opacity:1;fill-rule:nonzero;stroke:none" transform="translate(315.125 373.405)"/><path d="M0 0s-8.579.017-17.341 6.292c0 0 3.79-11.279 17.397-10.878z" style="fill:#a64c47;fill-opacity:1;fill-rule:nonzero;stroke:none" transform="translate(347.146 327.482)"/><path d="M0 0c-.025-1.025-.915-1.848-1.986-1.841-1.069.008-1.916.842-1.89 1.867.025 1.025.915 1.85 1.983 1.843C-.822 1.861.026 1.024 0 0" style="fill:#1a2e35;fill-opacity:1;fill-rule:nonzero;stroke:none" transform="translate(357.306 363.178)"/><path d="M0 0c-.255-.238-1.656.937-3.741 1.058-2.08.151-3.675-.829-3.885-.559-.105.119.168.56.863 1.005.685.442 1.831.845 3.129.76 1.298-.086 2.361-.63 2.959-1.157C-.064.576.125.106 0 0" style="fill:#1a2e35;fill-opacity:1;fill-rule:nonzero;stroke:none" transform="translate(358.71 369.244)"/><path d="M0 0c-.026-1.025-.916-1.848-1.986-1.841-1.069.008-1.917.842-1.89 1.868.025 1.024.915 1.849 1.984 1.842C-.821 1.861.025 1.025 0 0" style="fill:#1a2e35;fill-opacity:1;fill-rule:nonzero;stroke:none" transform="translate(339.526 363.218)"/><path d="M0 0c-.256-.238-1.659.937-3.742 1.058-2.08.15-3.675-.829-3.886-.56-.103.12.166.561.864 1.004.685.444 1.832.846 3.129.762 1.298-.086 2.361-.631 2.959-1.158C-.066.576.124.105 0 0" style="fill:#1a2e35;fill-opacity:1;fill-rule:nonzero;stroke:none" transform="translate(338.245 369.64)"/><path d="M0 0c-.002.119 1.307.265 3.422.406.536.022 1.046.097 1.157.455.149.377-.039.964-.259 1.599L2.992 6.608C1.156 12.51-.138 17.351.1 17.422c.239.072 1.92-4.653 3.755-10.556.44-1.454.861-2.841 1.261-4.168.164-.617.469-1.324.149-2.105-.167-.389-.576-.654-.922-.725-.347-.084-.648-.072-.912-.071C1.312-.188.001-.119 0 0" style="fill:#1a2e35;fill-opacity:1;fill-rule:nonzero;stroke:none" transform="translate(344.75 353.172)"/><path d="M0 0c.34-.001.208-2.264 2.046-3.987 1.835-1.728 4.262-1.62 4.261-1.937.023-.144-.564-.408-1.583-.373-1.001.026-2.439.436-3.565 1.489C.038-3.751-.39-2.407-.411-1.474-.44-.523-.154.022 0 0" style="fill:#1a2e35;fill-opacity:1;fill-rule:nonzero;stroke:none" transform="translate(338.528 352.103)"/><path d="M0 0c-.24-.555-2.305-.159-4.768-.306-2.466-.097-4.481-.693-4.774-.165-.13.252.246.764 1.076 1.264.823.5 2.116.944 3.594 1.019 1.477.071 2.808-.244 3.676-.66C-.32.736.104.263 0 0" style="fill:#1a2e35;fill-opacity:1;fill-rule:nonzero;stroke:none" transform="translate(338.644 378.104)"/><path d="M0 0c-.395-.451-1.801.128-3.526.255C-5.246.444-6.733.13-7.04.646c-.133.25.126.709.792 1.119.656.408 1.732.71 2.916.602 1.184-.11 2.186-.601 2.757-1.123C.005.721.176.221 0 0" style="fill:#1a2e35;fill-opacity:1;fill-rule:nonzero;stroke:none" transform="translate(358.27 376.224)"/><path d="M0 0c-.225.114-9.151 3.322-9.418-5.968-.266-9.29 9.115-7.641 9.139-7.375C-.255-13.077 0 0 0 0" style="fill:#d96d68;fill-opacity:1;fill-rule:nonzero;stroke:none" transform="translate(315.623 363.296)"/><path d="M0 0c-.04.03-.166-.108-.442-.226a1.611 1.611 0 0 0-1.21.01c-.972.388-1.753 1.969-1.751 3.645.001.846.201 1.646.52 2.304.303.672.757 1.134 1.253 1.208a.825.825 0 0 0 .942-.471c.117-.263.053-.448.102-.465.025-.024.204.15.14.536a1.034 1.034 0 0 1-.349.593c-.218.187-.543.289-.888.262-.718-.029-1.382-.67-1.732-1.392a5.499 5.499 0 0 1-.635-2.573c.006-1.874.914-3.653 2.245-4.08.649-.189 1.2-.008 1.488.204.294.221.349.427.317.445" style="fill:#a64c47;fill-opacity:1;fill-rule:nonzero;stroke:none" transform="translate(312.608 353.553)"/><path d="M0 0c1.521.8-2.896 5.759-6.558 7.509-5.535 2.645-14.033 4.375-19.212 3.017C-32.004 8.891-37.217 5.908-40.441.327c-3.226-5.581-4.526-12.133-4.473-18.579.016-1.967.179-4.019 1.196-5.703 1.257-2.08 3.721-3.423 3.556-6.254-.06-1.036.214-2.087.909-2.856 1.664-1.843 3.778-.185 4.768 1.5 2.114 3.599 2.428 7.94 2.691 12.105.186 2.961.366 5.986-.413 8.849-.423 1.557-1.125 3.035-1.461 4.614-.337 1.579-.254 3.362.75 4.626.163.205.431.464.77.748a9.69 9.69 0 0 0 9.649 1.64C-17.303-.938-8.422-3.88-6.053-2.151-2.645.337-1.809 1.987-1.809 1.987z" style="fill:#1a2e35;fill-opacity:1;fill-rule:nonzero;stroke:none" transform="translate(356.245 390.21)"/><path d="M0 0c5.14 1.606 10.951 1.401 15.681-1.173 2.51-1.366 4.76-3.514 5.479-6.281.719-2.766-.523-6.129-3.191-7.154l-.184-.111c-3.991-1.256-6.557-.674-10.483.773-3.302 1.217-6.22 3.328-9.529 4.53a18.886 18.886 0 0 1-11.045.541C-9.639-4.902-5.139-1.606 0 0" style="fill:#1a2e35;fill-opacity:1;fill-rule:nonzero;stroke:none" transform="translate(330.986 401.987)"/><path d="m0 0-12.89-6.161s-3.585-2.121-3.345-4.614c0 0 1.631.815 4.765.815 1.556 0 2.972-1.114 3.156-2.66l.004-.042 8.078-1.035z" style="fill:#e1e1e1;fill-opacity:1;fill-rule:nonzero;stroke:none" transform="translate(324.345 373.615)"/><path d="M0 0c0-.672-.545-1.217-1.217-1.217h-9.227c-.672 0-1.217.545-1.217 1.217v6.594c0 .672.545 1.217 1.217 1.217h9.227C-.545 7.811 0 7.266 0 6.594Zm-21.899 0c0-.672-.545-1.217-1.217-1.217H-33.8c-.672 0-1.217.545-1.217 1.217v6.594c0 .672.545 1.217 1.217 1.217h10.684c.672 0 1.217-.545 1.217-1.217zm-16.207 10.473c-.089-.464-.224-13.697-.224-13.697l17.586-.232s2.98 6.043 4.051 6.107c1.605.097 4.112-5.661 4.112-5.661 1.247 0 14.861-.058 14.861-.058v13.152z" style="fill:#e1e1e1;fill-opacity:1;fill-rule:nonzero;stroke:none" transform="translate(362.442 363.143)"/><path d="M0 0h-10.549c-.709 0-1.284.575-1.284 1.284v6.46c0 .709.575 1.283 1.284 1.283H0c.709 0 1.284-.574 1.284-1.283v-6.46C1.284.575.709 0 0 0" style="fill:#375a64;fill-opacity:1;fill-rule:nonzero;stroke:none" transform="translate(339.259 361.926)"/><path d="M0 0h-9.093c-.709 0-1.283.575-1.283 1.284v6.46c0 .709.574 1.283 1.283 1.283H0c.709 0 1.284-.574 1.284-1.283v-6.46C1.284.575.709 0 0 0" style="fill:#ff735d;fill-opacity:1;fill-rule:nonzero;stroke:none" transform="translate(361.158 361.926)"/><path d="M0 0c-.144 0-.261 3.057-.261 6.826 0 3.77.117 6.826.261 6.826.144 0 .26-3.056.26-6.826C.26 3.057.144 0 0 0" style="fill:#1a2e35;fill-opacity:1;fill-rule:nonzero;stroke:none" transform="translate(324.42 359.793)"/><path d="M0 0c.1-.103-1.468-1.796-3.503-3.782-2.036-1.987-3.767-3.513-3.867-3.41-.101.103 1.468 1.796 3.503 3.782S-.101.103 0 0" style="fill:#fff;fill-opacity:1;fill-rule:nonzero;stroke:none" transform="translate(339.081 369.475)"/><path d="M0 0c.1-.104-1.077-1.397-2.627-2.89-1.552-1.493-2.89-2.618-2.989-2.515-.1.104 1.076 1.398 2.628 2.89C-1.438-1.022-.1.104 0 0" style="fill:#fff;fill-opacity:1;fill-rule:nonzero;stroke:none" transform="translate(336.629 369.96)"/><path d="M0 0c.107-.096-.644-1.111-1.678-2.266-1.034-1.156-1.959-2.015-2.066-1.92-.108.096.643 1.111 1.678 2.267C-1.032-.764-.107.096 0 0" style="fill:#fff;fill-opacity:1;fill-rule:nonzero;stroke:none" transform="translate(356.886 367.746)"/><path d="M0 0c.117-.072-.833-1.782-2.379-3.622C-3.92-5.467-5.436-6.702-5.528-6.6c-.102.11 1.234 1.496 2.749 3.313C-1.257-1.477-.126.082 0 0" style="fill:#fff;fill-opacity:1;fill-rule:nonzero;stroke:none" transform="translate(360.564 370.067)"/><path d="M0 0s43.534-4.388 48.995-2.666c5.461 1.722 46.929-.765 46.929-.765l1.464-13.726L-4.16-23.486Z" style="fill:#d96d68;fill-opacity:1;fill-rule:nonzero;stroke:none" transform="translate(408.098 310.91)"/><path d="M0 0s5.915-.473 7.732-.862c1.818-.389 30.97-6.339 32.529-7.243 1.557-.904 15.318-5.188 15.318-5.188s.129-2.077-1.558-2.337c-1.688-.26-7.918 1.688-7.918 1.688l6.23-4.674s-2.077-1.298-5.452-.908c-3.375.389-13.891 6.101-13.891 6.101l-9.865-.39s9.087-5.13 9.217-7.238c.13-2.108-2.075-3.666-3.894-3.017-1.818.649-9.088 4.154-9.088 4.154S7.677-16.279 5.6-13.942l-7.527.027z" style="fill:#d96d68;fill-opacity:1;fill-rule:nonzero;stroke:none" transform="translate(503.472 307.512)"/><path d="M0 0s3.355.307 16.301-2.694c12.946-3.001 24.946-3.743 24.946-3.743l.805-27.447s-40.265-.392-44.873-9.411z" style="fill:#ff735d;fill-opacity:1;fill-rule:nonzero;stroke:none" transform="translate(369.256 319.474)"/><g clip-path="url(#f)" style="opacity:.30000299"><path d="M0 0s-.873 18.699 4.199 25.773c4.579 6.387 8.812 7.939 8.812 7.939l8.074-2.107-5.603-10.052-2.503-19.286Z" style="fill:#000;fill-opacity:1;fill-rule:nonzero;stroke:none" transform="translate(377.2 281.95)"/></g><path d="M0 0V-34.614l-18.65-41.782 67.201-36.023 34.153-7.625s-.298 9.245-2.844 30.023c-2.087 17.027 6.518 60.509 6.518 60.509V0L63.529 2.669s-3.658-8.164-15.8-7.746C32.76-4.56 31.395 4.728 31.395 4.728Z" style="fill:#ff735d;fill-opacity:1;fill-rule:nonzero;stroke:none" transform="translate(283.684 319.474)"/><path d="M0 0s-9.53-1.041-15.069-6.118c-5.538-5.077-20.538-25.154-20.538-25.154L-6.429-54.14 7.316-29.195Z" style="fill:#ff735d;fill-opacity:1;fill-rule:nonzero;stroke:none" transform="translate(283.684 319.474)"/><g clip-path="url(#g)" style="opacity:.30000299"><path d="m0 0 78.057-88.709-7.537-6.497L-10.099 0S-4.162.777 0 0" style="fill:#000;fill-opacity:1;fill-rule:nonzero;stroke:none" transform="translate(268.1 293.628)"/></g><path d="M0 0c.144.01.769-6.879 1.397-15.386.628-8.51 1.021-15.415.877-15.426-.143-.01-.768 6.878-1.397 15.388C.25-6.917-.143-.011 0 0" style="fill:#1a2e35;fill-opacity:1;fill-rule:nonzero;stroke:none" transform="translate(278.96 297.206)"/><path d="M0 0c-.015-.032-.611.187-1.674.61-1.058.434-2.611 1.014-4.544 1.674-1.931.67-4.266 1.362-6.885 2.023a90.378 90.378 0 0 1-8.623 1.651c-3.09.41-6.054.624-8.753.715-2.7.064-5.135.022-7.175-.107-2.04-.12-3.691-.262-4.826-.397-1.138-.124-1.771-.176-1.776-.141-.006.036.616.156 1.749.341 1.131.197 2.782.398 4.828.565 2.046.176 4.494.256 7.211.219a82.19 82.19 0 0 0 8.812-.679 82.156 82.156 0 0 0 8.671-1.703c2.628-.69 4.964-1.421 6.889-2.139 1.927-.709 3.464-1.343 4.501-1.835C-.553.314.015.033 0 0" style="fill:#1a2e35;fill-opacity:1;fill-rule:nonzero;stroke:none" transform="translate(348.054 239.04)"/><path d="M0 0c.035-.006-.039-.627-.204-1.743l-.713-4.724-2.269-15.598c-.875-6.096-1.723-11.608-2.421-15.585a171.21 171.21 0 0 0-.876-4.7c-.227-1.106-.369-1.714-.404-1.708-.036.007.039.627.204 1.744l.712 4.723 2.27 15.601c.874 6.094 1.722 11.606 2.421 15.582.348 1.988.647 3.594.876 4.7C-.177-.602-.036.006 0 0" style="fill:#1a2e35;fill-opacity:1;fill-rule:nonzero;stroke:none" transform="translate(373.322 311.63)"/><g clip-path="url(#h)" style="opacity:.30000299"><path d="m0 0 15.224-4.993-11.276-91.06h17.366L38.457 4.798Z" style="fill:#000;fill-opacity:1;fill-rule:nonzero;stroke:none" transform="translate(243.555 169.054)"/></g><path d="M0 0s6.335-.667 4.001-4.334C1.667-8.003-3.092-7.121-3.092-7.121l-8.357 2.453-2.552 2.847V0s4.998-.778 7.888-.556C-3.224-.333 0 0 0 0" style="fill:#d96d68;fill-opacity:1;fill-rule:nonzero;stroke:none" transform="translate(266.373 300.04)"/><path d="m0 0-11.57-45.371-56.522 14.105c1.678 5.317 33.625 8.86 33.625 8.86l6.22 29.375z" style="fill:#375a64;fill-opacity:1;fill-rule:nonzero;stroke:none" transform="translate(289.365 67.968)"/><path d="M0 0c1.019-.572 1.468-1.991.938-3.033-.529-1.042-1.968-1.511-2.997-.956-1.029.553-1.62 2.24-.977 3.216C-2.393.203-.673.661.192-.124" style="fill:#fff;fill-opacity:1;fill-rule:nonzero;stroke:none" transform="translate(272.987 43.65)"/><path d="m0 0 1.261 4.853-54.87 11.49s-2.786-.486-2.932-2.329z" style="fill:#1a2e35;fill-opacity:1;fill-rule:nonzero;stroke:none" transform="translate(277.776 22.5)"/><path d="M0 0c-.06-.278 1.289-.748 2.426-1.975 1.169-1.196 1.57-2.566 1.851-2.52.268-.011.268 1.742-1.134 3.203C1.755.181.004.269 0 0" style="fill:#fff;fill-opacity:1;fill-rule:nonzero;stroke:none" transform="translate(254.053 46.078)"/><path d="M0 0c-.13-.252.948-1.02 1.594-2.421.688-1.382.609-2.703.887-2.76.248-.108.843 1.461.007 3.188C1.667-.259.071.262 0 0" style="fill:#fff;fill-opacity:1;fill-rule:nonzero;stroke:none" transform="translate(247.513 45.105)"/><path d="M0 0c.236-.122.964 1.161.633 2.85C.313 4.541-.84 5.462-1.014 5.262c-.212-.189.423-1.209.675-2.599C-.056 1.279-.267.096 0 0" style="fill:#fff;fill-opacity:1;fill-rule:nonzero;stroke:none" transform="translate(242.376 38.85)"/><path d="M0 0c.053-.281 1.414-.216 2.948-.711 1.544-.465 2.627-1.291 2.829-1.09.21.16-.72 1.477-2.535 2.035C1.433.806-.082.25 0 0" style="fill:#fff;fill-opacity:1;fill-rule:nonzero;stroke:none" transform="translate(256.214 52.615)"/><path d="M0 0s-16.91 1.985-19.612-15.661c-2.647-17.284-13.759-135.203-13.759-135.203l31.757-6.404S19.9-103.16 22.769-85.227c2.87 17.934 3.587 41.607 3.587 41.607s21.441-2.751 41.099 4.625c2.559.96 8.283 31.871 8.283 31.871L49.927-1.361-20.272 37.8Z" style="fill:#1a2e35;fill-opacity:1;fill-rule:nonzero;stroke:none" transform="translate(288.67 206.997)"/><path d="m0 0 27.63-30.714 38.388 34.18c-3.49 3.468-29.905-6.853-29.905-6.853L19.217 17.018Z" style="fill:#375a64;fill-opacity:1;fill-rule:nonzero;stroke:none" transform="translate(308.331 194.775)"/><path d="M0 0c-.562-.864-.332-2.157.509-2.754.841-.598 2.157-.375 2.735.481.577.854.348 2.414-.555 2.913C1.787 1.14.255.793-.1-.175" style="fill:#fff;fill-opacity:1;fill-rule:nonzero;stroke:none" transform="translate(331.093 182.482)"/><path d="m0 0-2.974 3.275 38.169 31.459s2.376.763 3.245-.619z" style="fill:#1a2e35;fill-opacity:1;fill-rule:nonzero;stroke:none" transform="translate(336.016 163.994)"/><path d="M0 0c0 .009.067.076.197.199l.577.536L2.99 2.752l8.157 7.344 27.121 24.215-.048-.333c-.433.707-1.519.815-2.467.623a4.747 4.747 0 0 1-.479-.115l.086.047C18.221 20.408 3.505 8.363-2.908 3.196l.011.149L-.754.896l.562-.655C-.065.091 0 .009 0 0c0-.009-.067.055-.197.187L-.78.793l-2.27 2.413-.073.078.084.07c6.297 5.31 20.93 17.455 38.068 31.582l.04.033.046.013c.181.054.356.096.542.13.53.097 1.078.133 1.623.028.541-.093 1.082-.412 1.38-.886l.118-.187-.165-.146L11.207 9.742 2.99 2.556.77.635.195.148C.065.042 0-.009 0 0" style="fill:#375a64;fill-opacity:1;fill-rule:nonzero;stroke:none" transform="translate(336.016 163.994)"/><path d="M0 0c.161-.193-.701-1.112-1.087-2.537-.423-1.414-.175-2.649-.413-2.729-.206-.117-.924 1.253-.427 2.968C-1.445-.577-.113.208 0 0" style="fill:#fff;fill-opacity:1;fill-rule:nonzero;stroke:none" transform="translate(344.893 192.137)"/><path d="M0 0c.205-.144-.323-1.186-.254-2.545.029-1.362.632-2.362.438-2.52-.15-.187-1.257.795-1.311 2.488C-1.196-.886-.163.175 0 0" style="fill:#fff;fill-opacity:1;fill-rule:nonzero;stroke:none" transform="translate(350.401 194.057)"/><path d="M0 0c-.135-.191-1.229.513-1.662 1.968-.443 1.452.08 2.644.298 2.558.243-.059.165-1.117.538-2.306C-.48 1.022.17.184 0 0" style="fill:#fff;fill-opacity:1;fill-rule:nonzero;stroke:none" transform="translate(356.98 191.274)"/><path d="M0 0c.074-.241-1.016-.748-2.012-1.763-1.016-.996-1.524-2.085-1.764-2.011-.23.039-.042 1.449 1.147 2.628C-1.45.043-.039.229 0 0" style="fill:#fff;fill-opacity:1;fill-rule:nonzero;stroke:none" transform="translate(340.526 196.36)"/><path d="M0 0s-15.231 39.921-13.192 66.617c2.038 26.696-.816 39.226 1.63 47.232 2.447 8.006 5.301 11.268 17.126 13.715 11.825 2.446 16.718-4.078 22.019-11.417 5.3-7.34 68.802-80.283 68.802-80.283L71.221 12.931 47.446 35.864s-18.437 1.443-20.679-12.276C24.593 10.283 23.615-.261 23.615-.261Z" style="fill:#1a2e35;fill-opacity:1;fill-rule:nonzero;stroke:none" transform="translate(243.555 169.054)"/><path d="M0 0s.538.012 1.57.01l4.565-.021 17.481-.13-.121-.108c.597 6.173 1.498 13.544 2.801 21.924.164 1.047.322 2.11.564 3.193.296 1.064.662 2.132 1.218 3.131 1.092 2.004 2.792 3.735 4.857 4.959 2.056 1.244 4.411 2.056 6.867 2.546 2.464.48 5.029.692 7.659.559l.069-.003.054-.052 23.795-22.913-.312.004 25.152 22.948-.02-.345a11238.296 11238.296 0 0 0-42.708 49.315l-13.73 16.042-6.667 7.899c-2.184 2.625-4.386 5.221-6.374 7.942-1.971 2.707-3.999 5.367-6.525 7.439-1.272 1.017-2.666 1.858-4.155 2.458-1.492.606-3.085.871-4.668 1.005-3.195.163-6.336-.549-9.379-1.336-3.021-.817-6.006-1.909-8.35-3.855-2.355-1.961-3.647-4.809-4.592-7.624a24.04 24.04 0 0 1-1.055-4.305c-.189-1.46-.3-2.922-.342-4.38-.137-5.833.157-11.519.149-17.013.03-5.496-.096-10.806-.37-15.9-.257-5.099-.782-9.97-.544-14.628.31-9.323 1.798-17.677 3.339-24.921 1.571-7.248 3.278-13.41 4.756-18.417a302.794 302.794 0 0 1 3.644-11.46l1.027-2.954C-.232.685-.146.437-.083.26-.026.092 0 0 0 0s-.147.333-.395.99l-1.076 2.939A262.774 262.774 0 0 0-5.21 15.365c-1.509 5.001-3.247 11.16-4.847 18.412-1.569 7.249-3.087 15.613-3.422 24.973-.25 4.683.266 9.582.511 14.659.262 5.088.379 10.389.339 15.878-.001 5.489-.304 11.161-.175 17.03.04 1.467.15 2.946.341 4.43a24.412 24.412 0 0 0 1.069 4.389c.949 2.84 2.273 5.792 4.726 7.841 2.438 2.025 5.485 3.131 8.533 3.961 3.059.794 6.245 1.524 9.536 1.36 1.63-.134 3.277-.408 4.822-1.034a17.122 17.122 0 0 0 4.289-2.533c2.593-2.125 4.642-4.819 6.621-7.53 1.979-2.706 4.168-5.285 6.356-7.913 2.205-2.611 4.427-5.243 6.667-7.893l13.73-16.039 42.685-49.33.158-.182-.178-.162-25.177-22.92-.158-.145-.154.15-23.754 22.954.122-.055a31.306 31.306 0 0 1-7.554-.536c-2.424-.478-4.741-1.273-6.752-2.484-2.022-1.191-3.675-2.869-4.743-4.813-.543-.97-.902-2.01-1.195-3.047-.239-1.05-.401-2.115-.568-3.162C25.29 13.256 24.361 5.89 23.734-.271l-.011-.111-.11.001L6.08-.124l-4.545.08C.514-.023 0 0 0 0" style="fill:#375a64;fill-opacity:1;fill-rule:nonzero;stroke:none" transform="translate(243.555 169.054)"/><g clip-path="url(#i)" style="opacity:.30000299"><path d="M0 0c-1.601-2.317-5.308-2.126-7.531-.396-2.224 1.729-3.365 4.461-4.536 7.024-1.171 2.561-2.613 5.227-5.116 6.52-2.112-2.32-6.097-1.674-8.513.328-2.415 2.003-3.794 4.952-5.58 7.532-7.745 11.195-22.395 14.767-33.785 22.224-14.908 9.761-24.407 27.289-24.446 45.109 0 0 2.324-15.147 16.3-29.312 13.977-14.166 21.893-17.306 30.179-21.077l24.477-23.201 2.781 2.534z" style="fill:#000;fill-opacity:1;fill-rule:nonzero;stroke:none" transform="translate(333.326 167.234)"/></g><path d="M0 0c-.006-.017-.258.066-.731.241l-2.063.789-1.488.582c-.536.229-1.104.513-1.722.8-1.226.596-2.66 1.204-4.139 2.078l-2.355 1.313c-.815.462-1.616 1.02-2.472 1.557-1.73 1.047-3.444 2.362-5.276 3.704-3.571 2.805-7.29 6.164-10.795 10.068-3.463 3.944-6.358 8.035-8.72 11.914-1.117 1.978-2.219 3.837-3.054 5.679-.432.913-.892 1.774-1.254 2.638l-1.024 2.494c-.693 1.573-1.128 3.068-1.573 4.356-.212.648-.427 1.245-.591 1.805l-.402 1.546-.538 2.142c-.118.49-.171.75-.154.754.018.004.105-.247.256-.729l.632-2.112.443-1.528c.178-.554.406-1.145.629-1.785.471-1.274.927-2.754 1.639-4.31l1.049-2.468c.37-.856.837-1.709 1.275-2.612.847-1.823 1.957-3.662 3.078-5.622 2.371-3.843 5.257-7.898 8.699-11.816 3.482-3.879 7.166-7.225 10.7-10.034 1.813-1.344 3.507-2.666 5.217-3.722.846-.541 1.637-1.106 2.443-1.575l2.326-1.335c1.461-.89 2.876-1.519 4.086-2.136.609-.299 1.169-.595 1.698-.836l1.465-.622L-.693.34C-.233.134.006.017 0 0" style="fill:#375a64;fill-opacity:1;fill-rule:nonzero;stroke:none" transform="translate(291 204.919)"/><path d="M0 0s2.334 3.001 4.668 2.223S21.312-7.812 21.852-10.226c.538-2.414-.4-5.113-2.178-4.779-1.779.333-13.339 9.559-13.339 9.559l-1.556.333s8.853-7.392 8.817-9.921c-.036-2.528-1.592-3.973-3.37-3.528C8.447-18.118-3.668-7.447-3.668-7.447l-.778-.698S5.558-18.34 5.224-20.118c-.333-1.779-3.112-2.223-5.446-1.334-2.335.889-9.004 8.781-9.004 8.781l-.053-3.532 1.499-3.693 3.89-4.335s1.223-3.557-2.335-3.112c-3.556.445-4.38 3.515-5.358 4.369-.977.855-2.644 4.078-2.644 4.078v7.781s.444 2.779 3.445 2.445c0 0 .112 2.668 2.446 3.557 2.334.889 3.445.222 3.445.222S-4.224.333 0 0" style="fill:#d96d68;fill-opacity:1;fill-rule:nonzero;stroke:none" transform="translate(243.03 301.152)"/></g><g clip-path="url(#j)" transform="matrix(1.33333 0 0 -1.33333 0 666.667)"><g clip-path="url(#k)" style="opacity:.30000299"><path d="m0 0-14.516-.155-6.183 56.459-6.545 14.049 1.365 16.683-34.57 8.696 48.281.717L5.53 66.696l29.749 12.656 18.589-5.821 10.094-20.604-10.991-6.598-7.156 8.952-9.389 9.002-9.034-62.212Z" style="fill:#000;fill-opacity:1;fill-rule:nonzero;stroke:none" transform="translate(452.578 72.865)"/></g><path d="M0 0c.658.709 1.604 1.372 2.572 1.692l-.196.012c.181.05.366.071.551.093.709.168 1.413.132 2.009-.248l-.019.001C6.018 1.145 6.988.338 7.519-.714c.923-1.832.581-4.17-.664-5.802-1.081-1.418-2.94-2.347-4.672-1.926-1.592.386-2.773 1.83-3.224 3.404C-1.534-3.314-1.219-1.314 0 0" style="fill:#375a64;fill-opacity:1;fill-rule:nonzero;stroke:none" transform="translate(457.46 348.064)"/><path d="M0 0c-3.064 1.945-3.804 6.457-2.144 9.684 1.661 3.227 5.184 5.187 8.767 5.764 5.186.837 10.731-1.001 14.391-4.768 1.977-2.036 3.579-4.693 6.26-5.626 2.357-.82 4.964-.079 7.439-.4 3.317-.43 6.16-2.788 7.861-5.668 1.701-2.881 2.403-6.239 2.795-9.561.361-3.049.6-6.395 2.714-8.62 2.063-2.169 5.321-2.629 7.887-4.173 4.825-2.903 6.389-10.097 3.205-14.743-1.015-1.481-2.473-2.839-2.591-4.631-.107-1.636.95-3.093 1.445-4.656 1.276-4.024-2.019-8.805-6.233-9.047-2.127-.122-4.407.707-6.315-.244-1.893-.945-2.598-3.229-3.81-4.966-2.384-3.414-7.369-4.702-11.109-2.868-1.564.767-3.041 2.034-4.781 1.917-1.736-.117-3.102-1.599-4.809-1.929-2.236-.433-4.359 1.214-5.688 3.063-1.329 1.848-2.256 4.026-3.957 5.539C9.1-53.951 5.97-53.461 3.15-52.491c-6.221 2.143-11.421 7.081-13.881 13.184-2.46 6.103-2.139 13.267.857 19.125" style="fill:#1a2e35;fill-opacity:1;fill-rule:nonzero;stroke:none" transform="translate(424.39 386.1)"/><path d="m0 0-3.256 59.769a5.075 5.075 0 0 0 4.392 5.273l26.72 7.567c8.594 1.156 14.626-9.294 15.417-17.929.879-9.594 1.574-21.341.638-28.544-1.88-14.484-13.746-16.677-13.746-16.677-.005.049-.088-14.75 0-19.991l3.292-16.247z" style="fill:#ffc19d;fill-opacity:1;fill-rule:nonzero;stroke:none" transform="translate(416.378 313.449)"/><path d="M0 0c.062-.976-.712-1.833-1.729-1.916C-2.745-2-3.621-1.279-3.684-.303c-.061.975.713 1.834 1.729 1.917C-.937 1.698-.062.976 0 0" style="fill:#1a2e35;fill-opacity:1;fill-rule:nonzero;stroke:none" transform="translate(456.696 356.63)"/><path d="M0 0c-.222-.248-1.652.749-3.643.687-1.988-.033-3.419-1.098-3.642-.86-.11.105.112.547.735 1.027.613.479 1.668.958 2.907.988 1.24.028 2.295-.399 2.908-.848C-.109.542.11.111 0 0" style="fill:#1a2e35;fill-opacity:1;fill-rule:nonzero;stroke:none" transform="translate(457.274 361.94)"/><path d="M0 0c.062-.976-.712-1.833-1.729-1.916C-2.745-2-3.621-1.279-3.683-.303c-.062.975.712 1.834 1.729 1.917C-.937 1.698-.062.976 0 0" style="fill:#1a2e35;fill-opacity:1;fill-rule:nonzero;stroke:none" transform="translate(436.45 356.63)"/><path d="M0 0c-.224-.248-1.655.749-3.644.687C-5.632.654-7.063-.411-7.286-.174c-.109.105.11.547.735 1.028.613.479 1.667.958 2.907.988 1.24.028 2.295-.399 2.909-.848C-.112.541.108.111 0 0" style="fill:#1a2e35;fill-opacity:1;fill-rule:nonzero;stroke:none" transform="translate(437.725 361.013)"/><path d="M0 0c-.013.113 1.218.362 3.215.675.507.067.985.181 1.06.531.11.37-.118.911-.381 1.496-.513 1.216-1.049 2.491-1.613 3.826-2.243 5.45-3.883 9.937-3.662 10.025.22.089 2.218-4.257 4.46-9.706.541-1.345 1.059-2.626 1.551-3.852.209-.572.557-1.217.32-1.987-.126-.383-.491-.669-.814-.766-.323-.109-.61-.123-.861-.144C1.262-.068.011-.113 0 0" style="fill:#1a2e35;fill-opacity:1;fill-rule:nonzero;stroke:none" transform="translate(445.366 346.461)"/><path d="M0 0s-8.816-.857-18.591 4.647c0 0 4.175-10.725 18.568-8.966z" style="fill:#ff9c6a;fill-opacity:1;fill-rule:nonzero;stroke:none" transform="translate(446.543 322.908)"/><path d="M0 0c-1.215.389-2.571 1.104-4.065 1.004C-5.103.935-6.104.426-6.644-.495c-.539-.921-.534-2.271.139-3.214.758-1.063 2.147-1.374 3.263-1.07 1.116.304 1.301.946 2.027 1.861C-.739-2.32.035-1.25.165-.937.296-.625.229-.277 0 0" style="fill:#ff9c6a;fill-opacity:1;fill-rule:nonzero;stroke:none" transform="translate(445.18 342.74)"/><path d="M0 0c-.181-.546-2.175-.347-4.501-.694-2.334-.301-4.196-1.038-4.52-.561-.145.228.168.746.915 1.292.74.544 1.929 1.075 3.327 1.271 1.396.193 2.686.007 3.547-.315C-.366.672.077.259 0 0" style="fill:#1a2e35;fill-opacity:1;fill-rule:nonzero;stroke:none" transform="translate(438.37 369.23)"/><path d="M0 0c-.337-.461-1.721-.032-3.37-.056-1.65.033-3.035-.39-3.37.073-.148.226.059.685.657 1.13.589.443 1.584.82 2.719.818 1.133-.004 2.126-.385 2.713-.832C-.056.685.148.225 0 0" style="fill:#1a2e35;fill-opacity:1;fill-rule:nonzero;stroke:none" transform="translate(456.378 368.768)"/><path d="M0 0c-.671 2.161-1.907 4.222-3.803 5.457-1.039.677-2.246 1.089-3.211 1.868-2.083 1.682-2.566 4.61-3.852 6.958-1.658 3.028-4.863 5.153-8.297 5.504-2.858.292-5.801-.565-8.586.137-2.059.519-3.857 1.856-5.943 2.252-4.062.772-7.838-2.143-10.783-5.045-.01-2.908 2.306-4.852 4.536-6.718 2.229-1.866 5.304-2.678 8.165-2.155 2.218.406 4.65 1.528 6.571.345 2.02-1.244 2.103-4.289 3.895-5.844 2.561-2.222 6.632-.137 9.882-1.101C-8.915.914-7.347-1.486-5.68-3.504-4.012-5.523-1.514-7.442.996-6.697.836-4.44.672-2.16 0 0" style="fill:#1a2e35;fill-opacity:1;fill-rule:nonzero;stroke:none" transform="translate(469.372 371.158)"/><path d="M0 0c-1.82.521-5.547 1.7-6.523 3.279-2.122 3.431-5.861 5.773-9.682 5.564-3.821-.209-7.488-3.226-8.271-7.261-4.623-.035-9.133-2.938-11.352-7.308a13.782 13.782 0 0 1-.722-1.695c-1.44-2.533-1.717-5.711-.672-8.436.63-1.645 1.703-3.475.858-5.019-.862-1.572-3.037-1.622-4.733-2.206-2.948-1.016-4.859-4.404-4.203-7.453.236-1.094.759-2.186.53-3.282-.236-1.141-1.212-1.946-1.962-2.837-1.863-2.214-2.439-5.439-1.458-8.161.98-2.723 3.481-4.839 6.328-5.356 1.295-.236 2.699-.181 3.821-.871 1.285-.791 1.848-2.338 2.755-3.545 1.74-2.314 5.014-3.339 7.763-2.431a6.592 6.592 0 0 1 1.559.785c.868-1.204 2.23-2.018 4.558-2.018l-.534 30.403c.289-.64.845-1.217 1.842-1.443 4.879-1.104 5.593 8.952 4.504 11.677 1.765 1.568 3.55 3.157 4.897 5.149 1.346 1.991 2.533 7.421 2.246 9.865C-6.692-2.703.8-.229 0 0" style="fill:#1a2e35;fill-opacity:1;fill-rule:nonzero;stroke:none" transform="translate(438.873 383.447)"/><path d="M0 0c-.154 3.09-3.936 3.751-6.615 2.203-1.47-.85-2.595-2.559-2.46-5.84.36-8.749 9.069-6.583 9.075-6.332.003.156.181 6.35 0 9.969" style="fill:#ffc19d;fill-opacity:1;fill-rule:nonzero;stroke:none" transform="translate(418.276 353.127)"/><path d="M0 0c-.04.026-.148-.113-.4-.242a1.529 1.529 0 0 0-1.139-.07C-2.478-.011-3.316 1.424-3.424 3a5.04 5.04 0 0 0 .337 2.199c.241.651.637 1.115 1.099 1.218a.778.778 0 0 0 .916-.381c.128-.24.079-.417.127-.43.024-.021.181.154.095.513a.974.974 0 0 1-.366.534c-.217.162-.529.236-.852.188-.673-.075-1.254-.72-1.536-1.423a5.157 5.157 0 0 1-.428-2.46c.129-1.76 1.098-3.373 2.379-3.687.622-.135 1.128.072 1.383.29.263.227.301.424.27.439" style="fill:#ff9c6a;fill-opacity:1;fill-rule:nonzero;stroke:none" transform="translate(415.466 346.363)"/><path d="M0 0c.064-.093-.882-.25-1.745-1.461-.867-1.192-1.193-3.477-.645-6.051l.048-.22-.216-.054c-2.164-.539-4.547-2.26-5.636-4.966-.257-.668-.432-1.407-.453-2.134-.004-.741.129-1.517.273-2.312.143-.796.305-1.617.334-2.49.06-.855-.17-1.848-.693-2.582-1.088-1.655-2.838-2.47-4.34-3.261-1.546-.767-2.976-1.551-4.063-2.66-2.216-2.182-3.204-5.001-3.267-7.331a11.406 11.406 0 0 1 1.152-5.407c.581-1.195 1.069-1.764 1.02-1.8-.017-.014-.145.121-.374.393-.217.28-.535.701-.859 1.296a11.113 11.113 0 0 0-1.376 5.529c.009 2.43.995 5.406 3.303 7.723 1.132 1.181 2.658 2.029 4.187 2.796 1.503.79 3.152 1.597 4.098 3.058.97 1.329.536 3.063.281 4.63-.139.799-.278 1.603-.269 2.428a7.09 7.09 0 0 0 .511 2.335c1.205 2.904 3.754 4.671 6.063 5.199l-.168-.274c-.519 2.697-.108 5.063.883 6.304.478.617 1.003.951 1.368 1.115.378.152.575.218.583.197" style="fill:#375a64;fill-opacity:1;fill-rule:nonzero;stroke:none" transform="translate(426.827 385.81)"/><path d="M0 0c.658.709 1.604 1.372 2.572 1.692l-.196.012c.181.05.366.071.551.094.709.167 1.413.131 2.009-.249l-.019.001C6.018 1.146 6.988.338 7.519-.714c.923-1.832.581-4.17-.664-5.802-1.081-1.418-2.94-2.347-4.672-1.926-1.592.386-2.773 1.83-3.224 3.404C-1.534-3.314-1.219-1.313 0 0" style="fill:#375a64;fill-opacity:1;fill-rule:nonzero;stroke:none" transform="translate(411.326 345.016)"/><path d="m0 0-12.298-5.877s-2.937-2.353-2.709-4.731c0 0 1.115 2.17 5.29 1.764 0 0 1.611-.281 2.295-1.708l7.199-2.515z" style="fill:#e1e1e1;fill-opacity:1;fill-rule:nonzero;stroke:none" transform="translate(425.415 364.863)"/><path d="M0 0c0-.641-.52-1.161-1.161-1.161h-8.803c-.64 0-1.16.52-1.16 1.161v6.291c0 .641.52 1.161 1.16 1.161h8.803C-.52 7.452 0 6.932 0 6.291Zm-20.893 0a1.16 1.16 0 0 0-1.161-1.161h-10.192c-.641 0-1.16.52-1.16 1.161v6.291a1.16 1.16 0 0 0 1.16 1.161h10.192a1.16 1.16 0 0 0 1.161-1.161zm-15.461 9.991c-.084-.442-.213-13.067-.213-13.067l16.777-.22s2.844 5.765 3.864 5.826c1.531.092 3.924-5.401 3.924-5.401 1.189 0 14.178-.055 14.178-.055V9.621Z" style="fill:#e1e1e1;fill-opacity:1;fill-rule:nonzero;stroke:none" transform="translate(461.76 354.872)"/><path d="M0 0h-9.947c-.709 0-1.283.575-1.283 1.284v6.044c0 .71.574 1.284 1.283 1.284H0c.709 0 1.283-.574 1.283-1.284V1.284C1.283.575.709 0 0 0" style="fill:#375a64;fill-opacity:1;fill-rule:nonzero;stroke:none" transform="translate(439.584 353.712)"/><path d="M0 0h-8.557C-9.266 0-9.84.575-9.84 1.284v6.044c0 .71.574 1.284 1.283 1.284H0c.709 0 1.284-.574 1.284-1.284V1.284C1.284.575.709 0 0 0" style="fill:#ff735d;fill-opacity:1;fill-rule:nonzero;stroke:none" transform="translate(460.475 353.712)"/><path d="M0 0c-.145 0-.261 2.916-.261 6.512 0 3.597.116 6.512.261 6.512.144 0 .26-2.915.26-6.512C.26 2.916.144 0 0 0" style="fill:#1a2e35;fill-opacity:1;fill-rule:nonzero;stroke:none" transform="translate(425.486 351.676)"/><path d="M0 0c.101-.103-1.393-1.723-3.333-3.617-1.942-1.895-3.598-3.347-3.698-3.244-.1.103 1.392 1.722 3.334 3.617C-1.756-1.35-.101.103 0 0" style="fill:#fff;fill-opacity:1;fill-rule:nonzero;stroke:none" transform="translate(439.472 360.914)"/><path d="M0 0c.1-.104-1.02-1.342-2.498-2.766-1.481-1.424-2.761-2.494-2.86-2.391-.1.104 1.019 1.342 2.499 2.766C-1.38-.967-.1.104 0 0" style="fill:#fff;fill-opacity:1;fill-rule:nonzero;stroke:none" transform="translate(437.133 361.376)"/><path d="M0 0c.107-.096-.605-1.068-1.592-2.17-.986-1.103-1.873-1.919-1.98-1.823-.107.096.605 1.067 1.593 2.17C-.993-.72-.107.096 0 0" style="fill:#fff;fill-opacity:1;fill-rule:nonzero;stroke:none" transform="translate(456.459 359.264)"/><path d="M0 0c.118-.072-.785-1.707-2.261-3.462-1.469-1.761-2.92-2.936-3.012-2.834-.102.109 1.168 1.436 2.614 3.168C-1.208-1.402-.125.082 0 0" style="fill:#fff;fill-opacity:1;fill-rule:nonzero;stroke:none" transform="translate(459.966 361.478)"/><path d="M0 0c.018-.021-.122-.196-.474-.389A2.879 2.879 0 0 0-2.128-.67c-.704.082-1.601.433-2.155 1.279-.55.834-.624 2.042-.12 3.059.242.513.637.94 1.099 1.226a3.38 3.38 0 0 0 1.448.453c.972.098 1.79-.227 2.431-.389 1.329-.338 2.12-.715 2.082-.791-.027-.054-.82.187-2.167.433-.682.127-1.448.385-2.298.269-.844-.078-1.72-.547-2.128-1.43-.427-.858-.373-1.882.058-2.572C-3.449.16-2.696-.19-2.074-.306-.763-.533-.033.092 0 0" style="fill:#1a2e35;fill-opacity:1;fill-rule:nonzero;stroke:none" transform="translate(442.522 338.573)"/><path d="M0 0s6.179 52.817 6.609 53.248c.431.43-15.551 45.704-15.551 45.704l-20.38 3.796s.606-9.052-10.564-9.738c-13.713-.841-19.859 9.759-19.859 9.759l-24.547-6.966 11.061-79.482-9.052-13.717-5.146-23.547z" style="fill:#e1e1e1;fill-opacity:1;fill-rule:nonzero;stroke:none" transform="translate(475.841 215.841)"/><path d="M0 0c1.828 0 16.145-4.004 19.839-12.526 3.222-7.431 9.91-27.269 9.91-27.269s8.848-30.771 8.861-36.217c.015-6.284.222-21.651-18.655-14.969L9.567-82.02l.686 49.49z" style="fill:#ffc19d;fill-opacity:1;fill-rule:nonzero;stroke:none" transform="translate(467.1 314.222)"/><path d="M0 0s-3.447 3.293-9.038 9.117c-6.701 6.982-18.664 17.99-18.664 17.99l-6.477-7.001s4.758-9.492 6.246-11.89c3.78-6.091 3.315-9.34 8.873-17.746 5.691-8.607 13.248-14.655 13.248-14.655z" style="fill:#ffc19d;fill-opacity:1;fill-rule:nonzero;stroke:none" transform="translate(497.854 246.074)"/><path d="M0 0c-.814-1.074-2.392-1.489-3.629-.954-1.237.535-2.017 1.968-1.792 3.297-.193-.223-.57-.197-.801-.014-.231.183-.345.476-.418.762-.221.881-.128 1.855.341 2.632.469.778 1.331 1.328 2.239 1.338.909.008 1.817-.571 2.114-1.429 0 0 1.069 1.645 2.309-.163C1.604 3.662.616.928.616.928Z" style="fill:#fff;fill-opacity:1;fill-rule:nonzero;stroke:none" transform="translate(441.511 274.74)"/><path d="m0 0-6.067 9.362s.019 2.666-2.362 4.189c0 0-.856 3.713-4.189 3.238-3.332-.477-9.711-.762-9.711-.762s-8.094-4.38-9.236-6.189c-1.143-1.809-1.143-2.666-.381-3.333.761-.666 2.381-.666 2.381-.666s-1.81-1.904-1.143-2.857c.666-.952 3.999.096 3.999.096s-1.238-2.19 0-3.428c1.237-1.237 3.999-.571 3.999-.571s1.714-2.666 3.332-2.952c1.618-.285 3.018.572 3.018.572l1.076 1.507 3.523-.65s.952-2.854 1.714-4.188c.762-1.335 5.808-3.62 5.808-3.62z" style="fill:#ffc19d;fill-opacity:1;fill-rule:nonzero;stroke:none" transform="translate(471.758 271.381)"/><path d="M0 0c-.051.042.326.651 1.057 1.558.73.879 1.869 2.152 3.622 2.792 1.762.577 3.389.437 4.509.593 1.132.107 1.793.367 1.827.291.031-.052-.612-.448-1.775-.655-1.145-.25-2.784-.186-4.387-.72-1.596-.578-2.731-1.737-3.521-2.546C.543.483.061-.049 0 0" style="fill:#ff9c6a;fill-opacity:1;fill-rule:nonzero;stroke:none" transform="translate(451.367 270.434)"/><path d="M0 0c-.043.058.698.736 1.928 1.783 1.228 1.053 2.953 2.449 4.863 4.016.48.397 1.003.783 1.599.982.584.214 1.179.275 1.728.278 1.105-.005 2.051-.194 2.846-.255 1.598-.188 2.531.212 2.561.131.046-.046-.919-.598-2.584-.498-.818.016-1.779.165-2.815.142a4.361 4.361 0 0 1-3.002-1.181 172.728 172.728 0 0 0-4.972-3.907C.861.515.042-.058 0 0" style="fill:#ff9c6a;fill-opacity:1;fill-rule:nonzero;stroke:none" transform="translate(445.061 273.274)"/><path d="M0 0c-.001-.075-1.15-.086-2.981.072C-4.792.198-7.38.49-9.932-.606c-2.551-1.057-4.442-2.801-5.76-4.048-1.316-1.272-2.109-2.092-2.167-2.038-.047.044.645.947 1.905 2.297 1.263 1.322 3.158 3.163 5.825 4.27a10.49 10.49 0 0 0 3.94.796c1.237.018 2.333-.12 3.245-.232C-1.123.187 0 .069 0 0" style="fill:#ff9c6a;fill-opacity:1;fill-rule:nonzero;stroke:none" transform="translate(459.986 284.018)"/><path d="M0 0c.808 1.576 2.48 2.672 4.248 2.784-.797 1.721.757 4.025 2.65 3.93 1.895-.094 3.211-2.541 2.248-4.174.914.694 2.242.79 3.247.234 1.003-.556 1.628-1.732 1.526-2.875.869 1.312 2.732 1.854 4.17 1.212-.434 1.406.497 3.08 1.92 3.453 1.424.373 3.055-.628 3.368-2.066 1.367.53 3.052-.874 2.776-2.315 1.503 1.21 3.798 1.316 5.407.25.37 2.091 2.773 3.567 4.805 2.95 2.032-.617 3.21-3.181 2.354-5.124l2.188 1.262" style="fill:#fff;fill-opacity:1;fill-rule:nonzero;stroke:none" transform="translate(411.709 270.853)"/><path d="M0 0c-.232-.882-6.869-57.061-6.869-57.061h-42.798L-53.459-.882z" style="fill:#ff735d;fill-opacity:1;fill-rule:nonzero;stroke:none" transform="translate(463.217 267.572)"/><path d="m0 0 2.293-42.175 3.344 2.607L4.889 0Z" style="fill:#fff;fill-opacity:1;fill-rule:nonzero;stroke:none" transform="translate(414.866 266.69)"/><path d="m0 0 2.292-42.175 3.344 2.607L4.889 0Z" style="fill:#fff;fill-opacity:1;fill-rule:nonzero;stroke:none" transform="translate(423.727 266.69)"/><path d="m0 0 2.292-42.175 3.344 2.607L4.888 0Z" style="fill:#fff;fill-opacity:1;fill-rule:nonzero;stroke:none" transform="translate(433.622 266.52)"/><path d="m0 0 2.292-42.175 3.344 2.607L4.888 0Z" style="fill:#fff;fill-opacity:1;fill-rule:nonzero;stroke:none" transform="translate(443.44 266.52)"/><path d="m0 0-.015-42.175 3.344 2.607L4.994 0Z" style="fill:#fff;fill-opacity:1;fill-rule:nonzero;stroke:none" transform="translate(452.616 266.69)"/><path d="M0 0h54.238a1.864 1.864 0 1 1 0 3.728H0A1.864 1.864 0 0 1 0 0" style="fill:#ff735d;fill-opacity:1;fill-rule:nonzero;stroke:none" transform="translate(409.32 266.69)"/><path d="M0 0s-.106-.025-.312.001a1.801 1.801 0 0 0-.855.345 1.917 1.917 0 0 0-.759 1.284c-.092.595.14 1.376.805 1.847.324.233.753.373 1.193.363a1663.75 1663.75 0 0 0 4.337.033l7.338.039 42.488.076c1.213.035 2.26-1.123 2.119-2.31a2.113 2.113 0 0 0-.812-1.489c-.439-.371-1.102-.484-1.592-.448l-5.968.004-11.281.015L17.6-.185c-5.411.036-9.801.064-12.878.083l-3.501.049-.91.026C.105-.018 0-.009 0 0c0 .009.105.018.311.026l.91.026 3.501.049L17.6.184 36.701.24l11.281.015 5.968.004c.955-.121 1.816.552 1.885 1.464.106.897-.683 1.77-1.6 1.744l-42.488.076-7.338.039-3.01.022c-.92-.034-1.811.164-2.404-.293a1.784 1.784 0 0 1-.767-1.663c.061-.563.369-.98.669-1.219C-.468-.049.018.044 0 0" style="fill:#1a2e35;fill-opacity:1;fill-rule:nonzero;stroke:none" transform="translate(409.32 266.69)"/><path d="M0 0s-1.436-2.668-2.691-3.434c-1.256-.765-6.908-5.699-6.908-5.699l-5.023-9.778s-2.152-8.253-2.152-8.522c0-.269 2.242-6.638 4.036-7.356 1.794-.718 10.764-1.884 10.764-1.884h13.187l4.485 2.692s-.718 2.421-3.05 1.525c-2.332-.898-4.305-.808-4.305-.808l-5.024.628-1.435.718 8.522.628s10.765 2.78 11.123 3.768c.36.986-.717 1.704-1.256 2.063-.538.358-7.265-.808-8.701-.987-1.435-.18-8.343.358-8.343.358l8.164.898s11.572 1.794 10.854 3.767c-.718 1.974-1.256 1.704-4.126 1.884-2.871.18-7.625-1.076-7.625-1.076l-8.612.179 15.876 2.871s2.922.357 2.967 2.189c.044 1.847-2.226 2.459-5.006 2.101-2.782-.359-18.861-1.958-18.861-1.958l-1.345.897 1.077 3.588S-.358-8.416.808-6.532C1.974-4.648 2.691-2.405 1.974-.97 1.256.465 0 0 0 0" style="fill:#ffc19d;fill-opacity:1;fill-rule:nonzero;stroke:none" transform="translate(417.003 258.92)"/><path d="M0 0s-9.94-1.455-12.364-15.273c-2.425-13.819-1.212-71.519 1.454-75.883 2.667-4.364 24.504 2.562 24.504 2.562L9.696-73.899l-2.524 51.11z" style="fill:#ffc19d;fill-opacity:1;fill-rule:nonzero;stroke:none" transform="translate(393.278 312.095)"/><path d="M0 0c-.069-.153-3.075 1.426-7.133 2.181-4.052.792-7.427.429-7.435.597-.007.063.825.235 2.195.304 1.368.071 3.275.001 5.338-.391 2.06-.395 3.86-1.032 5.106-1.601C-.681.521.03.055 0 0" style="fill:#ff9c6a;fill-opacity:1;fill-rule:nonzero;stroke:none" transform="translate(402.329 238.885)"/><path d="M0 0c.166-.089-2.137-3.628-3.623-8.54-.752-2.447-1.179-4.736-1.485-6.394-.302-1.658-.49-2.688-.565-2.677-.067.008-.009 1.053.201 2.734.214 1.678.587 4.003 1.351 6.489a31.025 31.025 0 0 0 2.603 6.1C-.676-.812-.052.033 0 0" style="fill:#ff9c6a;fill-opacity:1;fill-rule:nonzero;stroke:none" transform="translate(406.248 247.535)"/><path d="M0 0c.144.014.733-4.961 1.317-11.109.584-6.15.942-11.145.799-11.159-.143-.014-.733 4.959-1.317 11.11C.215-5.01-.143-.014 0 0" style="fill:#1a2e35;fill-opacity:1;fill-rule:nonzero;stroke:none" transform="translate(399.1 299.576)"/><path d="M0 0c-.028-.022-.393.367-1.026 1.09-.629.726-1.552 1.767-2.704 3.041-2.299 2.552-5.583 5.978-9.33 9.646l-9.678 9.318a192.08 192.08 0 0 0-2.908 2.854c-.676.684-1.04 1.074-1.014 1.101.024.026.434-.315 1.154-.954l3.021-2.732c2.536-2.323 6.034-5.541 9.791-9.216 3.753-3.674 7.006-7.152 9.24-9.773 1.12-1.309 2.002-2.389 2.585-3.156C-.283.455.027.022 0 0" style="fill:#ff9c6a;fill-opacity:1;fill-rule:nonzero;stroke:none" transform="translate(496.812 246.131)"/><path d="M0 0c-.104.016.265 1.96.306 5.132.051 1.585-.079 3.472-.269 5.557a69.04 69.04 0 0 1-1.126 6.725c-1.059 4.728-2.458 8.899-3.541 11.888-.54 1.495-.996 2.7-1.313 3.531-.316.833-.475 1.301-.442 1.315.033.014.255-.427.628-1.237.376-.809.885-1.995 1.471-3.479 1.175-2.964 2.639-7.14 3.705-11.906a61.856 61.856 0 0 0 1.096-6.788C.68 8.629.772 6.722.674 5.122c-.012-.8-.09-1.52-.156-2.152a13.915 13.915 0 0 0-.22-1.614C.14.476.035-.006 0 0" style="fill:#1a2e35;fill-opacity:1;fill-rule:nonzero;stroke:none" transform="translate(477.158 267.572)"/><path d="m0 0 1.247-42.415 52.779 1.281C53.596-36.1 26.044-26.64 26.044-26.64L26.36.569Z" style="fill:#ff735d;fill-opacity:1;fill-rule:nonzero;stroke:none" transform="translate(452.462 76.72)"/><path d="M0 0c-1.016-.305-1.693-1.47-1.431-2.496S.01-4.223 1.03-3.937c1.02.287 1.877 1.662 1.501 2.652C2.156-.295.727.451-.195-.071" style="fill:#fff;fill-opacity:1;fill-rule:nonzero;stroke:none" transform="translate(462.132 51.971)"/><path d="m0 0-.154 4.542 50.8-.705S53.154 3.1 53.141.322z" style="fill:#1a2e35;fill-opacity:1;fill-rule:nonzero;stroke:none" transform="translate(453.708 34.215)"/><path d="M0 0c-.003-.259-1.288-.406-2.536-1.266-1.271-.827-1.898-1.959-2.137-1.863-.239.045.108 1.595 1.637 2.608C-1.516.507.05.237 0 0" style="fill:#fff;fill-opacity:1;fill-rule:nonzero;stroke:none" transform="translate(479.356 50.37)"/><path d="M0 0c.065-.248-1.04-.714-1.889-1.825-.882-1.086-1.074-2.271-1.331-2.266-.241-.046-.456 1.459.625 2.821C-1.524.101-.011.245 0 0" style="fill:#fff;fill-opacity:1;fill-rule:nonzero;stroke:none" transform="translate(484.947 48.215)"/><path d="M0 0c-.232-.061-.622 1.219.005 2.646.618 1.433 1.819 2.019 1.933 1.807.152-.209-.613-.985-1.11-2.165C.304 1.121.256.032 0 0" style="fill:#fff;fill-opacity:1;fill-rule:nonzero;stroke:none" transform="translate(488.252 41.665)"/><path d="M0 0c-.103-.238-1.294.089-2.748-.045-1.457-.105-2.579-.621-2.718-.404-.154.183.93 1.164 2.645 1.298C-1.107.996.121.205 0 0" style="fill:#fff;fill-opacity:1;fill-rule:nonzero;stroke:none" transform="translate(478.74 56.579)"/><path d="m0 0 21.543-35.252L65.538-8.674c-2.797 4.047-30.654-1.264-30.654-1.264L22.008 13.213Z" style="fill:#ff735d;fill-opacity:1;fill-rule:nonzero;stroke:none" transform="translate(495.012 156.101)"/><path d="M0 0c-.711-.747-.721-2.06-.003-2.801.717-.741 2.052-.762 2.775-.028.724.734.785 2.31-.011 2.967C1.965.793.396.733-.13-.153" style="fill:#fff;fill-opacity:1;fill-rule:nonzero;stroke:none" transform="translate(515.14 139.85)"/><path d="m0 0-2.323 3.765 43.28 23.942s2.476.315 3.078-1.202z" style="fill:#1a2e35;fill-opacity:1;fill-rule:nonzero;stroke:none" transform="translate(516.596 120.773)"/><path d="M0 0c.122-.22-.893-.966-1.533-2.295-.674-1.312-.656-2.572-.906-2.606-.223-.078-.679 1.399.125 2.995C-1.526-.303-.073.226 0 0" style="fill:#fff;fill-opacity:1;fill-rule:nonzero;stroke:none" transform="translate(530.474 146.817)"/><path d="M0 0c.176-.179-.534-1.105-.715-2.455-.221-1.344.189-2.438-.03-2.558C-.927-5.169-1.836-4-1.579-2.326-1.337-.651-.128.202 0 0" style="fill:#fff;fill-opacity:1;fill-rule:nonzero;stroke:none" transform="translate(536.24 147.696)"/><path d="M0 0c-.167-.164-1.114.729-1.273 2.239-.17 1.509.562 2.585.761 2.461.228-.103-.043-1.129.107-2.366C-.285 1.094.201.15 0 0" style="fill:#fff;fill-opacity:1;fill-rule:nonzero;stroke:none" transform="translate(542.198 143.756)"/><path d="M0 0c.028-.251-1.136-.55-2.301-1.365-1.18-.793-1.88-1.772-2.102-1.655-.218.081.223 1.433 1.608 2.374C-1.417.307.004.232 0 0" style="fill:#fff;fill-opacity:1;fill-rule:nonzero;stroke:none" transform="translate(526.954 151.768)"/><path d="M0 0s-7.928-22.316 2.745-31.821h43.763S49.529.48 64.562 3.646l45.387-63.159 29.274 19.78S104.15 30.082 99.821 38.239c-5.013 9.447-13.212 13.013-23.497 11.43-10.285-1.582-23.827-8.438-32.437-14.24C25.689 23.165 0 0 0 0" style="fill:#1a2e35;fill-opacity:1;fill-rule:nonzero;stroke:none" transform="translate(388.6 200.419)"/><g clip-path="url(#l)" style="opacity:.30000299"><path d="m0 0 25.866 1.404.033 2.873-26.021-.126Z" style="fill:#000;fill-opacity:1;fill-rule:nonzero;stroke:none" transform="translate(452.824 64.5)"/></g><g clip-path="url(#m)" style="opacity:.30000299"><path d="m0 0 20.794 13.847-1.926 3.462L-1.973 3.228Z" style="fill:#000;fill-opacity:1;fill-rule:nonzero;stroke:none" transform="translate(504.59 140.428)"/></g><path d="M0 0h5.143s-2.77-13.45 0-16.219c2.768-2.769 5.142-11.472 5.142-11.472l5.917-72.472 36.682.43 5.663 97.754s2.768 25.319-10.682 36c-13.449 10.68-22.9 5.142-28.877 1.977-5.977-3.164-11.882-5.325-15.295-19.695Z" style="fill:#1a2e35;fill-opacity:1;fill-rule:nonzero;stroke:none" transform="translate(433.277 168.597)"/><path d="M0 0c-.009.001-.005.126.012.368l.085 1.074c.089.943.201 2.335.336 4.128.263 3.585.547 8.784.517 15.211A188.217 188.217 0 0 1-.538 43.289c-.562 4.207-1.144 8.644-2.384 13.079-.626 2.213-1.442 4.416-2.536 6.516-1.109 2.085-2.526 4.057-4.3 5.707a19.487 19.487 0 0 1-6.06 3.756 22.947 22.947 0 0 1-6.799 1.444c-4.586.282-9.017-.867-12.728-2.851-3.734-1.974-6.791-4.694-9.197-7.573-2.415-2.887-4.186-5.947-5.512-8.859-2.62-5.864-3.579-11.037-4.168-14.566-.288-1.773-.443-3.16-.562-4.099l-.124-1.07c-.031-.241-.052-.364-.061-.363-.009.001-.007.125.007.367l.073 1.077c.086.943.209 2.336.467 4.119.529 3.547 1.434 8.753 4.032 14.685 1.316 2.946 3.086 6.052 5.516 8.986 2.422 2.925 5.51 5.699 9.304 7.72 3.768 2.03 8.299 3.219 12.981 2.937a23.413 23.413 0 0 0 6.958-1.471 19.983 19.983 0 0 0 6.228-3.857C-7.58 67.277-6.13 65.254-5 63.125c1.114-2.142 1.939-4.379 2.569-6.618 1.247-4.49 1.82-8.941 2.369-13.157a182.346 182.346 0 0 0 1.38-22.568C1.301 14.342.96 9.138.635 5.554A122.418 122.418 0 0 0 .064.362C.031.122.01-.001 0 0" style="fill:#375a64;fill-opacity:1;fill-rule:nonzero;stroke:none" transform="translate(489.048 134.48)"/><path d="M0 0c.066-.06-.988-1.246-2.512-3.297a54.545 54.545 0 0 1-5.172-8.506 54.602 54.602 0 0 1-3.495-9.323c-.671-2.464-.952-4.026-1.04-4.012-.035.007.003.402.104 1.115.093.712.287 1.736.58 2.989.581 2.505 1.666 5.916 3.383 9.459 1.724 3.538 3.737 6.498 5.348 8.503C-2-2.068-1.315-1.283-.812-.77c.499.519.786.794.812.77" style="fill:#375a64;fill-opacity:1;fill-rule:nonzero;stroke:none" transform="translate(450.69 193.532)"/></g></svg>