<?xml version="1.0" standalone="no"?>
<!DOCTYPE svg PUBLIC "-//W3C//DTD SVG 20010904//EN"
 "http://www.w3.org/TR/2001/REC-SVG-20010904/DTD/svg10.dtd">
<svg version="1.0" xmlns="http://www.w3.org/2000/svg"
 width="300.000000pt" height="300.000000pt" viewBox="0 0 300.000000 300.000000"
 preserveAspectRatio="xMidYMid meet">

<g transform="translate(0.000000,300.000000) scale(0.100000,-0.100000)"
fill="#000000" stroke="none">
<path d="M0 1500 l0 -1500 1500 0 1500 0 0 1500 0 1500 -1500 0 -1500 0 0
-1500z m1253 1108 c12 -6 45 -15 72 -19 40 -5 55 -3 74 12 37 29 102 20 124
-17 5 -9 18 -11 36 -8 32 7 69 -9 89 -38 18 -25 26 -23 45 16 11 24 27 38 52
46 50 17 90 -1 116 -51 19 -38 20 -38 62 -33 37 5 47 2 75 -21 26 -22 32 -34
32 -68 0 -23 7 -51 15 -61 8 -11 15 -28 15 -39 0 -10 11 -32 25 -49 29 -34 32
-75 10 -118 -17 -33 -37 -41 -91 -39 -43 2 -119 -24 -147 -49 -26 -24 -82 -20
-111 7 -34 32 -72 33 -114 5 -44 -30 -60 -30 -106 1 -26 18 -44 23 -65 19 -17
-4 -41 1 -61 11 -18 9 -42 14 -54 12 -11 -3 -30 -2 -41 2 -13 5 -30 1 -50 -11
-16 -10 -41 -18 -54 -18 -14 0 -35 -10 -47 -21 -16 -15 -36 -22 -66 -22 -34 0
-47 6 -68 30 -31 37 -70 48 -96 28 -39 -30 -113 -12 -133 32 -24 52 -5 104 45
128 19 9 34 23 34 31 0 8 11 26 24 39 22 22 24 29 14 55 -27 78 70 153 138
106 11 -8 31 -12 47 -9 22 4 27 11 27 35 0 19 10 40 29 59 32 31 67 37 104 17z
m120 -529 c12 -7 17 -22 17 -58 0 -47 -1 -48 -39 -59 -21 -7 -41 -12 -45 -12
-3 0 -6 31 -6 69 0 68 0 69 28 69 15 0 35 -4 45 -9z m-389 -16 c11 -34 26
-158 24 -203 l-1 -45 -7 35 -7 35 -2 -37 c-1 -50 -11 -74 -22 -56 -5 7 -9 18
-9 23 0 6 5 3 10 -5 8 -12 10 -12 10 5 0 11 -5 27 -10 35 -8 13 -10 13 -10 0
0 -12 -3 -12 -16 2 -15 15 -42 130 -43 184 -1 36 73 60 83 27z m1001 -50 c-7
-38 -20 -94 -28 -126 -8 -31 -13 -67 -11 -80 2 -12 -2 -6 -10 13 l-14 35 -3
-30 c-1 -24 -3 -26 -6 -7 -2 12 -9 22 -15 22 -6 0 -8 -11 -6 -25 3 -13 2 -22
-3 -20 -4 3 -9 -3 -11 -12 -2 -10 -4 8 -4 39 1 32 3 58 6 58 3 0 6 34 7 76 2
83 6 92 55 110 57 20 57 20 43 -53z m-224 9 l25 -10 -9 -83 c-6 -46 -11 -86
-13 -88 -10 -11 -34 24 -29 43 5 19 5 19 -5 3 -9 -14 -7 -23 9 -44 12 -14 21
-33 20 -42 0 -13 -2 -13 -6 -1 -4 8 -19 28 -35 45 -24 26 -28 38 -28 91 0 34
3 76 6 93 6 28 8 30 23 17 9 -8 28 -19 42 -24z m-562 -100 c1 -51 -19 -81 -39
-57 -7 8 -18 15 -24 15 -8 0 -8 -2 1 -8 14 -9 18 -32 9 -54 -8 -18 -26 -15
-26 3 0 6 5 7 10 4 13 -8 13 -4 -4 31 -8 16 -16 56 -20 89 l-6 60 43 20 42 20
7 -40 c3 -22 7 -59 7 -83z m359 103 c29 -6 32 -10 32 -41 0 -29 -3 -34 -17
-30 -10 3 -30 8 -45 12 -25 5 -28 11 -28 46 0 31 3 38 13 30 6 -5 27 -13 45
-17z m-7 -112 c28 -10 49 -24 49 -32 0 -8 3 -12 6 -8 9 9 36 -21 29 -33 -3 -6
1 -7 9 -4 9 4 16 1 16 -6 0 -8 -9 -10 -25 -6 -24 6 -35 -7 -15 -17 6 -3 5 -4
-2 -3 -7 2 -12 13 -11 25 4 29 -5 26 -19 -6 l-11 -28 -7 30 c-7 30 -13 25 -23
-20 -4 -18 -5 -18 -6 2 -1 27 -54 80 -84 85 -12 2 -35 -2 -50 -9 -15 -8 -32
-11 -36 -8 -5 3 -7 -4 -4 -14 4 -17 -1 -20 -43 -23 -39 -2 -49 -6 -48 -20 1
-10 -2 -15 -8 -12 -5 3 -15 0 -23 -6 -24 -20 -17 1 7 21 11 11 18 22 15 26 -4
3 -16 -2 -27 -12 -11 -10 -20 -13 -20 -7 0 13 69 62 88 62 7 0 11 4 8 9 -3 4
14 14 37 21 23 7 47 14 52 16 19 7 97 -6 146 -23z m135 -105 c4 -7 3 -8 -4 -4
-7 4 -12 2 -12 -3 0 -6 -5 -11 -11 -11 -8 0 -8 5 1 15 15 18 17 18 26 3z
m-393 -25 c-7 -2 -19 -2 -25 0 -7 3 -2 5 12 5 14 0 19 -2 13 -5z m292 -3 c-27
-12 -43 -12 -25 0 8 5 22 9 30 9 10 0 8 -3 -5 -9z m116 -27 c-12 -20 -14 -14
-5 12 4 9 9 14 11 11 3 -2 0 -13 -6 -23z m-537 -799 c10 -4 16 -18 16 -40 0
-42 -17 -44 -31 -4 -9 25 -16 30 -45 30 l-34 0 0 -55 0 -55 43 -2 42 -1 -42
-4 -43 -4 0 -48 c0 -40 4 -50 23 -59 19 -9 13 -11 -35 -11 -33 -1 -58 3 -58 9
0 6 7 10 15 10 12 0 15 18 15 105 0 85 -3 107 -15 111 -8 4 -15 10 -15 15 0
10 139 12 164 3z m150 -3 c3 -5 -3 -11 -14 -14 -18 -5 -20 -14 -20 -110 0 -98
1 -105 23 -115 18 -9 11 -11 -43 -11 -54 0 -61 2 -42 11 21 10 22 17 22 115 0
96 -2 105 -20 110 -35 9 -11 23 40 23 27 0 51 -4 54 -9z m146 0 c0 -5 -7 -11
-15 -15 -23 -8 -22 -211 1 -220 32 -12 56 -5 85 26 26 29 29 30 29 11 0 -50
-6 -53 -114 -52 -80 0 -96 3 -78 11 21 10 22 17 22 115 0 96 -2 105 -20 110
-11 3 -18 9 -15 13 6 11 105 12 105 1z m205 -11 c6 -5 26 -44 45 -87 18 -43
36 -81 40 -85 3 -5 24 36 46 90 40 97 40 97 77 99 20 1 37 -2 37 -7 0 -6 -7
-10 -15 -10 -12 0 -15 -18 -15 -106 0 -90 3 -109 18 -120 15 -12 9 -13 -42
-14 l-60 0 22 20 c19 18 22 31 22 102 0 45 -3 79 -6 76 -3 -4 -23 -48 -44 -99
-21 -52 -42 -95 -47 -96 -5 -2 -29 43 -53 99 l-45 103 -3 -85 c-3 -77 -1 -87
19 -102 21 -18 20 -18 -27 -18 -43 1 -47 2 -31 14 14 11 17 30 17 120 0 88 -3
106 -15 106 -8 0 -15 5 -15 11 0 13 56 5 75 -11z m-775 -415 c10 -12 10 -18 0
-30 -16 -20 -30 -10 -23 16 5 18 2 20 -23 17 -57 -6 -70 -91 -19 -124 23 -15
27 -15 50 0 14 9 25 12 25 7 0 -14 -34 -31 -62 -31 -68 1 -97 105 -41 148 23
17 78 15 93 -3z m160 -5 c47 -47 10 -140 -56 -140 -35 0 -74 42 -74 80 0 66
85 105 130 60z m102 8 c-11 -11 -18 -128 -8 -128 2 0 11 -3 19 -6 8 -3 22 2
31 12 19 18 32 13 23 -11 -5 -11 -21 -15 -62 -15 -52 0 -55 1 -45 19 17 33 13
118 -7 130 -15 8 -10 10 22 11 30 0 36 -3 27 -12z m141 5 c-16 -6 -18 -133 -3
-133 6 0 10 -5 10 -11 0 -6 -12 -9 -27 -7 -19 2 -27 8 -24 18 2 8 6 37 9 64 4
40 1 52 -13 63 -17 12 -15 13 21 12 21 0 33 -3 27 -6z m197 -13 c0 -23 -15
-27 -24 -5 -3 8 -15 15 -26 15 -16 0 -20 -7 -20 -30 0 -24 4 -30 23 -31 l22
-2 -22 -4 c-28 -5 -32 -49 -5 -69 15 -12 13 -13 -18 -14 l-36 0 4 71 c3 53 1
74 -9 80 -9 5 9 9 49 9 55 0 62 -2 62 -20z m154 -3 c8 -14 8 -20 -4 -27 -12
-7 -16 -4 -18 15 -3 19 -9 25 -27 25 -29 0 -45 -26 -45 -74 0 -44 36 -74 69
-57 29 16 39 13 17 -4 -72 -55 -160 63 -94 125 28 26 85 24 102 -3z m155 -4
l0 -28 -16 23 c-27 39 -35 26 -31 -53 3 -70 2 -75 -17 -75 -19 0 -20 5 -17 75
4 64 2 75 -12 75 -9 0 -21 -10 -26 -22 -8 -22 -9 -22 -9 5 -1 27 0 27 64 27
64 0 65 0 64 -27z m73 15 c-15 -15 -16 -120 -2 -134 8 -8 2 -11 -20 -12 -29
-1 -40 11 -20 23 14 9 12 109 -2 123 -9 9 -4 12 22 12 26 0 31 -3 22 -12z
m148 2 c25 -13 41 -65 30 -94 -11 -30 -47 -56 -78 -56 -33 0 -72 43 -72 80 0
59 67 98 120 70z m134 -42 l46 -53 0 47 c0 28 -5 48 -12 51 -7 3 0 6 17 6 22
1 26 -2 17 -11 -7 -7 -12 -39 -12 -75 0 -35 -3 -63 -7 -63 -5 0 -26 25 -47 55
-22 30 -42 55 -44 55 -2 0 -2 -27 0 -60 4 -53 2 -60 -14 -60 -10 0 -18 5 -18
10 0 6 5 10 10 10 14 0 12 114 -2 128 -9 9 -8 12 4 12 9 0 37 -24 62 -52z
m-798 -84 c-3 -9 -6 -18 -6 -20 0 -2 -10 -4 -22 -4 -21 0 -21 0 -2 19 23 24
38 27 30 5z m137 -4 c-3 -11 -12 -20 -19 -20 -17 0 -18 7 -1 25 17 20 26 18
20 -5z"/>
<path d="M1160 2578 c-27 -29 -27 -68 1 -68 26 0 79 -52 79 -78 0 -24 25 -48
35 -32 3 5 24 10 45 10 30 0 43 -6 64 -31 26 -30 35 -79 16 -79 -5 0 -10 5
-10 10 0 36 -81 65 -118 41 -20 -12 -82 20 -76 41 16 54 -43 108 -97 89 -24
-8 -36 -7 -52 4 -35 24 -82 19 -106 -11 -24 -31 -27 -62 -7 -89 13 -18 11 -21
-15 -37 -18 -11 -32 -30 -35 -47 -4 -21 -15 -33 -34 -40 -37 -13 -64 -54 -56
-86 15 -58 81 -83 126 -47 20 16 28 17 56 7 18 -6 43 -23 54 -38 29 -37 90
-38 117 -3 14 18 29 24 57 24 20 0 45 6 54 14 23 20 108 16 151 -6 27 -15 38
-16 59 -6 22 10 28 8 49 -14 29 -32 79 -35 114 -7 35 27 92 25 120 -5 28 -30
81 -32 109 -4 11 11 27 20 35 20 9 0 30 7 47 16 18 9 40 13 56 9 36 -9 78 12
93 47 10 25 9 35 -4 64 -9 19 -21 34 -26 34 -4 0 -11 18 -15 40 -5 30 -13 43
-36 55 -44 23 -65 19 -104 -20 -20 -19 -42 -35 -50 -35 -7 0 -19 -7 -26 -15
-11 -13 -15 -14 -29 -1 -28 24 -58 28 -91 11 -16 -8 -30 -20 -30 -25 0 -6 -4
-10 -10 -10 -19 0 -10 41 15 65 26 27 72 33 105 15 24 -13 62 4 102 44 29 29
58 32 112 10 17 -6 18 -4 12 22 -10 43 -43 66 -91 63 -65 -3 -70 -1 -80 33
-21 71 -104 76 -137 8 -22 -43 -54 -58 -63 -29 -10 30 -51 52 -85 46 -23 -5
-35 -1 -54 18 -30 30 -73 33 -107 7 -30 -22 -108 -21 -140 2 -33 22 -74 20
-99 -6z"/>
<path d="M1488 1913 c6 -2 18 -2 25 0 6 3 1 5 -13 5 -14 0 -19 -2 -12 -5z"/>
<path d="M1358 1898 c5 -5 16 -8 23 -6 8 3 3 7 -10 11 -17 4 -21 3 -13 -5z"/>
<path d="M1500 1896 c0 -2 7 -7 16 -10 8 -3 12 -2 9 4 -6 10 -25 14 -25 6z"/>
<path d="M960 511 c-15 -29 -12 -87 6 -105 19 -20 35 -20 59 -2 23 17 27 85 6
110 -18 22 -58 20 -71 -3z"/>
<path d="M1940 511 c-27 -52 2 -128 47 -119 38 7 53 87 22 125 -17 19 -57 16
-69 -6z"/>
</g>
</svg>
