<?xml version="1.0" standalone="no"?>
<!DOCTYPE svg PUBLIC "-//W3C//DTD SVG 20010904//EN"
 "http://www.w3.org/TR/2001/REC-SVG-20010904/DTD/svg10.dtd">
<svg version="1.0" xmlns="http://www.w3.org/2000/svg"
 width="6497.000000pt" height="6497.000000pt" viewBox="0 0 6497.000000 6497.000000"
 preserveAspectRatio="xMidYMid meet">

<g transform="translate(0.000000,6497.000000) scale(0.100000,-0.100000)"
fill="#000000" stroke="none">
<path d="M0 43439 l0 -21532 232 6 c128 3 285 13 348 22 627 86 1175 330 1563
693 139 130 232 188 377 234 63 19 96 23 210 23 122 0 143 -3 215 -28 196 -69
349 -209 442 -403 74 -156 87 -220 87 -434 1 -214 -8 -257 -81 -410 -42 -88
-54 -104 -182 -230 -166 -166 -353 -316 -571 -462 -91 -60 -166 -111 -168
-112 -1 -2 40 -90 92 -197 189 -390 327 -785 562 -1609 36 -129 71 -243 75
-252 5 -10 99 -139 209 -287 594 -804 995 -1413 1315 -1996 155 -282 460 -917
553 -1151 124 -311 202 -639 202 -850 0 -59 -3 -68 -29 -95 -31 -30 -67 -37
-102 -19 -35 19 -88 147 -214 520 -98 289 -136 387 -222 575 -193 418 -443
812 -850 1338 -107 138 -117 147 -148 147 -45 0 -75 38 -75 94 0 38 -11 55
-147 225 -81 101 -149 179 -151 173 -2 -7 8 -36 22 -67 16 -33 24 -64 21 -77
-5 -20 228 -1090 341 -1568 20 -85 42 -182 49 -215 107 -481 281 -1115 420
-1523 112 -332 324 -868 360 -912 7 -8 18 -33 25 -54 37 -116 293 -609 463
-891 166 -278 391 -602 574 -828 75 -94 82 -130 34 -178 -48 -48 -80 -41 -158
34 -252 240 -565 637 -794 1007 -56 91 -110 176 -120 190 -11 14 -34 54 -52
90 -18 36 -76 146 -129 245 -270 500 -553 1243 -851 2230 -109 358 -326 1161
-383 1415 -9 41 -27 91 -41 111 -18 28 -23 48 -22 90 1 37 -22 152 -75 374
-83 341 -276 1110 -324 1286 l-29 107 -150 203 c-636 865 -927 1415 -994 1882
l-13 84 -85 -29 c-456 -154 -1027 -248 -1513 -248 l-118 0 0 -10090 0 -10090
32485 0 32485 0 0 10090 0 10090 -122 0 c-476 0 -1052 94 -1495 244 l-103 35
0 -29 c0 -16 -9 -78 -21 -137 -88 -458 -400 -1025 -1031 -1870 l-99 -133 -60
-227 c-184 -698 -369 -1475 -367 -1544 1 -44 -4 -63 -22 -88 -15 -22 -44 -120
-92 -309 -172 -690 -331 -1239 -543 -1875 -254 -765 -447 -1228 -709 -1701
-36 -66 -66 -125 -66 -132 0 -7 -10 -25 -23 -41 -13 -15 -52 -75 -87 -133
-237 -390 -508 -746 -775 -1018 -121 -122 -144 -142 -171 -142 -63 0 -107 64
-85 123 6 14 45 70 89 125 217 273 443 610 648 970 104 182 354 677 354 701 0
8 11 33 24 55 32 55 167 377 251 601 191 507 342 1034 555 1935 106 450 370
1660 370 1698 0 25 6 53 14 61 13 15 39 91 31 91 -2 0 -71 -85 -154 -189 -101
-126 -149 -194 -145 -205 7 -19 -13 -81 -33 -101 -8 -8 -29 -15 -47 -15 -31 0
-41 -11 -158 -162 -380 -494 -606 -845 -799 -1242 -107 -222 -149 -326 -249
-622 -132 -389 -187 -524 -223 -549 -34 -24 -75 -19 -108 14 -34 34 -36 60
-18 219 30 283 124 588 300 977 114 251 434 886 547 1082 307 534 685 1097
1233 1840 l194 262 104 363 c227 791 378 1211 565 1574 l62 121 -95 58 c-305
188 -722 547 -810 697 -162 279 -146 709 39 990 106 161 285 287 460 324 100
21 259 14 355 -16 142 -45 233 -101 369 -228 398 -370 938 -610 1570 -698 61
-8 216 -18 344 -21 l232 -6 0 21532 0 21531 -32485 0 -32485 0 0 -21531z
m32980 16831 c676 -55 1303 -198 1906 -436 1668 -657 2992 -1972 3671 -3644
78 -191 204 -574 257 -780 276 -1067 284 -2159 25 -3232 l-31 -127 -79 -50
c-44 -28 -82 -51 -84 -51 -3 0 -5 830 -5 1845 l0 1845 -314 0 -315 0 25 -72
c135 -394 240 -929 275 -1405 15 -216 7 -817 -15 -1013 -46 -414 -131 -824
-244 -1177 l-40 -123 243 -2 243 -3 -100 -80 c-131 -103 -326 -291 -436 -419
-430 -499 -701 -1091 -796 -1741 -18 -123 -40 -408 -33 -441 4 -21 -15 -43
-127 -148 -1147 -1081 -2534 -1690 -4090 -1797 -251 -17 -859 -6 -1096 19
-412 46 -728 105 -1096 207 -948 263 -1853 758 -2591 1417 l-62 55 -6 204 c-6
234 -18 372 -46 549 -21 135 -84 402 -102 435 -6 11 -11 27 -12 35 -4 33 -29
100 -37 100 -5 0 -7 4 -3 10 9 15 -82 234 -172 413 -131 258 -312 522 -503
732 -35 39 -70 71 -77 73 -7 2 -13 9 -13 17 0 16 -190 191 -314 289 l-90 71
133 3 c100 2 132 6 128 15 -23 60 -85 268 -117 391 -78 297 -132 599 -165 911
-22 205 -31 744 -16 960 34 493 120 950 265 1408 l34 107 -314 0 -314 0 0
-1778 0 -1779 -95 49 c-52 27 -95 45 -96 41 -4 -39 -92 396 -124 612 -56 387
-77 780 -64 1198 39 1199 409 2361 1074 3367 816 1237 2029 2161 3436 2618
571 186 1089 278 1769 316 110 6 618 -3 750 -14z m14350 -14074 c41 -67 165
-171 254 -215 132 -64 233 -84 396 -78 155 6 233 25 372 89 101 47 91 50 144
-48 l28 -51 -38 -33 c-93 -82 -118 -195 -63 -279 40 -60 118 -96 192 -88 29 3
67 13 84 22 17 9 36 13 40 10 5 -3 30 -41 56 -85 l47 -79 -50 -50 c-148 -148
-78 -351 121 -351 32 0 74 7 94 15 20 9 42 14 49 11 6 -2 32 -40 58 -84 l47
-81 -47 -43 c-124 -114 -109 -274 31 -339 61 -28 125 -24 215 15 11 5 29 -16
67 -81 l52 -87 -44 -38 c-142 -125 -105 -320 69 -359 50 -11 62 -10 122 10 37
12 68 20 69 19 12 -14 95 -158 95 -166 0 -5 -15 -21 -34 -36 -42 -32 -71 -78
-87 -136 -23 -88 28 -182 117 -216 52 -20 143 -15 192 10 l31 16 50 -84 c28
-46 51 -88 51 -92 0 -5 -12 -17 -28 -27 -33 -23 -75 -81 -90 -126 -37 -106 25
-211 141 -243 41 -10 57 -10 105 3 31 9 64 19 74 23 12 6 22 -3 41 -35 l26
-42 -67 -47 c-101 -71 -155 -123 -219 -208 -186 -247 -230 -529 -121 -773 17
-38 29 -71 27 -73 -2 -2 -1207 -716 -2678 -1587 l-2674 -1583 39 -16 c22 -9
989 -340 2150 -735 l2111 -719 -14 -55 c-22 -83 -13 -237 19 -323 70 -189 233
-355 434 -444 32 -14 60 -27 62 -29 3 -3 -38 -118 -47 -127 -3 -4 -23 -3 -45
2 -49 11 -128 -9 -162 -41 -87 -81 -66 -213 44 -276 26 -14 48 -27 50 -28 1
-1 -11 -38 -27 -81 l-29 -79 -49 3 c-192 13 -285 -157 -157 -285 24 -23 54
-45 68 -49 14 -3 26 -7 26 -8 0 0 -13 -37 -29 -81 l-29 -80 -59 3 c-99 6 -168
-34 -199 -113 -13 -34 -14 -50 -4 -84 13 -49 67 -113 110 -131 36 -15 36 -18
7 -105 l-24 -70 -76 0 c-68 0 -80 -3 -118 -30 -60 -42 -88 -107 -70 -166 14
-47 83 -127 117 -135 30 -8 30 -12 -1 -105 l-26 -77 -39 10 c-48 12 -119 -3
-163 -34 -41 -29 -71 -100 -62 -147 9 -53 48 -106 100 -136 25 -15 45 -30 45
-33 0 -4 -12 -42 -26 -85 -23 -68 -28 -77 -46 -71 -43 13 -119 5 -161 -18 -47
-26 -87 -87 -87 -133 0 -46 40 -116 87 -151 23 -18 47 -34 53 -36 9 -3 9 -14
0 -44 l-12 -41 -72 20 c-54 16 -102 20 -206 21 -154 1 -218 -13 -340 -72 -103
-50 -224 -169 -269 -264 -18 -38 -34 -68 -36 -68 -5 0 -5289 1800 -5291 1803
-2 1 -6 55 -10 120 l-7 117 144 -49 c256 -87 4223 -1439 4240 -1446 12 -4 24
12 52 69 106 214 371 315 635 241 34 -10 65 -15 68 -12 4 4 964 2813 988 2895
5 14 3 22 -5 22 -7 0 -50 18 -96 41 -248 119 -385 392 -304 603 7 16 10 30 9
31 -2 2 -783 269 -1737 593 l-1735 591 -38 -21 c-21 -12 -35 -25 -31 -29 5 -4
769 -266 1698 -582 930 -317 1704 -581 1721 -587 l31 -11 -9 -52 c-24 -144 37
-324 153 -451 52 -58 157 -133 221 -159 l38 -16 -117 -343 c-65 -189 -277
-813 -473 -1388 l-357 -1045 -29 2 c-184 14 -244 14 -314 -1 -152 -32 -293
-128 -363 -247 l-33 -56 -2175 740 c-1195 407 -2176 742 -2177 743 -2 1 -30
837 -62 1856 -32 1019 -61 1918 -65 1998 l-6 145 195 -328 c107 -181 196 -330
199 -333 2 -3 46 16 96 40 124 61 213 79 349 74 186 -7 333 -80 428 -213 25
-36 48 -65 50 -65 8 0 5429 3212 5443 3225 11 11 9 23 -17 74 -81 161 -66 360
39 538 43 72 169 199 237 238 38 21 51 35 48 47 -4 16 -1806 3067 -1829 3096
-7 9 -22 5 -63 -18 -116 -67 -294 -108 -413 -95 -83 8 -202 48 -262 86 -55 35
-140 122 -163 167 -9 18 -18 32 -20 32 -2 0 -1197 -707 -2656 -1571 l-2652
-1571 -79 78 -79 79 3192 1892 c1756 1041 3198 1892 3205 1892 6 1 21 -15 33
-33z m-776 -1061 c196 -96 407 -99 633 -8 35 14 65 24 67 22 3 -4 1675 -2827
1729 -2920 l27 -45 -70 -57 c-129 -106 -229 -262 -266 -414 -23 -98 -16 -263
15 -348 21 -59 21 -60 2 -73 -10 -7 -1206 -716 -2658 -1576 l-2638 -1563 -67
68 c-76 76 -185 137 -298 165 -142 36 -355 14 -498 -51 -30 -14 -56 -24 -57
-23 -1 2 -49 82 -105 178 -57 96 -107 177 -112 178 -4 2 -8 8 -8 14 0 6 -46
88 -102 182 l-102 171 -17 540 c-18 558 -31 721 -75 950 -114 591 -381 1155
-767 1614 -56 67 -68 86 -56 93 7 5 1182 701 2609 1546 l2595 1537 64 -68 c51
-54 82 -77 155 -112z m-26769 -2802 c114 -148 298 -273 482 -325 61 -17 104
-22 198 -22 135 0 194 13 308 71 38 19 73 31 77 26 4 -4 524 -776 1154 -1715
l1147 -1707 -8 -182 -8 -182 -834 1242 c-459 683 -838 1244 -842 1247 -4 2
-29 -9 -56 -26 -83 -53 -169 -73 -286 -68 -114 6 -196 31 -293 89 -75 46 -172
135 -219 204 -21 30 -44 54 -49 51 -13 -5 -2977 -1995 -2991 -2007 -6 -6 -3
-19 8 -37 38 -58 97 -190 113 -252 21 -80 23 -226 5 -300 -25 -103 -77 -194
-152 -265 -38 -36 -74 -65 -79 -65 -6 0 -10 -4 -10 -9 0 -7 3520 -5254 3534
-5268 2 -2 32 12 67 31 87 47 159 66 249 66 96 0 174 -20 275 -70 114 -56 202
-133 290 -255 l21 -28 544 366 c300 201 546 364 547 363 2 -1 -24 -850 -57
-1887 -33 -1036 -60 -1897 -60 -1914 0 -23 -7 -34 -30 -47 -87 -50 -93 -175
-11 -252 27 -26 31 -36 31 -82 l0 -51 -62 15 c-40 10 -109 16 -188 16 -144 0
-214 -15 -330 -72 -102 -50 -224 -170 -269 -264 l-31 -66 -143 48 c-156 52
-6922 2359 -7000 2386 -42 14 -48 19 -43 38 4 11 12 55 18 97 39 258 -147 550
-438 685 -43 21 -80 38 -81 39 -1 0 3 18 9 39 l12 38 48 -6 c60 -8 118 7 158
40 92 78 76 199 -36 273 l-51 33 25 79 26 79 58 -6 c50 -6 65 -3 111 20 99 48
125 148 61 238 -22 31 -82 76 -111 84 -1 0 10 37 24 82 l27 81 62 -6 c51 -5
70 -2 108 17 65 31 91 71 91 141 0 80 -30 120 -132 178 -10 5 -6 27 14 88 l27
81 58 -5 c76 -7 138 16 176 65 22 29 27 46 27 93 0 49 -4 63 -31 96 -28 34
-80 77 -104 85 -6 2 2 39 16 83 l27 80 71 -3 c59 -2 77 1 110 20 80 47 107
128 67 205 -21 42 -85 103 -108 103 -23 0 -22 18 4 96 14 44 27 80 27 81 1 1
19 -2 40 -8 82 -23 191 31 217 108 24 74 -16 162 -96 209 -26 14 -44 32 -42
38 2 6 12 35 22 64 16 50 19 54 44 49 14 -2 69 -12 121 -22 165 -30 337 -4
485 73 99 52 203 157 247 250 23 50 37 70 47 67 97 -36 3505 -1194 3507 -1192
2 1 -741 1111 -1651 2465 l-1654 2462 88 88 c71 70 96 103 129 172 67 135 85
227 79 390 -6 171 -47 311 -127 441 -16 27 -30 54 -30 59 0 5 16 21 35 36 l35
27 48 -45 c88 -82 189 -99 271 -45 76 51 104 171 61 266 -11 24 -20 47 -20 52
0 5 37 33 82 64 l82 55 28 -34 c38 -47 120 -86 178 -86 112 0 197 97 187 211
-3 30 -15 75 -27 98 -12 24 -20 44 -18 45 26 21 159 106 166 106 4 0 24 -16
43 -36 162 -172 417 -27 339 192 -11 32 -23 66 -26 74 -3 10 20 31 72 65 42
28 81 51 85 53 5 2 21 -10 35 -27 83 -99 224 -116 305 -37 62 60 76 150 39
247 -10 29 -17 56 -14 61 3 4 39 31 80 59 l75 50 53 -48 c102 -94 216 -98 293
-10 59 67 68 160 25 248 -12 24 -20 44 -19 44 1 1 39 27 85 58 l83 56 35 -39
c47 -52 107 -80 173 -80 62 0 97 16 139 64 57 65 64 148 21 245 -15 35 -17 46
-7 52 7 5 36 24 63 43 28 19 55 35 60 35 6 0 33 -30 60 -66z m4748 -1323 c71
-27 159 -106 192 -175 21 -41 28 -75 33 -140 4 -78 2 -93 -23 -158 -57 -144
-177 -222 -340 -222 -68 1 -90 5 -145 32 -36 17 -83 49 -105 72 -21 22 -43 41
-48 41 -22 0 -87 64 -107 106 -31 62 -32 155 -3 210 24 45 80 104 100 104 7 0
23 12 36 26 38 44 118 97 166 110 73 20 182 17 244 -6z m-3911 -173 c92 -93
189 -155 300 -194 57 -21 98 -27 188 -31 124 -5 200 8 282 48 23 11 42 19 43
17 1 -1 383 -571 850 -1266 l848 -1263 -27 -872 c-15 -479 -28 -880 -29 -890
-2 -16 -51 -34 -302 -111 -165 -50 -301 -91 -303 -89 -2 1 89 115 202 254 113
138 206 254 206 257 0 15 -186 273 -197 273 -28 0 -24 -30 11 -81 l35 -52
-339 -229 c-187 -125 -343 -228 -349 -228 -5 0 -23 23 -41 50 -18 28 -33 50
-35 50 -14 0 -35 -14 -35 -23 0 -7 39 -69 87 -139 75 -110 89 -126 105 -117
10 5 18 12 18 15 0 2 -16 29 -37 60 -21 32 -33 58 -27 63 14 13 643 431 649
431 2 0 -118 -150 -267 -332 -150 -183 -272 -342 -272 -353 -1 -11 6 -21 15
-23 9 -1 200 53 425 122 224 69 410 124 411 122 2 -1 -145 -102 -326 -224
l-329 -221 -36 54 c-20 30 -38 55 -40 55 -14 0 -36 -14 -36 -22 0 -16 234
-358 245 -358 6 0 16 4 23 9 11 7 6 21 -24 65 -20 31 -35 58 -33 59 2 2 136
93 298 201 l293 198 -6 -118 c-3 -66 -8 -203 -12 -306 l-6 -188 -37 -9 c-83
-23 -334 -81 -336 -79 -1 2 -16 24 -34 51 -34 50 -38 52 -60 38 -12 -8 4 -37
79 -150 51 -78 99 -141 107 -141 29 0 24 32 -15 92 -23 34 -39 64 -37 66 2 3
56 17 120 32 l116 28 45 -67 44 -66 0 -98 c0 -97 0 -98 -37 -147 -21 -28 -40
-50 -44 -50 -3 0 -23 25 -43 55 -32 49 -39 54 -56 45 -11 -6 -20 -13 -20 -15
0 -2 42 -66 94 -142 l94 -138 -23 -698 c-12 -384 -26 -702 -31 -706 -5 -5
-247 -168 -539 -363 l-530 -356 -35 45 c-49 62 -169 157 -252 199 -178 89
-394 100 -560 27 l-46 -21 -1725 2566 -1724 2567 45 45 c195 193 235 509 102
797 l-38 82 1426 960 c785 528 1430 960 1434 960 4 1 44 -36 90 -82z m3666
-1061 c36 -19 78 -65 91 -99 6 -16 11 -55 11 -88 0 -121 -76 -199 -192 -199
-93 1 -168 61 -187 151 -20 93 13 182 84 225 47 28 148 33 193 10z m-225
-1350 c18 -7 46 -28 61 -47 l29 -34 -6 -225 c-3 -124 -15 -317 -26 -430 -11
-113 -32 -360 -46 -550 -14 -190 -55 -716 -90 -1170 -152 -1944 -199 -2700
-245 -3960 -17 -471 -32 -694 -90 -1403 -17 -197 -34 -366 -40 -376 -19 -36
-77 -42 -104 -12 -45 50 -69 1131 -42 1901 31 889 125 3098 146 3430 38 595
100 1313 205 2380 23 227 54 413 76 450 33 54 107 74 172 46z m-1013 -3001 c0
-42 -3 -43 -24 -10 -18 27 -14 45 10 45 9 0 14 -11 14 -35z m-6585 -7784 c88
-40 137 -118 138 -216 0 -72 -16 -113 -73 -181 -31 -38 -59 -60 -109 -83 -121
-55 -210 -38 -266 53 -28 46 -30 56 -30 150 0 88 3 108 26 157 28 59 77 106
131 126 50 18 137 15 183 -6z m4612 -119 c358 -308 624 -1031 707 -1922 28
-294 36 -544 36 -1100 0 -919 -41 -1610 -146 -2488 -25 -205 -29 -224 -52
-247 -32 -33 -93 -34 -123 -4 -19 19 -21 29 -15 83 28 287 70 920 86 1291 76
1801 2 2882 -241 3548 -49 135 -147 338 -297 622 -114 213 -120 234 -84 263
30 23 61 13 129 -46z m23258 39 c23 -5 31 -12 33 -32 3 -24 -9 -35 -115 -104
-173 -113 -279 -225 -403 -423 -164 -266 -218 -450 -275 -943 -90 -781 -142
-1999 -116 -2694 10 -275 10 -291 -8 -315 -26 -36 -89 -40 -126 -8 -25 22 -28
33 -41 148 -21 191 -62 697 -79 970 -31 506 -29 1206 5 1735 52 799 244 1274
609 1510 75 48 208 114 296 146 50 18 160 23 220 10z m-28522 -352 c54 -15
103 -62 121 -116 33 -98 16 -151 -85 -258 -91 -95 -129 -113 -204 -94 -51 13
-100 62 -110 111 -10 41 24 227 48 271 43 78 136 113 230 86z m5375 -11888
c169 -36 361 -111 381 -149 6 -12 11 -39 11 -62 0 -95 -62 -108 -440 -94 -438
17 -556 10 -725 -43 -276 -87 -461 -266 -526 -510 -28 -103 -30 -317 -5 -448
19 -100 55 -234 92 -339 35 -102 32 -136 -17 -161 -36 -19 -69 -19 -95 -1 -25
18 -122 237 -176 395 -100 298 -110 519 -34 744 125 367 466 613 946 683 139
20 465 12 588 -15z m827 -163 c98 -51 150 -173 125 -293 -28 -137 -160 -218
-300 -185 -113 27 -180 118 -180 244 0 117 56 207 152 243 43 17 164 11 203
-9z m744 -309 c61 -14 135 -65 161 -112 29 -51 24 -130 -11 -181 -36 -53 -123
-96 -193 -96 -72 0 -115 18 -153 64 -68 83 -68 185 -1 262 34 39 58 54 103 65
42 10 45 10 94 -2z"/>
<path d="M43290 37692 l-45 -27 3 -67 c2 -47 7 -68 18 -72 10 -4 18 4 25 22
13 33 59 164 59 169 0 8 -18 0 -60 -25z"/>
<path d="M43466 37684 c-3 -9 -6 -17 -6 -18 0 -2 27 -11 60 -21 34 -10 59 -23
57 -29 -2 -6 -52 -155 -112 -331 -59 -176 -110 -322 -112 -324 -2 -3 -29 3
-59 13 -47 15 -58 16 -65 4 -5 -7 -9 -15 -9 -18 0 -6 360 -130 378 -130 6 0
12 8 12 18 0 14 -15 24 -55 37 -30 11 -55 22 -55 26 0 4 41 128 91 275 50 148
92 273 93 279 1 5 4 15 7 20 4 6 12 27 18 48 14 43 11 41 75 22 63 -19 66 -19
66 4 0 16 -30 29 -183 80 -100 34 -185 61 -188 61 -4 0 -10 -7 -13 -16z"/>
<path d="M43940 37521 c0 -15 13 -24 55 -37 31 -10 54 -23 52 -28 -2 -6 -52
-153 -111 -326 -59 -173 -111 -319 -116 -324 -5 -5 -29 -1 -56 8 -38 13 -49
13 -56 4 -4 -7 -8 -16 -8 -19 0 -13 263 -100 273 -90 18 18 -1 37 -56 54 l-56
18 112 328 c62 181 113 328 114 327 1 -1 54 -197 117 -436 64 -238 121 -437
128 -441 7 -5 16 -5 19 -1 4 4 60 162 124 352 64 190 121 349 125 354 5 5 29
1 55 -8 51 -17 68 -14 63 12 -4 22 -259 107 -270 89 -13 -21 -9 -25 45 -43 28
-9 55 -18 59 -21 8 -4 -141 -453 -151 -453 -3 0 -42 137 -85 303 l-80 304
-141 46 c-77 26 -144 47 -148 47 -4 0 -7 -9 -7 -19z"/>
<path d="M42727 37359 c-76 -45 -75 -40 -31 -139 30 -66 85 -126 139 -151 44
-20 165 -26 208 -10 23 9 26 7 34 -27 15 -65 35 -51 76 54 20 52 35 100 31
105 -3 5 0 9 5 9 16 0 13 20 -3 26 -8 3 -39 -20 -73 -55 -95 -94 -187 -112
-273 -51 -60 43 -74 111 -45 220 8 30 15 56 15 58 0 7 -22 -3 -83 -39z"/>
<path d="M44810 37222 c0 -13 15 -23 56 -36 33 -10 54 -22 51 -29 -2 -7 -53
-156 -112 -332 -60 -176 -110 -322 -111 -324 -2 -2 -24 4 -50 13 -61 20 -74
20 -74 -2 0 -15 60 -38 322 -127 177 -61 325 -111 328 -113 4 -1 29 54 55 124
38 102 45 128 34 135 -21 13 -27 11 -34 -10 -10 -34 -65 -101 -98 -121 -48
-30 -122 -26 -231 11 -50 17 -95 35 -100 39 -6 6 86 299 100 319 7 9 104 -33
124 -54 20 -22 22 -31 18 -90 -5 -62 -5 -66 15 -63 17 2 29 30 73 160 43 129
49 158 37 162 -8 3 -16 6 -18 6 -2 0 -15 -20 -29 -44 -36 -62 -70 -74 -147
-51 -33 10 -58 23 -56 29 2 6 25 75 52 152 l49 141 100 -33 c162 -55 200 -93
201 -199 0 -48 3 -60 17 -63 12 -2 20 10 32 50 31 108 39 149 30 157 -12 11
-601 211 -620 211 -8 0 -14 -8 -14 -18z"/>
<path d="M45586 36964 c-3 -9 -6 -17 -6 -19 0 -2 25 -12 55 -21 31 -10 54 -23
52 -28 -3 -6 -52 -153 -111 -326 -59 -173 -111 -319 -116 -324 -5 -5 -27 -2
-54 8 -47 18 -66 15 -66 -9 0 -15 244 -100 260 -90 23 14 7 32 -44 49 l-55 17
112 328 c62 181 112 329 113 328 0 -1 -5 -171 -13 -377 -7 -206 -11 -381 -8
-387 2 -7 10 -13 18 -13 7 0 106 129 219 288 114 158 214 296 222 307 8 11
-23 -92 -69 -230 -116 -340 -136 -395 -145 -395 -4 0 -27 7 -50 15 -54 19 -58
19 -62 -2 -3 -15 26 -28 162 -75 91 -32 173 -58 183 -58 10 0 17 7 17 19 0 13
-12 22 -45 31 -25 7 -48 17 -51 22 -4 7 211 656 221 666 1 2 20 -4 40 -12 50
-21 75 -20 75 2 0 14 -28 27 -131 61 -72 24 -134 39 -139 35 -4 -5 -76 -105
-160 -221 -83 -117 -154 -213 -157 -213 -6 0 5 421 13 496 l5 51 -134 46 c-74
26 -137 47 -140 47 -3 0 -8 -7 -11 -16z"/>
<path d="M42845 36698 c-7 -18 -27 -64 -44 -103 -26 -61 -27 -70 -13 -74 9 -2
24 7 34 20 61 79 81 99 113 108 35 10 99 -1 110 -18 4 -7 -169 -528 -179 -538
-1 -2 -24 4 -50 13 -35 12 -51 13 -59 5 -7 -7 -7 -14 -2 -20 21 -19 319 -111
329 -101 13 13 0 25 -46 40 -21 6 -40 15 -43 20 -5 8 157 501 174 528 11 18
67 -5 101 -43 22 -23 25 -38 29 -111 2 -62 7 -84 17 -84 13 0 17 12 50 144 14
58 15 69 3 77 -16 10 -487 169 -501 169 -5 0 -15 -15 -23 -32z"/>
<path d="M46660 36260 c-129 -160 -244 -301 -255 -315 -21 -25 -21 -25 -69 -9
-41 14 -50 14 -57 3 -5 -8 -9 -16 -9 -19 0 -10 280 -98 282 -89 0 5 1 14 2 21
1 6 -27 21 -62 32 l-63 21 67 83 c37 46 72 81 78 79 6 -2 57 -19 114 -38 l102
-33 0 -108 0 -108 -50 20 c-64 25 -72 25 -68 -1 3 -19 29 -31 173 -80 94 -32
173 -58 176 -58 4 -1 9 8 12 19 4 16 -4 22 -43 35 l-47 16 -6 127 c-4 70 -7
254 -7 410 0 262 -1 282 -17 282 -11 0 -109 -113 -253 -290z m127 -216 c-6 -6
-187 61 -184 69 1 4 43 59 92 121 l90 113 3 -150 c1 -82 1 -151 -1 -153z"/>
<path d="M43455 36521 c-10 -17 1 -26 44 -41 23 -7 41 -16 41 -20 0 -6 -92
-281 -160 -477 l-21 -61 -45 15 c-34 11 -49 12 -57 4 -7 -7 -7 -14 -2 -20 6
-5 79 -31 163 -59 136 -45 152 -49 152 -32 0 13 -12 22 -37 30 -21 7 -42 16
-46 20 -6 5 165 525 178 538 2 2 24 -3 49 -11 24 -8 47 -13 50 -9 20 19 -8 35
-136 78 -79 26 -148 49 -154 51 -7 2 -15 0 -19 -6z"/>
<path d="M43935 36306 c-68 -31 -132 -98 -169 -176 -28 -59 -31 -74 -31 -165
0 -89 3 -106 26 -150 63 -118 151 -161 275 -133 29 6 32 5 38 -22 10 -52 32
-34 65 53 17 46 31 88 31 94 0 28 -22 20 -60 -21 -70 -76 -151 -97 -217 -56
-75 45 -78 106 -18 288 45 135 92 229 128 256 56 41 158 11 194 -57 10 -19 17
-56 17 -89 1 -37 6 -60 14 -63 7 -2 15 1 17 8 23 61 55 163 55 174 0 18 -20
16 -41 -3 -17 -15 -20 -14 -46 16 -60 71 -182 92 -278 46z"/>
<path d="M44414 36189 c-9 -14 4 -24 49 -39 21 -7 37 -17 34 -24 -2 -6 -43
-127 -92 -269 l-88 -258 -26 7 c-40 11 -74 10 -78 -2 -6 -18 299 -118 309
-101 9 15 2 22 -44 37 -21 6 -38 15 -38 18 0 23 94 284 98 272 3 -8 33 -91 68
-183 l62 -169 -26 8 c-41 11 -75 10 -79 -3 -2 -7 51 -29 139 -58 79 -27 148
-50 154 -52 6 -2 14 3 17 12 5 10 -3 19 -25 28 -29 12 -36 27 -114 232 -46
120 -82 219 -81 220 1 1 59 32 128 68 l127 66 47 -16 c40 -13 49 -13 56 -2 12
20 7 22 -116 63 -72 24 -112 33 -119 26 -13 -13 0 -25 48 -40 l39 -13 -159
-81 c-87 -45 -160 -81 -162 -80 -2 1 15 56 38 122 l42 120 40 -14 c52 -18 58
-18 58 4 0 14 -30 28 -143 65 -159 52 -153 51 -163 36z"/>
<path d="M42464 36006 c-3 -8 -4 -21 -2 -27 5 -14 3625 -1251 3648 -1246 8 1
16 11 18 22 2 18 -175 81 -1815 639 -1000 341 -1824 621 -1830 624 -7 2 -16
-3 -19 -12z"/>
<path d="M45124 35949 c-9 -14 4 -24 49 -39 20 -6 37 -14 37 -18 0 -3 -41
-126 -91 -273 l-91 -267 -45 15 c-38 13 -47 13 -54 2 -5 -9 -3 -16 5 -21 17
-10 514 -178 525 -178 8 0 81 182 81 201 0 23 -39 7 -50 -21 -17 -41 -72 -88
-113 -95 -23 -5 -62 3 -130 25 -53 17 -97 34 -97 38 0 4 19 62 42 129 29 84
48 123 58 123 8 0 33 -11 55 -23 39 -22 40 -24 41 -82 1 -46 5 -61 17 -63 11
-2 25 27 56 120 23 68 41 129 41 136 0 23 -30 12 -45 -18 -26 -50 -55 -63
-109 -49 -26 6 -48 15 -51 19 -5 8 63 220 75 234 12 12 166 -42 200 -70 34
-29 54 -83 45 -123 -4 -21 -2 -30 11 -35 9 -4 18 -5 19 -4 6 8 46 170 43 173
-4 4 -506 175 -513 175 -2 0 -7 -5 -11 -11z"/>
<path d="M45721 35654 c-23 -53 -41 -102 -41 -110 0 -28 26 -13 68 42 55 71
97 91 159 74 24 -7 43 -16 43 -19 0 -8 -179 -534 -183 -538 -2 -1 -24 6 -50
15 -36 13 -49 14 -59 4 -6 -6 -10 -14 -7 -16 11 -11 323 -115 331 -110 21 13
4 32 -37 44 -25 7 -48 16 -51 21 -5 9 164 518 178 533 5 6 25 2 51 -11 57 -27
77 -69 77 -156 0 -62 13 -94 29 -68 15 23 53 203 45 211 -5 4 -122 46 -261 93
l-251 86 -41 -95z"/>
<path d="M42504 35449 l-42 -41 -56 9 c-31 6 -56 8 -56 6 0 -2 11 -26 25 -54
l26 -50 -27 -49 c-15 -28 -25 -52 -23 -55 3 -2 29 -1 58 4 l53 8 41 -44 c46
-50 47 -50 62 41 6 34 11 40 56 59 27 12 49 25 49 29 0 4 -22 19 -49 33 -50
25 -50 25 -57 85 -4 33 -9 60 -13 60 -3 0 -25 -19 -47 -41z"/>
<path d="M43402 35177 l-53 -54 -71 14 c-39 7 -73 11 -75 9 -2 -2 11 -33 29
-70 l32 -66 -38 -70 c-22 -42 -32 -70 -25 -70 7 0 41 5 77 11 l64 11 58 -57
58 -58 13 77 12 77 68 35 c38 19 69 36 69 39 0 3 -31 20 -69 39 l-69 35 -7 76
c-4 41 -10 75 -14 75 -4 0 -30 -24 -59 -53z"/>
<path d="M44295 34890 l-60 -59 -75 14 c-41 8 -81 15 -88 15 -7 0 3 -30 28
-80 l40 -80 -41 -76 c-23 -41 -40 -77 -38 -79 2 -1 42 4 88 12 l85 14 62 -68
c35 -37 63 -66 64 -63 1 20 30 173 32 175 2 2 39 21 83 43 l80 40 -82 40 -81
41 -12 86 c-7 47 -15 85 -19 85 -3 0 -33 -27 -66 -60z"/>
<path d="M45192 34567 l-54 -54 -61 13 c-104 22 -102 24 -62 -57 l36 -70 -36
-65 c-20 -36 -35 -68 -32 -70 2 -3 37 1 76 7 l72 12 60 -59 c44 -43 59 -54 59
-40 0 11 5 48 11 82 l11 63 64 27 c36 15 67 31 70 35 3 5 -27 24 -65 43 l-69
35 -7 58 c-11 100 -13 101 -73 40z"/>
<path d="M46085 34230 c-43 -44 -40 -43 -138 -24 l-28 6 28 -56 27 -55 -28
-51 c-15 -28 -26 -53 -24 -55 1 -1 28 1 58 6 l55 9 40 -40 c23 -22 43 -40 47
-40 3 0 9 25 13 55 6 55 7 55 63 84 l57 29 -58 28 c-53 26 -57 31 -58 64 -1
19 -4 45 -7 58 -7 22 -8 22 -47 -18z"/>
<path d="M46173 44062 c-9 -6 10 -129 72 -471 47 -255 85 -469 85 -476 0 -6
-22 -24 -50 -39 -49 -27 -57 -39 -42 -64 6 -9 46 9 153 73 79 47 144 90 143
95 -3 26 -5 30 -16 30 -7 0 -42 -18 -78 -39 l-65 -39 -21 121 c-12 67 -20 125
-18 128 5 9 229 139 238 139 4 0 49 -35 100 -78 l93 -78 -59 -34 c-58 -34 -65
-43 -49 -68 6 -10 53 13 197 98 104 62 190 114 192 115 2 2 -2 13 -8 25 l-11
21 -37 -22 c-20 -13 -44 -27 -53 -33 -14 -8 -84 47 -371 285 -194 162 -360
299 -368 306 -9 6 -21 9 -27 5z m229 -392 c70 -58 127 -107 127 -110 1 -3 -46
-33 -103 -66 l-104 -62 -26 137 c-39 211 -39 214 -29 210 5 -2 66 -51 135
-109z"/>
<path d="M45548 43666 c-80 -47 -138 -87 -138 -96 0 -8 34 -152 75 -320 41
-167 73 -305 72 -306 -1 -1 -87 76 -192 172 -104 96 -214 195 -242 221 l-53
45 -132 -77 c-167 -98 -160 -93 -147 -117 10 -19 12 -18 65 11 29 17 58 31 62
31 14 0 424 -698 418 -709 -3 -5 -27 -21 -54 -37 -26 -15 -48 -28 -50 -29 -7
-6 12 -35 23 -35 14 0 275 152 275 160 0 3 -5 12 -10 20 -8 13 -19 10 -71 -18
-34 -18 -63 -32 -64 -30 -1 2 -95 161 -209 353 -189 320 -203 346 -159 304 26
-25 156 -144 288 -264 132 -120 261 -239 288 -264 43 -42 48 -44 63 -29 15 15
8 49 -86 433 -56 229 -100 418 -97 421 4 5 390 -640 395 -662 2 -6 -22 -26
-53 -44 -39 -22 -55 -37 -51 -47 3 -8 6 -17 6 -19 0 -13 39 6 193 97 202 119
202 119 185 142 -12 16 -17 14 -70 -17 l-56 -34 -208 351 c-114 194 -209 355
-211 359 -2 4 21 22 52 40 30 18 55 35 55 38 0 4 -6 13 -12 22 -12 14 -29 6
-150 -66z"/>
<path d="M44293 42922 c-183 -108 -333 -201 -333 -207 0 -5 4 -16 9 -23 6 -10
22 -5 70 23 34 20 64 35 65 33 11 -13 406 -687 411 -700 5 -12 -8 -24 -53 -50
-51 -28 -59 -36 -51 -51 6 -9 14 -17 20 -17 12 0 668 387 688 405 11 11 1 34
-59 141 -39 71 -75 132 -79 137 -4 4 -15 1 -24 -6 -17 -12 -17 -15 2 -57 48
-110 34 -197 -42 -268 -43 -39 -234 -158 -242 -151 -2 3 -49 81 -104 174
l-100 170 57 32 c38 22 70 33 96 33 35 0 46 -6 88 -51 31 -33 53 -49 63 -45 8
3 15 11 15 17 0 15 -191 339 -199 339 -3 0 -13 -4 -21 -10 -12 -8 -12 -15 3
-57 23 -65 21 -96 -8 -131 -31 -37 -114 -87 -124 -76 -16 18 -181 303 -181
312 0 10 149 99 221 132 81 36 148 23 220 -46 24 -23 41 -33 52 -28 9 3 17 10
17 15 0 12 -131 209 -139 209 -3 0 -156 -89 -338 -198z"/>
<path d="M46443 42676 c-66 -40 -191 -114 -277 -165 l-156 -92 60 -119 c45
-89 64 -118 75 -114 19 8 19 16 0 78 -22 72 -19 127 8 167 26 38 87 83 98 72
9 -10 328 -550 335 -566 2 -7 -21 -25 -51 -42 -30 -16 -55 -32 -55 -35 1 -13
19 -32 27 -29 27 11 343 202 343 208 0 3 -4 12 -9 20 -7 11 -19 8 -60 -18 -28
-17 -55 -31 -59 -31 -4 0 -85 129 -178 288 l-170 287 30 19 c17 10 46 23 63
28 45 12 114 -19 176 -80 41 -41 49 -45 62 -32 13 13 6 27 -56 115 -39 55 -73
103 -77 107 -4 3 -62 -26 -129 -66z"/>
<path d="M43708 42577 c-131 -78 -158 -104 -128 -122 6 -4 38 10 71 31 33 20
64 32 69 28 14 -16 289 -484 284 -484 -3 0 -156 73 -339 161 l-334 162 -150
-89 c-83 -49 -151 -93 -151 -99 0 -5 4 -16 9 -24 7 -11 20 -7 67 22 45 28 62
33 70 24 13 -13 402 -669 410 -691 3 -9 -15 -25 -50 -46 -60 -34 -64 -41 -41
-60 11 -9 38 2 142 64 70 42 134 80 141 84 14 10 6 42 -12 42 -6 0 -37 -16
-70 -35 -32 -20 -59 -35 -61 -33 -5 7 -415 701 -415 703 0 2 214 -100 476
-227 262 -126 484 -227 493 -226 9 2 15 11 15 20 -1 8 -89 164 -196 344 -107
181 -207 350 -222 375 l-27 47 53 32 c29 18 55 34 56 35 6 6 -9 45 -16 44 -4
0 -69 -37 -144 -82z"/>
<path d="M45617 42186 c-142 -84 -263 -158 -270 -165 -8 -8 -8 -14 1 -23 9 -9
23 -5 61 16 l50 27 14 -23 c101 -161 326 -552 321 -559 -3 -5 -23 -18 -45 -29
-38 -20 -50 -42 -29 -55 7 -4 544 303 579 331 2 2 -25 55 -60 118 -53 97 -65
113 -80 105 -16 -8 -16 -12 2 -59 38 -99 18 -168 -65 -229 -55 -41 -165 -105
-170 -100 -2 2 -34 56 -71 119 -38 63 -75 125 -83 137 -13 21 -11 23 37 47 73
37 101 34 146 -15 34 -38 65 -47 65 -19 0 21 -154 270 -166 270 -22 0 -23 -14
-7 -63 12 -37 13 -54 5 -72 -12 -25 -87 -85 -106 -85 -15 1 -159 247 -152 259
10 16 159 98 203 111 52 16 80 9 138 -36 44 -33 86 -40 69 -12 -38 65 -107
158 -117 158 -7 0 -128 -70 -270 -154z"/>
<path d="M42727 41995 c-103 -61 -192 -116 -197 -121 -7 -7 -6 -16 2 -27 12
-16 18 -14 71 18 32 19 61 35 65 35 7 0 415 -685 420 -704 1 -6 -25 -27 -58
-45 -64 -37 -65 -38 -51 -60 12 -19 19 -16 233 111 167 98 186 113 177 129
-13 25 -15 25 -83 -16 -32 -20 -60 -35 -61 -33 -4 4 -343 576 -367 618 -11 19
-28 49 -39 65 l-18 31 44 24 c25 14 45 28 45 31 0 4 9 9 20 12 21 5 19 32 -3
40 -7 2 -97 -47 -200 -108z"/>
<path d="M45203 40847 c-1069 -634 -1943 -1157 -1943 -1163 0 -5 6 -18 13 -28
12 -17 162 70 1958 1133 1069 634 1948 1156 1952 1161 11 10 -10 50 -26 49 -7
0 -886 -519 -1954 -1152z"/>
<path d="M45083 41872 c-74 -44 -113 -73 -113 -84 0 -25 24 -22 70 7 25 16 40
21 40 13 -1 -7 -22 -102 -49 -211 l-47 -198 -77 131 c-43 72 -75 135 -72 140
3 5 23 19 45 31 39 22 50 42 30 54 -9 5 -314 -168 -324 -184 -3 -4 -1 -13 4
-21 7 -11 18 -9 59 13 l50 28 15 -23 c79 -124 325 -552 320 -559 -3 -5 -23
-18 -45 -29 -38 -20 -50 -42 -29 -55 9 -5 288 152 317 179 8 7 9 16 3 26 -8
13 -17 11 -62 -14 -28 -16 -53 -25 -55 -20 -2 5 -41 72 -87 149 -46 77 -83
141 -81 143 1 2 98 -32 214 -75 l211 -77 -50 -31 c-54 -32 -54 -33 -41 -54 7
-11 42 5 170 80 88 52 160 100 161 107 0 21 -27 25 -54 6 -26 -16 -31 -15
-286 76 -188 68 -260 97 -260 109 0 8 17 85 37 169 l37 155 48 26 c47 25 60
54 28 57 -8 1 -66 -28 -127 -64z"/>
<path d="M42367 41793 c-4 -3 -7 -23 -7 -43 l0 -37 -77 -5 c-189 -11 -300
-140 -311 -359 -5 -113 10 -176 66 -284 106 -202 338 -317 529 -260 65 19 145
90 180 159 14 28 27 53 29 55 2 2 20 -6 40 -18 28 -17 39 -19 50 -10 12 10 5
29 -43 118 -31 58 -60 108 -65 109 -4 2 -8 10 -8 19 0 8 -7 13 -17 11 -13 -3
-17 -12 -16 -33 10 -157 8 -181 -22 -241 -73 -142 -223 -164 -325 -47 -94 107
-268 415 -289 511 -19 89 18 160 105 202 89 44 177 25 264 -56 45 -42 52 -46
66 -33 13 14 7 28 -53 132 -64 109 -80 127 -96 110z"/>
<path d="M47611 41543 l2 -66 -49 -39 c-27 -22 -50 -44 -52 -48 -2 -5 23 -14
56 -20 32 -7 63 -15 69 -19 5 -3 20 -34 32 -68 13 -35 25 -63 26 -63 2 0 20
27 40 60 36 59 37 60 83 61 26 1 57 4 69 7 21 7 20 9 -21 59 l-44 52 19 66
c20 75 20 75 -61 41 l-54 -24 -50 34 c-28 19 -54 34 -59 34 -5 0 -7 -30 -6
-67z"/>
<path d="M44427 41493 c-4 -3 -7 -20 -7 -37 0 -31 0 -31 -58 -33 -154 -3 -254
-127 -254 -313 0 -182 111 -349 275 -412 74 -29 188 -29 242 -1 48 25 96 75
120 123 10 19 19 37 21 38 1 2 16 -4 33 -14 22 -13 34 -15 42 -7 8 8 -4 39
-43 112 -69 132 -82 131 -83 -5 0 -93 -2 -104 -27 -140 -54 -78 -139 -100
-210 -56 -69 43 -253 345 -278 457 -13 56 3 99 49 138 72 60 153 56 241 -14
67 -53 92 -47 55 13 -14 24 -40 69 -58 100 -30 54 -45 67 -60 51z"/>
<path d="M43722 41064 c-89 -53 -162 -102 -162 -109 0 -27 21 -26 69 3 l48 30
169 -285 c93 -157 170 -288 172 -292 1 -4 -20 -20 -48 -35 -52 -28 -55 -32
-41 -55 7 -10 45 8 175 85 91 54 166 101 166 104 0 3 -4 11 -9 19 -7 11 -17 8
-53 -13 -25 -14 -49 -26 -55 -26 -11 0 -343 552 -343 570 0 5 18 19 40 30 23
12 44 28 47 36 15 41 -22 27 -175 -62z"/>
<path d="M46626 41028 c3 -40 7 -81 9 -90 2 -11 -21 -35 -66 -70 -37 -29 -67
-57 -65 -63 1 -5 40 -18 86 -30 l83 -20 30 -82 c16 -46 32 -83 36 -83 3 0 26
33 51 74 l45 75 75 6 c41 3 84 7 94 8 16 2 9 15 -41 72 l-60 70 23 85 c13 46
22 86 20 87 -2 2 -38 -10 -80 -27 -42 -16 -81 -30 -87 -30 -5 0 -37 18 -69 40
-92 63 -90 63 -84 -22z"/>
<path d="M43190 40749 c-146 -87 -266 -162 -268 -168 -2 -5 22 -59 53 -121 42
-84 60 -110 71 -106 9 3 17 6 18 6 1 0 -7 36 -18 80 -16 69 -17 86 -7 121 13
43 40 75 86 99 23 12 28 12 36 0 4 -8 82 -139 172 -290 l164 -275 -53 -30
c-34 -19 -54 -37 -54 -48 0 -12 6 -17 18 -15 30 5 342 192 342 205 0 25 -23
23 -75 -6 l-54 -30 -102 172 c-56 95 -133 225 -172 290 -38 64 -68 119 -66
121 2 2 23 13 46 25 76 38 128 25 214 -56 33 -30 54 -43 65 -39 9 3 14 12 11
19 -11 29 -142 207 -151 206 -6 0 -130 -72 -276 -160z"/>
<path d="M45655 40488 c3 -40 8 -85 10 -99 3 -23 -7 -35 -75 -90 -44 -35 -80
-67 -80 -70 0 -4 44 -18 98 -31 l97 -24 37 -93 c21 -52 39 -96 41 -98 3 -2 29
37 58 86 l54 90 65 1 c36 1 82 4 104 8 l39 7 -67 78 c-42 50 -65 85 -62 95 24
79 47 175 43 178 -3 3 -44 -11 -91 -30 -47 -20 -91 -36 -97 -36 -5 0 -43 23
-84 50 -41 28 -79 50 -85 50 -7 0 -8 -25 -5 -72z"/>
<path d="M44722 39882 l5 -92 -69 -56 c-38 -31 -67 -58 -65 -61 3 -2 42 -14
88 -26 l83 -22 30 -79 c17 -43 35 -79 39 -80 5 0 27 30 51 69 47 77 59 83 174
84 28 1 52 4 52 7 0 4 -26 36 -57 72 l-57 65 22 85 c13 46 21 87 18 89 -2 2
-37 -9 -77 -26 -41 -17 -79 -31 -85 -31 -6 0 -37 17 -70 38 -32 21 -65 42 -73
47 -12 7 -13 -7 -9 -83z"/>
<path d="M43795 39283 l6 -68 -51 -38 c-27 -21 -50 -42 -50 -47 0 -4 12 -11
28 -14 104 -26 100 -22 123 -87 12 -33 25 -62 29 -64 4 -2 22 22 40 54 l34 59
64 5 c35 2 66 7 69 10 3 3 -14 28 -37 56 l-43 51 17 61 c10 33 15 63 12 67 -3
3 -33 -6 -65 -20 l-59 -26 -51 34 c-28 19 -55 34 -61 34 -6 0 -8 -24 -5 -67z"/>
<path d="M17289 34802 c-70 -222 -356 -350 -625 -280 l-91 23 -492 -1445
c-270 -795 -492 -1448 -491 -1452 0 -5 6 -8 14 -8 7 0 51 -19 97 -42 111 -55
221 -163 269 -262 45 -95 58 -177 41 -263 -7 -38 -13 -76 -14 -86 -2 -16 350
-139 2532 -882 1394 -475 2538 -862 2542 -860 4 3 10 17 14 32 20 83 127 196
228 244 134 62 280 72 420 29 43 -13 63 -16 68 -8 4 6 156 449 339 986 l332
975 -26 26 c-19 18 -29 22 -34 14 -4 -6 -153 -440 -331 -965 -179 -524 -325
-954 -325 -954 -1 -1 -37 5 -81 13 -255 46 -522 -65 -626 -262 -13 -25 -27
-44 -31 -43 -3 2 -1116 381 -2471 843 l-2465 840 5 85 c14 231 -114 440 -342
560 -33 17 -61 33 -63 34 -2 3 839 2480 915 2692 l25 72 36 -11 c21 -6 93 -11
162 -11 110 0 134 3 203 27 131 46 238 130 298 235 13 23 29 42 36 42 6 0 460
-153 1009 -340 548 -187 1000 -337 1004 -335 5 3 10 1 12 -3 3 -9 589 -212
609 -212 10 0 -7 34 -35 72 -11 15 -1125 400 -2408 833 l-247 83 -12 -36z"/>
<path d="M17475 33756 c-166 -52 -283 -210 -301 -405 -15 -155 72 -321 192
-367 39 -15 158 -17 202 -3 8 2 18 -9 25 -30 7 -19 17 -36 24 -38 9 -3 66 128
88 205 13 44 -21 35 -71 -19 -58 -62 -111 -88 -177 -89 -53 0 -90 16 -125 53
-51 54 -46 131 19 328 46 140 98 251 137 292 33 34 87 50 130 37 97 -27 145
-93 146 -200 1 -59 8 -79 28 -80 3 0 23 50 43 111 41 121 38 149 -10 111 l-27
-21 -48 48 c-71 73 -175 99 -275 67z"/>
<path d="M17982 33599 c2 -17 15 -26 53 -39 29 -10 50 -23 49 -31 -1 -15 -213
-642 -219 -648 -2 -2 -25 4 -51 13 -61 20 -74 20 -74 -1 0 -14 39 -32 183 -81
100 -34 185 -62 190 -62 4 0 7 9 7 19 0 14 -13 24 -47 37 -27 9 -51 20 -56 24
-4 4 35 131 87 283 52 152 93 277 89 277 -3 0 -1 6 4 13 6 6 16 29 22 50 7 20
15 37 18 37 14 0 89 -24 98 -32 16 -14 25 -9 25 15 0 20 -17 28 -177 82 -223
75 -205 71 -201 44z"/>
<path d="M18446 33445 c-3 -9 -6 -18 -6 -20 0 -2 25 -12 55 -21 30 -10 55 -22
55 -28 0 -15 -211 -639 -220 -649 -3 -4 -26 0 -50 8 -47 16 -70 14 -70 -7 0
-16 244 -102 265 -94 32 12 13 33 -45 51 -34 10 -59 23 -57 29 2 6 53 155 113
331 60 176 110 313 112 305 1 -8 54 -206 116 -440 83 -315 116 -426 128 -428
17 -3 26 20 178 469 l84 246 55 -18 c67 -23 63 -23 59 3 -3 20 -52 41 -251
104 -15 5 -18 1 -15 -17 2 -17 15 -26 53 -39 29 -10 50 -23 50 -31 0 -21 -148
-455 -151 -444 -2 6 -33 123 -69 260 -36 138 -72 273 -80 300 l-14 50 -133 44
c-73 24 -138 46 -144 48 -6 2 -14 -3 -18 -12z"/>
<path d="M19317 33153 c-17 -17 -3 -31 49 -47 33 -10 54 -22 52 -29 -3 -7 -54
-157 -113 -333 l-109 -321 -54 18 c-56 19 -72 18 -72 -6 0 -8 35 -25 88 -43
354 -121 566 -192 568 -189 10 10 92 242 88 249 -11 17 -34 7 -49 -23 -26 -50
-84 -107 -122 -120 -20 -6 -53 -8 -76 -5 -36 6 -215 63 -226 72 -3 3 50 163
100 301 8 21 8 21 55 3 26 -9 59 -28 72 -41 22 -21 24 -29 19 -86 -4 -49 -2
-63 11 -68 8 -3 16 -4 18 -2 12 11 104 303 100 314 -8 20 -34 16 -41 -6 -9
-30 -45 -72 -71 -81 -20 -8 -108 9 -136 26 -6 4 86 290 97 302 1 1 47 -13 101
-33 162 -59 194 -91 194 -193 0 -46 4 -61 16 -66 9 -4 18 -5 19 -4 11 12 55
202 48 208 -8 8 -597 210 -611 210 -5 0 -12 -3 -15 -7z"/>
<path d="M20087 32893 c-17 -16 -3 -30 43 -47 28 -10 50 -21 50 -25 0 -3 -50
-153 -111 -333 l-111 -327 -51 19 c-53 20 -70 18 -65 -8 4 -21 258 -107 258
-86 0 8 0 17 0 22 0 4 -21 14 -48 23 -27 9 -47 22 -46 30 2 23 207 620 211
615 3 -2 0 -134 -6 -293 -16 -414 -15 -453 7 -453 11 1 88 100 215 278 109
152 206 288 217 302 12 15 -22 -99 -87 -290 -59 -173 -108 -317 -110 -319 -2
-3 -27 3 -55 12 -53 17 -68 15 -68 -7 0 -13 311 -126 346 -126 8 0 14 8 14 19
0 13 -12 22 -45 31 -25 7 -48 16 -50 20 -6 10 214 653 226 661 21 13 -15 48
-72 68 -31 12 -63 21 -71 21 -7 0 -85 -99 -173 -220 -87 -121 -159 -219 -161
-217 -2 1 2 123 7 271 6 148 7 272 2 276 -8 8 -238 90 -252 90 -4 0 -11 -3
-14 -7z"/>
<path d="M17376 32651 c-3 -4 -23 -49 -45 -101 -31 -71 -38 -96 -29 -102 20
-12 26 -10 33 11 10 32 88 109 118 116 15 4 47 2 72 -5 l43 -12 -91 -267 c-50
-146 -92 -268 -93 -270 -2 -1 -26 5 -54 14 -53 17 -66 16 -57 -7 4 -11 295
-119 320 -118 4 0 7 8 7 18 0 13 -14 23 -47 33 -31 10 -47 21 -45 30 1 8 42
130 90 271 l88 257 39 -18 c68 -31 80 -52 84 -148 2 -69 6 -84 19 -81 10 2 24
36 43 106 l28 103 -27 10 c-118 45 -492 166 -496 160z"/>
<path d="M17966 32443 c-9 -22 -9 -21 35 -34 23 -7 43 -18 45 -24 4 -8 -114
-369 -171 -522 -3 -9 -15 -8 -50 4 -48 16 -61 13 -52 -10 4 -12 265 -107 293
-107 7 0 14 6 17 14 4 11 -8 20 -44 31 -40 14 -49 21 -44 34 4 9 45 128 91
265 47 138 86 251 88 253 1 2 22 -4 46 -12 30 -10 47 -12 54 -5 17 17 -4 28
-156 79 -121 41 -148 47 -152 34z"/>
<path d="M18462 32243 c-64 -22 -146 -103 -184 -181 -31 -62 -33 -74 -33 -167
0 -89 3 -106 26 -150 62 -116 140 -153 283 -133 14 2 21 -5 26 -22 11 -48 34
-27 69 64 27 71 31 90 20 96 -9 6 -23 -3 -46 -30 -65 -76 -160 -100 -224 -57
-69 47 -73 102 -19 272 69 214 117 285 194 285 85 0 138 -57 146 -159 3 -35
10 -66 16 -68 16 -5 77 178 64 191 -7 7 -17 3 -31 -11 l-21 -21 -32 36 c-59
68 -158 89 -254 55z"/>
<path d="M21001 32005 c-69 -85 -126 -155 -126 -155 -1 0 -23 7 -49 16 -41 14
-50 14 -57 3 -5 -8 -9 -16 -9 -19 0 -10 280 -98 282 -89 0 5 1 14 2 21 1 6
-27 21 -62 32 l-63 21 67 83 c37 46 72 81 78 79 6 -2 57 -19 114 -38 l102 -33
0 -107 0 -107 -56 21 c-47 17 -57 18 -65 6 -5 -8 -9 -17 -9 -21 0 -3 81 -33
181 -67 142 -47 181 -57 185 -46 9 22 -2 31 -51 45 -44 12 -45 13 -45 54 0 36
-11 58 -79 157 l-79 115 -91 29 -90 28 40 50 c30 39 37 53 28 63 -6 8 -14 14
-18 14 -3 0 -62 -70 -130 -155z"/>
<path d="M18920 32111 c0 -13 12 -22 43 -30 l43 -12 -88 -262 c-49 -144 -92
-265 -96 -269 -5 -5 -27 -2 -49 6 -42 15 -53 13 -53 -10 0 -13 294 -116 304
-106 15 15 3 32 -31 42 -21 7 -41 15 -44 19 -4 3 15 69 40 145 l47 140 67
-179 c36 -99 65 -181 63 -182 -2 -2 -22 4 -46 12 -52 19 -50 19 -50 -3 0 -13
31 -28 140 -66 128 -44 170 -51 170 -28 0 5 -14 15 -32 23 -29 13 -37 29 -113
230 l-82 216 131 65 131 65 44 -15 c36 -12 45 -12 52 -1 4 8 5 17 1 20 -17 15
-227 78 -230 69 -7 -20 -3 -24 37 -39 l40 -16 -159 -83 -158 -83 41 125 41
124 44 -16 c37 -12 46 -12 53 -1 5 8 3 16 -4 20 -18 10 -277 99 -288 99 -5 0
-9 -8 -9 -19z"/>
<path d="M16984 31936 c-3 -8 -4 -21 -2 -28 7 -19 3621 -1248 3630 -1234 4 6
8 18 8 26 0 11 -479 178 -1806 630 -993 338 -1809 616 -1814 618 -6 2 -13 -3
-16 -12z"/>
<path d="M19624 31879 c-9 -14 4 -24 49 -39 21 -7 37 -17 34 -24 -2 -6 -41
-121 -86 -256 -45 -135 -86 -251 -90 -259 -9 -14 -20 -12 -82 14 -11 4 -18 0
-21 -12 -4 -16 28 -30 251 -106 141 -47 262 -88 270 -89 15 -3 95 188 85 204
-11 17 -32 7 -44 -22 -7 -16 -30 -46 -51 -65 -49 -44 -91 -46 -204 -9 -44 15
-82 28 -83 30 -2 1 15 61 39 132 l43 130 40 -14 c66 -24 78 -40 74 -104 -2
-43 0 -55 12 -58 12 -2 26 30 58 126 23 70 42 131 42 135 0 21 -37 3 -48 -23
-21 -47 -57 -61 -114 -43 -27 7 -48 17 -48 21 0 12 73 217 81 226 13 15 167
-43 204 -79 32 -29 35 -37 35 -88 0 -39 4 -56 15 -61 11 -4 19 9 31 52 8 31
20 70 25 86 5 16 8 30 7 32 -3 2 -508 174 -513 174 -2 0 -7 -5 -11 -11z"/>
<path d="M20213 31579 c-24 -56 -40 -105 -37 -110 9 -16 32 -10 39 10 10 32
88 109 118 116 15 4 47 2 71 -5 l43 -12 -90 -266 c-50 -147 -92 -269 -93 -271
-2 -2 -24 4 -50 13 -60 20 -64 20 -64 -2 0 -14 34 -29 161 -71 88 -29 163 -50
166 -47 14 13 -9 34 -51 46 -41 11 -46 15 -40 34 4 11 46 134 93 273 l87 252
42 -19 c60 -27 82 -68 82 -156 0 -54 4 -73 15 -77 15 -7 19 4 51 137 10 42 16
77 13 79 -3 3 -422 147 -504 174 -5 1 -29 -43 -52 -98z"/>
<path d="M17025 31380 l-41 -40 -53 10 c-30 6 -56 8 -58 6 -3 -2 7 -27 21 -54
l26 -51 -25 -43 c-14 -24 -25 -47 -25 -52 0 -5 25 -6 57 -2 56 7 57 6 99 -35
l42 -41 6 31 c3 17 8 44 11 60 5 22 17 33 55 51 28 13 50 26 50 30 0 4 -22 17
-49 30 -51 23 -61 42 -61 111 0 16 -3 29 -8 29 -4 0 -25 -18 -47 -40z"/>
<path d="M17914 31109 l-51 -50 -76 14 c-42 8 -77 12 -77 8 1 -3 16 -35 34
-71 l34 -65 -35 -63 c-19 -35 -33 -66 -29 -69 3 -3 36 -1 73 5 l68 11 56 -55
c64 -63 63 -64 75 38 l6 57 69 32 c38 18 69 35 69 38 0 3 -29 21 -65 39 -69
36 -70 38 -80 125 -3 31 -10 57 -13 57 -4 0 -30 -23 -58 -51z"/>
<path d="M18804 30829 l-61 -60 -83 15 c-46 9 -85 14 -88 12 -2 -3 14 -38 36
-79 l40 -75 -39 -71 c-21 -40 -39 -76 -39 -80 0 -5 37 -2 83 5 l82 13 60 -59
c33 -33 63 -60 67 -60 3 0 12 38 18 84 l13 84 74 32 c40 18 76 36 79 41 2 5
-28 25 -68 45 -40 20 -76 41 -80 47 -4 6 -10 44 -14 84 -3 40 -10 75 -13 78
-4 2 -34 -23 -67 -56z"/>
<path d="M19692 30507 l-53 -54 -71 14 c-38 8 -72 12 -76 9 -3 -4 9 -36 26
-72 l33 -66 -37 -65 c-20 -35 -34 -66 -32 -67 1 -2 36 1 76 7 l73 10 54 -53
c30 -30 56 -52 58 -49 2 2 9 35 15 73 6 37 12 70 14 71 2 1 34 18 73 38 l69
35 -71 36 c-71 35 -72 36 -78 83 -3 27 -9 61 -13 76 l-7 28 -53 -54z"/>
<path d="M20574 30169 l-40 -40 -53 12 c-29 6 -55 9 -57 6 -3 -3 6 -27 20 -54
l25 -50 -30 -52 -30 -53 64 7 64 7 35 -41 c19 -23 38 -41 41 -41 3 0 9 25 13
56 6 55 7 56 60 82 30 14 54 29 54 33 0 3 -19 14 -41 25 -57 25 -69 39 -69 82
0 62 -11 66 -56 21z"/>
<path d="M20575 39668 c-121 -23 -274 -124 -343 -228 -83 -124 -108 -299 -58
-406 30 -65 94 -126 162 -156 30 -13 54 -27 54 -31 0 -4 -7 -21 -15 -37 -14
-27 -12 -60 4 -60 12 0 206 122 209 131 2 5 10 9 19 9 8 0 13 7 11 18 -4 18
-2 18 -140 6 -88 -8 -145 8 -200 54 -61 52 -85 149 -52 218 23 49 113 128 251
221 149 101 268 162 332 170 84 10 157 -48 191 -151 22 -67 0 -141 -66 -223
-33 -41 -38 -80 -8 -69 28 11 224 147 224 156 0 16 -23 24 -62 21 l-38 -3 0
64 c-1 211 -216 345 -475 296z"/>
<path d="M21205 39146 c-19 -13 -18 -16 23 -74 l42 -60 -62 -45 c-91 -64 -607
-407 -621 -413 -7 -2 -28 21 -47 51 -36 56 -44 62 -70 45 -12 -7 10 -45 113
-199 70 -104 131 -192 136 -195 4 -3 16 0 25 7 15 11 14 15 -7 47 -13 19 -31
47 -41 62 l-17 26 278 188 c271 184 376 253 400 267 7 5 28 -16 54 -53 23 -33
43 -60 45 -60 1 0 9 7 18 15 13 13 1 36 -111 203 -69 103 -129 190 -133 195
-3 4 -15 1 -25 -7z"/>
<path d="M19853 38627 c-105 -58 -127 -77 -104 -92 6 -3 43 4 84 16 99 29 138
22 195 -37 23 -24 42 -48 42 -52 -1 -4 -127 -91 -281 -194 l-280 -187 -36 55
c-37 56 -50 64 -60 39 -3 -10 34 -75 98 -172 57 -85 107 -160 110 -165 7 -11
39 0 39 14 0 6 -16 32 -35 59 l-35 48 276 186 c152 102 280 185 285 185 14 0
59 -85 59 -114 0 -39 -22 -84 -69 -143 -43 -55 -48 -68 -31 -78 11 -7 210 144
210 159 0 7 -328 504 -349 528 -3 4 -57 -21 -118 -55z"/>
<path d="M21530 38655 c-11 -13 -6 -25 25 -71 20 -31 33 -60 28 -64 -4 -4
-159 -109 -344 -233 l-336 -227 -37 55 c-38 58 -47 63 -64 42 -9 -10 10 -46
78 -148 50 -73 94 -134 100 -133 26 3 30 5 30 17 0 7 -16 36 -35 64 -19 29
-35 57 -35 62 0 10 659 455 665 449 2 -2 -84 -215 -191 -473 -107 -259 -197
-482 -200 -496 -4 -15 -1 -30 5 -33 6 -4 178 106 383 243 l372 251 35 -55 c37
-56 51 -65 69 -42 9 10 -10 46 -78 148 -50 73 -94 135 -98 137 -5 1 -15 -4
-22 -13 -11 -13 -7 -24 24 -70 20 -30 36 -58 36 -63 0 -4 -106 -79 -235 -165
-129 -87 -235 -155 -235 -153 0 3 61 153 136 333 75 180 138 335 141 344 5 16
-183 309 -197 309 -4 0 -13 -7 -20 -15z"/>
<path d="M19063 38282 l-22 -17 1259 -1874 c693 -1031 1264 -1879 1269 -1884
12 -12 53 11 49 27 -4 16 -2521 3765 -2528 3765 -3 0 -15 -7 -27 -17z"/>
<path d="M20355 38060 c-4 -6 0 -21 7 -33 8 -12 22 -34 32 -49 l17 -26 -275
-186 c-152 -102 -279 -186 -283 -186 -5 0 -21 20 -36 45 -30 47 -34 50 -56 36
-10 -6 11 -44 89 -162 122 -184 115 -175 134 -160 14 12 12 18 -14 56 -17 24
-30 48 -30 54 0 6 125 94 277 196 l277 184 33 -49 c23 -34 38 -48 49 -43 8 3
14 11 12 18 -6 26 -203 315 -215 315 -6 0 -15 -5 -18 -10z"/>
<path d="M18540 37762 l-13 -70 -66 -29 -66 -29 62 -35 c64 -35 73 -48 73
-109 1 -65 13 -68 68 -16 l50 47 63 -15 c35 -8 65 -13 67 -12 1 2 -11 32 -27
67 l-29 63 23 36 c12 19 28 46 35 59 l12 24 -68 -7 -67 -7 -53 52 -52 51 -12
-70z"/>
<path d="M22132 37757 c-9 -10 -3 -25 23 -65 19 -28 35 -55 35 -60 0 -8 -644
-447 -672 -457 -10 -4 -28 14 -51 50 -39 58 -48 63 -66 41 -10 -12 30 -77 214
-350 124 -185 230 -336 235 -336 13 0 253 154 257 165 1 6 -1 16 -6 24 -8 12
-19 10 -68 -11 -93 -42 -134 -45 -197 -14 -31 15 -69 45 -88 69 -44 53 -138
193 -138 204 0 4 75 57 165 117 187 124 169 122 221 19 33 -67 28 -93 -34
-156 -42 -43 -45 -48 -30 -63 14 -14 29 -6 177 92 88 59 161 112 161 119 0 29
-23 33 -64 12 -51 -27 -107 -28 -136 -2 -11 10 -36 40 -55 67 l-34 47 156 106
c86 58 159 102 163 98 23 -26 131 -196 144 -228 32 -75 15 -146 -50 -216 -24
-25 -25 -59 -1 -59 17 0 197 141 197 153 -1 16 -424 640 -437 644 -5 2 -15 -2
-21 -10z"/>
<path d="M20465 37516 c-115 -36 -229 -126 -275 -215 -29 -59 -52 -171 -44
-223 14 -90 75 -168 159 -204 38 -16 41 -21 23 -59 -24 -53 5 -48 110 17 56
35 100 67 99 73 -2 5 -19 9 -38 8 -131 -9 -165 -7 -206 15 -56 29 -86 73 -91
136 -3 43 1 56 22 85 34 46 99 99 216 176 173 116 261 144 323 106 41 -25 61
-53 78 -109 16 -54 2 -104 -46 -167 -19 -25 -35 -49 -35 -54 0 -27 29 -16 115
44 71 50 93 70 86 79 -6 7 -24 11 -39 8 -29 -4 -29 -3 -35 54 -16 154 -132
245 -311 243 -39 0 -89 -6 -111 -13z"/>
<path d="M21021 37071 c-11 -7 -7 -18 19 -56 18 -26 28 -50 24 -54 -18 -16
-531 -360 -541 -363 -6 -2 -25 16 -42 40 -17 23 -36 42 -41 42 -32 0 -14 -41
75 -172 118 -173 111 -164 129 -149 14 12 12 18 -14 56 -17 24 -30 46 -30 49
0 7 281 199 285 194 4 -4 -120 -417 -128 -424 -2 -3 -18 16 -33 41 -29 44 -47
55 -59 34 -7 -10 191 -319 204 -319 3 0 12 4 20 9 11 7 10 15 -9 40 l-22 32
77 262 c43 144 80 265 84 268 3 3 80 -8 171 -24 l166 -30 32 -48 c22 -33 37
-47 47 -43 8 4 15 10 15 15 0 12 -151 239 -159 239 -3 0 -12 -4 -20 -9 -11 -7
-7 -18 18 -54 17 -25 31 -47 31 -49 0 -3 -93 13 -207 34 -115 20 -210 37 -213
38 -5 0 247 170 253 170 2 0 18 -20 36 -45 20 -29 37 -42 46 -38 8 3 15 10 15
15 0 12 -201 308 -209 308 -3 0 -12 -4 -20 -9z"/>
<path d="M19148 36964 c-3 -5 -11 -46 -18 -91 l-13 -82 -84 -37 c-46 -20 -83
-40 -83 -43 0 -3 35 -24 78 -46 l77 -41 8 -59 c4 -33 10 -75 13 -94 l5 -34 63
62 c68 67 72 69 172 46 36 -9 69 -13 72 -10 3 3 -11 41 -32 84 l-39 78 42 71
c45 77 50 96 24 88 -10 -3 -50 -8 -89 -12 l-70 -6 -61 67 c-33 37 -63 63 -65
59z"/>
<path d="M21513 36339 c-9 -9 -4 -23 18 -56 17 -24 27 -47 24 -53 -6 -9 -540
-370 -549 -370 -2 0 -15 17 -28 37 -13 20 -26 41 -29 45 -7 10 -39 0 -39 -12
0 -5 83 -133 185 -284 l186 -276 84 53 c120 75 137 89 126 106 -8 12 -17 11
-59 -7 -98 -42 -169 -26 -234 53 -50 61 -110 157 -102 164 5 4 66 46 136 94
l126 86 27 -41 c15 -22 29 -55 32 -73 5 -28 -1 -39 -37 -79 -35 -38 -40 -49
-30 -61 10 -12 32 -1 146 76 74 49 134 94 134 99 0 19 -26 21 -63 5 -60 -25
-81 -20 -126 31 -23 26 -41 52 -41 59 0 10 71 61 222 159 l27 17 51 -76 c93
-138 101 -182 45 -265 -37 -56 -41 -65 -25 -75 15 -9 172 115 166 131 -10 26
-347 524 -354 524 -5 0 -13 -5 -19 -11z"/>
<path d="M19734 35981 l-17 -100 -94 -42 c-51 -24 -93 -45 -93 -48 0 -4 41
-28 90 -54 50 -27 90 -54 90 -60 0 -32 20 -180 25 -185 3 -3 36 25 74 61 38
37 77 67 88 67 10 -1 47 -7 83 -15 117 -26 115 -28 70 68 -21 45 -40 87 -42
93 -2 6 19 50 46 98 26 48 47 88 45 90 -2 2 -48 -3 -102 -10 l-98 -14 -57 61
c-31 34 -61 68 -65 75 -17 29 -26 11 -43 -85z"/>
<path d="M21862 35641 c-120 -68 -128 -74 -109 -89 10 -8 29 -6 76 8 111 35
163 23 220 -49 l31 -39 -269 -181 c-148 -100 -276 -184 -284 -187 -9 -3 -25
12 -47 45 -34 54 -37 56 -59 42 -10 -6 13 -48 99 -177 62 -93 115 -171 117
-173 2 -3 10 2 18 10 13 13 10 21 -21 68 -20 29 -34 54 -32 56 2 1 128 87 280
189 l277 187 27 -41 c49 -73 36 -140 -45 -231 -34 -39 -38 -49 -28 -63 11 -14
24 -7 115 64 56 45 102 83 102 86 0 9 -354 534 -359 534 -4 -1 -52 -27 -109
-59z"/>
<path d="M20371 35059 c-19 -112 -16 -107 -102 -146 -43 -20 -79 -39 -79 -42
0 -3 36 -25 79 -49 l79 -42 7 -90 c4 -50 10 -90 13 -90 4 0 35 28 69 62 l63
62 87 -17 c48 -9 88 -15 91 -13 2 2 -14 39 -36 82 l-39 77 45 79 c24 43 43 80
41 82 -2 2 -42 -2 -89 -8 l-85 -12 -66 70 -65 70 -13 -75z"/>
<path d="M21015 34103 c-12 -88 -13 -90 -76 -117 -32 -14 -59 -29 -59 -33 0
-4 27 -22 59 -40 l58 -32 6 -61 c3 -34 8 -64 11 -68 4 -3 28 16 55 42 l48 47
64 -15 c35 -8 66 -12 68 -10 3 3 -7 29 -22 60 -15 30 -27 59 -27 66 0 6 14 33
30 60 17 26 30 51 30 54 0 4 -31 4 -69 0 l-68 -7 -46 51 c-25 27 -47 50 -50
50 -3 0 -8 -21 -12 -47z"/>
</g>
</svg>
